<svg xmlns="http://www.w3.org/2000/svg" width="15" height="11.999" viewBox="0 0 15 11.999">
  <path id="warehouse-solid" d="M11.813,8.274H3.2a.188.188,0,0,0-.187.188l0,1.125a.188.188,0,0,0,.188.188h8.618A.188.188,0,0,0,12,9.587V8.462A.188.188,0,0,0,11.813,8.274Zm0,2.25H3.19A.188.188,0,0,0,3,10.712l0,1.125a.188.188,0,0,0,.188.188h8.625A.188.188,0,0,0,12,11.837V10.712A.188.188,0,0,0,11.813,10.524Zm0-4.5H3.2a.188.188,0,0,0-.187.188l0,1.125a.188.188,0,0,0,.188.188h8.613A.188.188,0,0,0,12,7.337V6.212A.188.188,0,0,0,11.813,6.024Zm2.5-3.258L7.931.111a1.129,1.129,0,0,0-.865,0L.691,2.767A1.128,1.128,0,0,0,0,3.8v8.032a.188.188,0,0,0,.188.188H2.063a.188.188,0,0,0,.188-.187V6.024a.758.758,0,0,1,.764-.75h8.972a.758.758,0,0,1,.764.75v5.813a.188.188,0,0,0,.188.188h1.875A.188.188,0,0,0,15,11.837V3.8A1.128,1.128,0,0,0,14.309,2.767Z" transform="translate(0 -0.025)" fill="#636d76"/>
</svg>
