<svg xmlns="http://www.w3.org/2000/svg" xmlns:xlink="http://www.w3.org/1999/xlink" width="304" height="74" viewBox="0 0 304 74"><defs><style>.a{fill:none;}.b{fill:#ef7622;}.c{fill:#231f20;}.d{fill:#fff;}.e{fill:#fcb316;}.f{fill:#10357f;}.g{fill:#006fcf;}.h{fill:#ff5f00;}.i{fill:#eb001b;}.j{fill:#f79e1b;}.k{clip-path:url(#a);}.l{fill:url(#b);}</style><clipPath id="a"><path d="M250.9,34.1a4.2,4.2,0,1,0,4.2-4.2,4.161,4.161,0,0,0-4.2,4.2"/></clipPath><linearGradient id="b" x1="-94.018" y1="21.697" x2="-93.99" y2="21.697" gradientUnits="objectBoundingBox"><stop offset="0" stop-color="#f59f00"/><stop offset="0.235" stop-color="#f49a01"/><stop offset="0.5" stop-color="#f28d04"/><stop offset="0.62" stop-color="#f18406"/><stop offset="0.755" stop-color="#ef7b09"/><stop offset="1" stop-color="#ed6f0d"/></linearGradient></defs><rect class="a" width="304" height="74"/><path class="b" d="M280.7,38.7s-14.8,10.5-42,15.2h42Z"/><path class="c" d="M280.9,19.3H226.4v35h54.7v-35Zm-.2.4V53.9H226.8V19.7Z"/><path class="c" d="M231.2,30h-2.3v7.9h2.2A4.359,4.359,0,0,0,234,37a3.749,3.749,0,0,0,1.4-3,3.909,3.909,0,0,0-3.8-4Zm1.8,6a2.743,2.743,0,0,1-2.1.6h-.4V31.3h.4a3.068,3.068,0,0,1,2.1.6,2.518,2.518,0,0,1,.9,2A2.583,2.583,0,0,1,233,36Z"/><rect class="c" width="1.5" height="7.9" transform="translate(236.1 30)"/><path class="c" d="M241.4,33c-.9-.3-1.2-.6-1.2-1a1.1,1.1,0,0,1,1.1-.9,1.425,1.425,0,0,1,1.2.6l.8-1.1a3.337,3.337,0,0,0-2.3-.9,2.351,2.351,0,0,0-2.5,2.2V32c0,1.1.5,1.7,1.9,2.2a5.36,5.36,0,0,1,1.1.5,1.02,1.02,0,0,1,.5.8,1.11,1.11,0,0,1-1.1,1.1h-.1a1.848,1.848,0,0,1-1.7-1.1l-1,1a3.105,3.105,0,0,0,2.8,1.5,2.564,2.564,0,0,0,2.7-2.4v-.2C243.7,34.3,243.2,33.7,241.4,33Z"/><path class="c" d="M244.2,34a4.055,4.055,0,0,0,4.1,4.1h.1a4.136,4.136,0,0,0,1.9-.5V35.8a2.647,2.647,0,0,1-1.9.9,2.721,2.721,0,0,1-2.7-2.5V34a2.588,2.588,0,0,1,2.5-2.7h.1a2.322,2.322,0,0,1,1.9.9V30.3a4.052,4.052,0,0,0-6,3.7Z"/><path class="c" d="M262.6,35.3,260.5,30h-1.7l3.3,8.1h.9l3.4-8.1h-1.7Z"/><path class="c" d="M267.1,37.9h4.4V36.6h-2.9V34.5h2.8V33.1h-2.8V31.4h2.9V30h-4.4Z"/><path class="c" d="M277.6,32.3c0-1.5-1-2.3-2.8-2.3h-2.3v7.9H274V34.7h.2l2.1,3.2h1.9l-2.5-3.3A2.117,2.117,0,0,0,277.6,32.3Zm-3.1,1.4H274V31.3h.5q1.5,0,1.5,1.2T274.5,33.7Z"/><path class="c" d="M278.7,30.4c0-.1-.1-.2-.3-.2h-.2v.7h.2v-.3l.2.3h.2l-.2-.3A.349.349,0,0,0,278.7,30.4Zm-.3.1h0v-.2h0c.1,0,.1,0,.1.1S278.5,30.5,278.4,30.5Z"/><path class="c" d="M278.4,29.9a.6.6,0,1,0,.6.6h0a.576.576,0,0,0-.6-.6Zm0,1.1a.5.5,0,1,1,.5-.5h0a.472.472,0,0,1-.5.5Z"/><rect class="d" width="56.6" height="36" transform="translate(155.1 18.8)"/><rect class="e" width="54.7" height="4.9" transform="translate(156.1 48.9)"/><rect class="f" width="54.7" height="4.9" transform="translate(156.1 19.8)"/><path class="f" d="M178,30.1l-5.7,13.5h-3.7l-2.8-10.8a1.482,1.482,0,0,0-.8-1.2,14.961,14.961,0,0,0-3.4-1.1l.1-.4h5.9a1.617,1.617,0,0,1,1.6,1.4l1.5,7.8,3.6-9.2Zm14.4,9.1c0-3.6-4.9-3.8-4.9-5.3,0-.5.5-1,1.5-1.1a6.466,6.466,0,0,1,3.4.6l.6-2.9a9.191,9.191,0,0,0-3.3-.6c-3.4,0-5.9,1.8-5.9,4.5,0,1.9,1.7,3,3.1,3.7s1.8,1.1,1.8,1.7c0,.9-1.1,1.3-2.1,1.3a8.988,8.988,0,0,1-3.6-.8l-.6,3a10.361,10.361,0,0,0,3.9.7c3.7-.2,6.1-2,6.1-4.8m9.2,4.4h3.2L202,30.1h-3a1.638,1.638,0,0,0-1.5,1l-5.2,12.5H196l.7-2h4.5Zm-3.9-4.8,1.8-5.1,1.1,5.1ZM183,30.1l-2.9,13.5h-3.5l2.9-13.5Z"/><path class="d" d="M26.8,13.6V56H69.2V13.6H26.8Z"/><path class="g" d="M61.6,24,63,20.3h6.2V13.6H26.8V56H69.2V49.3H63.3l-2.2-2.5-2.2,2.5H42.3V35.9H36.8l6.9-15.5h6.7L52,23.9V20.4h8.3L61.6,24ZM57,26.5V25l.6,1.5,2.8,7.4H63l2.8-7.4.5-1.5v8.8h2.9V22.5H64.4l-2.2,5.7-.6,1.6L61,28.2l-2.2-5.7H54V33.8h3V26.5Zm-6.2,7.3h3.3l-5-11.3H45.2l-5,11.3h3.3l.9-2.2h5.5l.9,2.2Zm-4.2-7.4.6-1.4.6,1.4L49,29.3H45.5l1.1-2.9Zm-2,9.5V47.2H54V44.8H47.4v-2h6.4V40.4H47.4v-2H54V36l-9.4-.1Zm20,11.2h3.7L63,41.5l5.3-5.6H64.6l-3.4,3.7-3.4-3.7H54l5.3,5.7L54,47.2h3.6L61,43.5l3.6,3.6ZM66,41.5l3.2,3.3V38.3L66,41.5Z"/><rect width="56.6" height="35.8" transform="translate(85 18.9)"/><rect class="h" width="14.1" height="23" transform="translate(106.3 25.3)"/><path class="i" d="M107.7,36.8a14.746,14.746,0,0,1,5.6-11.5,14.6,14.6,0,1,0,0,23A14.746,14.746,0,0,1,107.7,36.8Z"/><path class="j" d="M135.5,45.9v-.5h.2v-.1h-.5v.1h.2l.1.5Zm1,0v-.6h-.1l-.2.4-.2-.4h-.1v.6h.1v-.4l.2.4h.1l.2-.4v.4Z"/><path class="j" d="M136.9,36.8a14.6,14.6,0,0,1-23.6,11.5,14.6,14.6,0,0,0,0-23,14.6,14.6,0,0,1,23.6,11.5Z"/><g class="k"><path class="l" d="M263,35.8l-6.2-9.7-9.7,6.2,6.2,9.7Z"/></g></svg>