<svg xmlns="http://www.w3.org/2000/svg" width="25" height="25" viewBox="0 0 25 25"><defs><style>.a{fill:#95a1ac;}</style></defs><path class="a" d="M26.952,19.694v1.613a.607.607,0,0,1-.6.6H21.911v4.435a.607.607,0,0,1-.6.6H19.694a.607.607,0,0,1-.6-.6V21.911H14.653a.607.607,0,0,1-.6-.6V19.694a.607.607,0,0,1,.6-.6h4.435V14.653a.607.607,0,0,1,.6-.6h1.613a.607.607,0,0,1,.6.6v4.435h4.435A.607.607,0,0,1,26.952,19.694ZM33,20.5A12.5,12.5,0,1,1,20.5,8,12.5,12.5,0,0,1,33,20.5Zm-2.419,0A10.081,10.081,0,1,0,20.5,30.581,10.078,10.078,0,0,0,30.581,20.5Z" transform="translate(-8 -8)"/></svg>