<svg xmlns="http://www.w3.org/2000/svg" width="12" height="12.389" viewBox="0 0 12 12.389"><defs><style>.a{fill:#000000;}</style></defs><path class="a" d="M13.947,35.614c-1.347.05-4.687.429-4.687,3.249,0,3.028,3.824,3.153,5.074,1.195a12.753,12.753,0,0,0,1.253,1.294L17.158,39.8s-.893-.7-.893-1.46V34.276c0-.7-.678-2.276-3.105-2.276s-3.725,1.521-3.725,2.884l2.033.188a1.723,1.723,0,0,1,1.5-1.369c1.125,0,.982.824.982,1.911Zm0,2.4c0,2.212-2.328,1.88-2.328.476,0-1.305,1.4-1.568,2.328-1.6Zm3.761,4.521a6.716,6.716,0,0,1-4.826,1.853A8.138,8.138,0,0,1,7.1,41.6c-.188-.213.028-.312.152-.23,2.027,1.231,5.193,3.258,10.3.838C17.763,42.1,17.924,42.259,17.708,42.536Zm1.1.061a2.3,2.3,0,0,1-.586.857c-.152.124-.263.075-.18-.105s.534-1.286.351-1.521-1.023-.119-1.327-.088-.359.055-.387-.008c-.064-.158.6-.429,1.037-.484s1.134-.022,1.272.158A2.025,2.025,0,0,1,18.809,42.6Z" transform="translate(-7.029 -32)"/></svg>