<svg xmlns="http://www.w3.org/2000/svg" xmlns:xlink="http://www.w3.org/1999/xlink" width="15" height="20.49" viewBox="0 0 15 20.49">
  <defs>
    <clipPath id="clip-path">
      <rect id="Rectangle_1" data-name="Rectangle 1" width="15" height="20.49" fill="none"/>
    </clipPath>
  </defs>
  <g id="Repeat_Grid_1" data-name="Repeat Grid 1" clip-path="url(#clip-path)">
    <g id="Group_1" data-name="Group 1" transform="translate(0 0)">
      <path id="angle-left" d="M.508,9.156,10.378.451a1.9,1.9,0,0,1,2.46,0L14.477,1.9a1.445,1.445,0,0,1,.512,1.085,1.445,1.445,0,0,1-.512,1.085L7.489,10.244l7,6.17a1.406,1.406,0,0,1,0,2.17l-1.64,1.455a1.9,1.9,0,0,1-2.46,0L.515,11.334a1.408,1.408,0,0,1,0-2.178Z" transform="translate(14.996 20.49) rotate(180)" fill="#f8faff"/>
    </g>
  </g>
</svg>
