<svg xmlns="http://www.w3.org/2000/svg" width="15" height="13.125" viewBox="0 0 15 13.125">
  <path id="arrow-right-to-bracket-solid" d="M12.188,32H10.313a.938.938,0,0,0,0,1.875h1.875a.938.938,0,0,1,.938.938v7.5a.938.938,0,0,1-.937.937H10.313a.938.938,0,0,0,0,1.875h1.875A2.812,2.812,0,0,0,15,42.313v-7.5A2.813,2.813,0,0,0,12.188,32Zm-2.15,5.9-3.75-3.75a.937.937,0,0,0-1.326,1.326l2.152,2.149H.937a.938.938,0,0,0,0,1.875H7.113l-2.15,2.15a.937.937,0,0,0,1.326,1.326l3.75-3.75A.938.938,0,0,0,10.037,37.9Z" transform="translate(0 -32)" fill="#1e1e1e"/>
</svg>
