<svg width="14" height="14" viewBox="0 0 14 14" fill="none" xmlns="http://www.w3.org/2000/svg">
<path d="M6.063 1H7.938C8.01193 0.999871 8.08515 1.01435 8.15346 1.04261C8.22177 1.07087 8.28382 1.11235 8.33605 1.16467C8.38827 1.21699 8.42964 1.27911 8.45778 1.34747C8.48592 1.41583 8.50027 1.48908 8.5 1.563V5.5H10.555C10.6477 5.49997 10.7383 5.52748 10.8154 5.57902C10.8924 5.63057 10.9524 5.70384 10.9878 5.78954C11.0231 5.87524 11.0322 5.96951 11.0139 6.06039C10.9956 6.15127 10.9508 6.23467 10.885 6.3L7.321 9.866C7.23595 9.95052 7.12091 9.99795 7.001 9.99795C6.8811 9.99795 6.76606 9.95052 6.681 9.866L3.112 6.3C3.04624 6.23467 3.00136 6.15127 2.98306 6.06039C2.96476 5.96951 2.97386 5.87524 3.00921 5.78954C3.04457 5.70384 3.10457 5.63057 3.18162 5.57902C3.25867 5.52748 3.3493 5.49997 3.442 5.5H5.5V1.563C5.49974 1.489 5.51412 1.41567 5.54232 1.34724C5.57052 1.27881 5.61198 1.21665 5.66431 1.16431C5.71665 1.11198 5.77882 1.07052 5.84724 1.04232C5.91567 1.01412 5.989 0.999739 6.063 1V1ZM13 9.813V12.438C13.0003 12.5119 12.9859 12.5852 12.9578 12.6535C12.9296 12.7219 12.8883 12.784 12.836 12.8363C12.7838 12.8887 12.7218 12.9301 12.6535 12.9584C12.5851 12.9867 12.5119 13.0011 12.438 13.001H1.563C1.489 13.0013 1.41567 12.9869 1.34724 12.9587C1.27881 12.9305 1.21665 12.889 1.16431 12.8367C1.11198 12.7844 1.07052 12.7222 1.04232 12.6538C1.01412 12.5853 0.999739 12.512 1 12.438V9.813C0.999739 9.739 1.01412 9.66567 1.04232 9.59724C1.07052 9.52881 1.11198 9.46665 1.16431 9.41431C1.21665 9.36198 1.27881 9.32052 1.34724 9.29232C1.41567 9.26412 1.489 9.24974 1.563 9.25H5L6.149 10.4C6.26049 10.5119 6.39296 10.6006 6.53882 10.6612C6.68468 10.7218 6.84107 10.7529 6.999 10.7529C7.15694 10.7529 7.31332 10.7218 7.45919 10.6612C7.60505 10.6006 7.73752 10.5119 7.849 10.4L9 9.25H12.438C12.5119 9.24987 12.5851 9.26435 12.6535 9.29261C12.7218 9.32087 12.7838 9.36235 12.836 9.41467C12.8883 9.46699 12.9296 9.52911 12.9578 9.59747C12.9859 9.66583 13.0003 9.73908 13 9.813ZM10.094 11.875C10.094 11.7822 10.0665 11.6916 10.015 11.6144C9.96343 11.5373 9.89018 11.4772 9.80448 11.4417C9.71878 11.4062 9.62448 11.3969 9.53351 11.415C9.44253 11.4331 9.35896 11.4778 9.29337 11.5434C9.22778 11.609 9.18311 11.6925 9.16502 11.7835C9.14692 11.8745 9.15621 11.9688 9.1917 12.0545C9.2272 12.1402 9.28731 12.2134 9.36444 12.265C9.44157 12.3165 9.53224 12.344 9.625 12.344C9.74931 12.3437 9.86845 12.2942 9.95634 12.2063C10.0442 12.1184 10.0937 11.9993 10.094 11.875ZM11.594 11.875C11.594 11.7822 11.5665 11.6916 11.515 11.6144C11.4634 11.5373 11.3902 11.4772 11.3045 11.4417C11.2188 11.4062 11.1245 11.3969 11.0335 11.415C10.9425 11.4331 10.859 11.4778 10.7934 11.5434C10.7278 11.609 10.6831 11.6925 10.665 11.7835C10.6469 11.8745 10.6562 11.9688 10.6917 12.0545C10.7272 12.1402 10.7873 12.2134 10.8644 12.265C10.9416 12.3165 11.0322 12.344 11.125 12.344C11.2493 12.3437 11.3684 12.2942 11.4563 12.2063C11.5442 12.1184 11.5937 11.9993 11.594 11.875V11.875Z" fill="#636D76"/>
<path d="M7 0C5.61553 0 4.26216 0.410543 3.11101 1.17971C1.95987 1.94888 1.06266 3.04213 0.532846 4.32122C0.003033 5.6003 -0.13559 7.00776 0.134506 8.36563C0.404603 9.7235 1.07129 10.9708 2.05026 11.9497C3.02922 12.9287 4.2765 13.5954 5.63437 13.8655C6.99224 14.1356 8.3997 13.997 9.67879 13.4672C10.9579 12.9373 12.0511 12.0401 12.8203 10.889C13.5895 9.73785 14 8.38447 14 7C14 5.14348 13.2625 3.36301 11.9498 2.05025C10.637 0.737498 8.85652 0 7 0V0ZM10.6727 3.32733C11.5361 4.19057 12.0678 5.33039 12.1745 6.54666C12.2812 7.76293 11.956 8.97791 11.256 9.97827L4.02174 2.744C5.0221 2.04402 6.23707 1.71881 7.45334 1.82549C8.66962 1.93216 9.80943 2.4639 10.6727 3.32733V3.32733ZM3.32827 10.6717C2.46484 9.8085 1.9331 8.66868 1.82642 7.45241C1.71975 6.23614 2.04495 5.02116 2.74494 4.0208L9.9792 11.2551C8.97887 11.9554 7.76376 12.2809 6.54728 12.1744C5.3308 12.0679 4.19075 11.5362 3.32734 10.6727L3.32827 10.6717Z" fill="#E34850"/>
</svg>
