<svg xmlns="http://www.w3.org/2000/svg" width="15" height="12" viewBox="0 0 15 12"><defs><style>.a{fill:#98aeca;}</style></defs><path class="a" d="M3.563,0H.188A.188.188,0,0,0,0,.188V3.75a.188.188,0,0,0,.188.188H.563A.188.188,0,0,0,.75,3.75v-3H3.563A.188.188,0,0,0,3.75.563V.188A.188.188,0,0,0,3.563,0Zm0,11.25H.75v-3a.188.188,0,0,0-.187-.187H.188A.188.188,0,0,0,0,8.25v3.563A.188.188,0,0,0,.188,12H3.563a.188.188,0,0,0,.188-.187v-.375A.188.188,0,0,0,3.563,11.25ZM14.813,0H11.438a.188.188,0,0,0-.187.188V.563a.188.188,0,0,0,.188.188H14.25v3a.188.188,0,0,0,.188.188h.375A.188.188,0,0,0,15,3.75V.188A.188.188,0,0,0,14.813,0Zm0,8.063h-.375a.188.188,0,0,0-.187.188v3H11.438a.188.188,0,0,0-.187.188v.375a.188.188,0,0,0,.188.188h3.375A.188.188,0,0,0,15,11.813V8.25A.188.188,0,0,0,14.813,8.063ZM3.563,2.25H2.438a.188.188,0,0,0-.187.188V9.563a.188.188,0,0,0,.188.188H3.563a.188.188,0,0,0,.188-.187V2.438A.188.188,0,0,0,3.563,2.25Zm7.875,7.5h1.125a.188.188,0,0,0,.188-.187V2.438a.188.188,0,0,0-.187-.187H11.438a.188.188,0,0,0-.187.188V9.563A.188.188,0,0,0,11.438,9.75ZM9.563,2.25H8.438a.188.188,0,0,0-.187.188V9.563a.188.188,0,0,0,.188.188H9.563a.188.188,0,0,0,.188-.187V2.438A.188.188,0,0,0,9.563,2.25Zm-4.5,0H4.688a.188.188,0,0,0-.187.188V9.563a.188.188,0,0,0,.188.188h.375a.188.188,0,0,0,.188-.187V2.438A.188.188,0,0,0,5.063,2.25Zm1.5,0H6.188A.188.188,0,0,0,6,2.438V9.563a.188.188,0,0,0,.188.188h.375a.188.188,0,0,0,.188-.187V2.438A.188.188,0,0,0,6.563,2.25Z"/></svg>