<svg xmlns="http://www.w3.org/2000/svg" width="20" height="20" viewBox="0 0 20 20"><defs><style>.a{fill:#a2a2a2;}</style></defs><path class="a" d="M10,20a2.7,2.7,0,0,0,2.856-2.5H7.144A2.7,2.7,0,0,0,10,20Zm9.616-5.848c-.862-.811-2.476-2.031-2.476-6.027,0-3.035-2.432-5.465-5.712-6.061V1.25A1.348,1.348,0,0,0,10,0,1.348,1.348,0,0,0,8.572,1.25v.814C5.292,2.66,2.86,5.09,2.86,8.125c0,4-1.614,5.216-2.476,6.027A1.142,1.142,0,0,0,0,15a1.347,1.347,0,0,0,1.433,1.25H18.566A1.347,1.347,0,0,0,20,15,1.141,1.141,0,0,0,19.615,14.152Z" transform="translate(0.001)"/></svg>