<svg xmlns="http://www.w3.org/2000/svg" width="12" height="13.716" viewBox="0 0 12 13.716"><defs><style>.a{fill:#636d76;}</style></defs><path class="a" d="M9.214,7.722H2.786a.215.215,0,0,0-.214.214v.857a.215.215,0,0,0,.214.214H9.214a.215.215,0,0,0,.214-.214V7.936A.215.215,0,0,0,9.214,7.722ZM10.736.16,9.571,1,8.537.254a1.283,1.283,0,0,0-1.5,0L6,1,4.966.254a1.283,1.283,0,0,0-1.5,0L2.429,1,1.264.16A.8.8,0,0,0,0,.809V12.924a.8.8,0,0,0,1.264.648l1.165-.841,1.034.745a1.283,1.283,0,0,0,1.5,0L6,12.731l1.034.745a1.283,1.283,0,0,0,1.5,0l1.034-.745,1.165.838A.8.8,0,0,0,12,12.924V.809A.8.8,0,0,0,10.736.16Zm-.021,11.807-1.144-.822L7.784,12.431,6,11.145,4.211,12.431,2.424,11.145l-1.138.822V1.762l1.144.822L4.216,1.3,6,2.584,7.789,1.3,9.576,2.584l1.138-.822Zm-1.5-7.246H2.786a.215.215,0,0,0-.214.214v.857a.215.215,0,0,0,.214.214H9.214a.215.215,0,0,0,.214-.214V4.936A.215.215,0,0,0,9.214,4.722Z" transform="translate(0 -0.008)"/></svg>