<svg xmlns="http://www.w3.org/2000/svg" xmlns:xlink="http://www.w3.org/1999/xlink" width="12" height="13.714" viewBox="0 0 12 13.714">
  <defs>
    <linearGradient id="linear-gradient" x1="0.5" y1="-0.027" x2="0.5" y2="0.973" gradientUnits="objectBoundingBox">
      <stop offset="0" stop-color="#fc7900"/>
      <stop offset="1" stop-color="#b318f1"/>
    </linearGradient>
  </defs>
  <path id="birthday-cake-solid" d="M12,10.286c-.751,0-.837-.857-2-.857s-1.254.857-2,.857-.843-.857-2-.857-1.265.857-2,.857c-.754,0-.836-.857-2-.857s-1.25.857-2,.857V8.143A1.286,1.286,0,0,1,1.286,6.857h.429V3H3.429V6.857H5.143V3H6.857V6.857H8.571V3h1.714V6.857h.429A1.286,1.286,0,0,1,12,8.143Zm0,3.429H0V11.143c1.161,0,1.253-.857,2-.857s.837.857,2,.857c1.148,0,1.265-.857,2-.857.754,0,.836.857,2,.857s1.253-.857,2-.857.837.857,2,.857ZM2.571,2.571a.855.855,0,0,1-.857-.857c0-.83.857-.616.857-1.714.321,0,.857.79.857,1.5S3.047,2.571,2.571,2.571ZM6,2.571a.855.855,0,0,1-.857-.857C5.143.884,6,1.1,6,0c.321,0,.857.79.857,1.5S6.475,2.571,6,2.571Zm3.429,0a.855.855,0,0,1-.857-.857c0-.83.857-.616.857-1.714.321,0,.857.79.857,1.5S9.9,2.571,9.429,2.571Z" fill="url(#linear-gradient)"/>
</svg>
