<svg xmlns="http://www.w3.org/2000/svg" width="15" height="15" viewBox="0 0 15 15">
  <path id="bullseye-arrow-regular" d="M9.225,10.744l.5,1.5-2.74,2.74a.726.726,0,0,0,1.026,1.026l2.74-2.74,1.5.5a.622.622,0,0,0,.636-.15L14.818,11.7a.622.622,0,0,0-.243-1.029l-1.683-.561L12.33,8.426A.622.622,0,0,0,11.3,8.183L9.376,10.108a.622.622,0,0,0-.15.636ZM7.5,12.355a3.129,3.129,0,0,1,.673.077l.446-.446-.312-.936c-.007-.022-.006-.044-.012-.067a4.664,4.664,0,1,0,3.722,3.72c-.022-.006-.045,0-.067-.011l-.936-.312-.446.446A3.143,3.143,0,1,1,7.5,12.355Zm7.15.88-1.074,1.074a1.568,1.568,0,0,1-.131.107A6.074,6.074,0,1,1,8.592,9.555a1.605,1.605,0,0,1,.1-.132L9.765,8.35a7.5,7.5,0,1,0,4.885,4.885Z" transform="translate(0 -8)" fill="#fff"/>
</svg>
