<svg xmlns="http://www.w3.org/2000/svg" xmlns:xlink="http://www.w3.org/1999/xlink" width="15" height="17.143" viewBox="0 0 15 17.143">
  <defs>
    <linearGradient id="linear-gradient" x1="0.5" x2="0.5" y2="1" gradientUnits="objectBoundingBox">
      <stop offset="0" stop-color="#fc7900"/>
      <stop offset="1" stop-color="#b318f1"/>
    </linearGradient>
  </defs>
  <path id="calculator-regular" d="M13.393,0H1.607A1.648,1.648,0,0,0,0,1.607V15.536a1.648,1.648,0,0,0,1.607,1.607H13.393A1.648,1.648,0,0,0,15,15.536V1.607A1.648,1.648,0,0,0,13.393,0Zm0,15.536H1.607V6.964H13.393Zm0-10.179H1.607V1.607H13.393Zm-9.75,5.357H4.929a.461.461,0,0,0,.429-.429V9a.461.461,0,0,0-.429-.429H3.643A.461.461,0,0,0,3.214,9v1.286a.461.461,0,0,0,.429.429Zm6.429,3.214h1.286a.461.461,0,0,0,.429-.429V9a.461.461,0,0,0-.429-.429H10.071A.461.461,0,0,0,9.643,9v4.5a.461.461,0,0,0,.429.429Zm-6.429,0H4.929a.461.461,0,0,0,.429-.429V12.214a.461.461,0,0,0-.429-.429H3.643a.461.461,0,0,0-.429.429V13.5a.461.461,0,0,0,.429.429Zm3.214-3.214H8.143a.461.461,0,0,0,.429-.429V9a.461.461,0,0,0-.429-.429H6.857A.461.461,0,0,0,6.429,9v1.286A.461.461,0,0,0,6.857,10.714Zm0,3.214H8.143a.461.461,0,0,0,.429-.429V12.214a.461.461,0,0,0-.429-.429H6.857a.461.461,0,0,0-.429.429V13.5A.461.461,0,0,0,6.857,13.929Z" fill="url(#linear-gradient)"/>
</svg>
