<svg xmlns="http://www.w3.org/2000/svg" width="17.5" height="20" viewBox="0 0 17.5 20">
  <path id="calendar-range-solid" d="M3.75,1.25a1.25,1.25,0,0,1,2.5,0V2.5h5V1.25a1.25,1.25,0,1,1,2.5,0V2.5h1.875A1.875,1.875,0,0,1,17.5,4.375V6.25H0V4.375A1.875,1.875,0,0,1,1.875,2.5H3.75ZM17.5,18.125A1.875,1.875,0,0,1,15.625,20H1.875A1.875,1.875,0,0,1,0,18.125V7.5H17.5ZM3.75,12.5A1.25,1.25,0,1,0,2.5,11.25,1.249,1.249,0,0,0,3.75,12.5Zm8.75,3.75A1.25,1.25,0,1,0,13.75,15,1.249,1.249,0,0,0,12.5,16.25ZM8.438,12.187h5.625a.937.937,0,1,0,0-1.875H8.438a.937.937,0,1,0,0,1.875Zm-5,3.125a.938.938,0,0,0,0,1.875H9.063a.938.938,0,0,0,0-1.875Z"/>
</svg>
