<svg width="9" height="5" viewBox="0 0 9 5" fill="none" xmlns="http://www.w3.org/2000/svg">
<g clip-path="url(#clip0)">
<path d="M8.22306 4.99998L0.594058 4.99998C0.476865 4.99986 0.362336 4.96501 0.264934 4.89984C0.167531 4.83468 0.0916211 4.74211 0.0467901 4.63383C0.00195911 4.52555 -0.00978382 4.40641 0.0130453 4.29147C0.0358744 4.17652 0.0922515 4.07091 0.175057 3.98798L3.98906 0.173982C4.10024 0.062965 4.25094 0.000610352 4.40806 0.000610352C4.56518 0.000610352 4.71587 0.062965 4.82706 0.173982L8.64206 3.98798C8.72486 4.07091 8.78124 4.17652 8.80407 4.29147C8.8269 4.40641 8.81516 4.52555 8.77033 4.63383C8.72549 4.74211 8.64958 4.83468 8.55218 4.89984C8.45478 4.96501 8.34025 4.99986 8.22306 4.99998Z" fill="white"/>
</g>
<defs>
<clipPath id="clip0">
<rect width="8.817" height="5" fill="white"/>
</clipPath>
</defs>
</svg>
