<svg xmlns="http://www.w3.org/2000/svg" width="15" height="12" viewBox="0 0 15 12"><defs><style>.a{fill:#2e3b4a;}</style></defs><path class="a" d="M8.565,1.5H2.191a2.248,2.248,0,0,0-.04,4.495L.091,9.562A1.124,1.124,0,0,0,.5,11.1l1.3.75a1.124,1.124,0,0,0,1.537-.412L6.477,6H8.565a.376.376,0,0,0,.375-.375V1.875A.376.376,0,0,0,8.565,1.5Zm-2.625,9a.749.749,0,0,0,.75-.75V7.131L4.745,10.5Zm8.812,0H10.628a.188.188,0,0,0-.187.187v1.125a.188.188,0,0,0,.187.187h4.125a.188.188,0,0,0,.187-.187V10.686A.188.188,0,0,0,14.752,10.5Zm0-2.25H10.628a.188.188,0,0,0-.187.187v.375A.188.188,0,0,0,10.628,9h4.125a.188.188,0,0,0,.187-.187V8.437A.188.188,0,0,0,14.752,8.249Zm0-6.749H10.628a.188.188,0,0,0-.187.187V2.812A.188.188,0,0,0,10.628,3h4.125a.188.188,0,0,0,.187-.187V1.687A.188.188,0,0,0,14.752,1.5Zm0-1.5H10.628a.188.188,0,0,0-.187.187V.562a.188.188,0,0,0,.187.187h4.125A.188.188,0,0,0,14.94.562V.187A.188.188,0,0,0,14.752,0Zm0,6.749H10.628a.188.188,0,0,0-.187.187v.375a.188.188,0,0,0,.187.187h4.125a.188.188,0,0,0,.187-.187V6.937A.188.188,0,0,0,14.752,6.749Zm0-3H10.628a.188.188,0,0,0-.187.187V5.062a.188.188,0,0,0,.187.187h4.125a.188.188,0,0,0,.187-.187V3.937A.188.188,0,0,0,14.752,3.75Z" transform="translate(0.061)"/></svg>