<svg xmlns="http://www.w3.org/2000/svg" width="12" height="12" viewBox="0 0 12 12"><defs><style>.a{fill:#636d76;}</style></defs><path class="a" d="M1.286,32h9.429A1.286,1.286,0,0,1,12,33.286v9.429A1.286,1.286,0,0,1,10.714,44H1.286A1.286,1.286,0,0,1,0,42.714V33.286A1.286,1.286,0,0,1,1.286,32Zm7.552,5.545-3.63-3.63a.643.643,0,0,0-.909,0l-.455.455a.643.643,0,0,0,0,.909L6.565,38,3.844,40.721a.643.643,0,0,0,0,.909l.455.455a.643.643,0,0,0,.909,0l3.63-3.63A.643.643,0,0,0,8.838,37.545Z" transform="translate(44) rotate(90)"/></svg>