<svg xmlns="http://www.w3.org/2000/svg" width="12" height="16" viewBox="0 0 12 16">
  <path id="clipboard-list-check-solid" d="M10.5,2H8A2,2,0,0,0,4,2H1.5A1.5,1.5,0,0,0,0,3.5v11A1.5,1.5,0,0,0,1.5,16h9A1.5,1.5,0,0,0,12,14.5V3.5A1.5,1.5,0,0,0,10.5,2ZM6,1.25A.75.75,0,1,1,5.25,2,.748.748,0,0,1,6,1.25ZM2.05,6.544l.4-.394a.168.168,0,0,1,.237,0l.644.65L4.816,5.325a.168.168,0,0,1,.238,0l.394.4a.168.168,0,0,1,0,.238L3.441,7.947a.168.168,0,0,1-.237,0L2.05,6.781A.168.168,0,0,1,2.05,6.544ZM3,12.25a.75.75,0,1,1,.75-.75A.748.748,0,0,1,3,12.25Zm7-.5a.251.251,0,0,1-.25.25H5.25A.251.251,0,0,1,5,11.75v-.5A.251.251,0,0,1,5.25,11h4.5a.251.251,0,0,1,.25.25Zm0-4A.279.279,0,0,1,9.7,8H4.816L5.825,7H9.7a.279.279,0,0,1,.3.25v.5Z" fill="#636d76"/>
</svg>
