<svg xmlns="http://www.w3.org/2000/svg" width="12" height="10.5" viewBox="0 0 12 10.5"><defs><style>.a{fill:#636d76;}</style></defs><path class="a" d="M25.455,20.921l-1.1-1.9a.352.352,0,0,0,.041-.158.334.334,0,0,0-.322-.328l-1.213-2.1a.342.342,0,0,0,.023-.105.333.333,0,0,0-.592-.211H19.965a.319.319,0,0,0-.5,0h-2.32a.333.333,0,0,0-.592.211.308.308,0,0,0,.023.105l-1.225,2.127a.327.327,0,0,0-.2.3c0,.012.006.023.006.035l-1.166,2.016a.333.333,0,0,0-.275.328.338.338,0,0,0,.264.328l1.207,2.086a.306.306,0,0,0-.018.105.327.327,0,0,0,.264.322l1.131,1.963a.379.379,0,0,0-.023.117.334.334,0,0,0,.334.334.324.324,0,0,0,.252-.117h2.338a.329.329,0,0,0,.5,0h2.344a.327.327,0,0,0,.24.105.334.334,0,0,0,.334-.334.243.243,0,0,0-.018-.094L24,24.085a.327.327,0,0,0,.264-.322.332.332,0,0,0-.018-.105l1.2-2.086a.334.334,0,0,0,.27-.328A.328.328,0,0,0,25.455,20.921Zm-8.684,4.588-.955-1.658h.955Zm0-1.834h-.955a.36.36,0,0,0-.029-.07l.984-1.037Zm0-1.365-1.1,1.166a.548.548,0,0,0-.088-.035l-1.219-2.109a.228.228,0,0,0,.012-.088.309.309,0,0,0-.006-.076L15.506,19.2a.369.369,0,0,0,.17-.059l1.1,1.137V22.31Zm0-2.238-1-1.037a.32.32,0,0,0,.047-.17c0-.006-.006-.018-.006-.023l.961-.346Zm0-1.764-.955.346L16.772,17Zm7.143.855.018.029-.773,3.656-1.395-1.471,2.145-2.221ZM19.8,23.417l.252.258h-.5Zm-.006-.246L17.967,21.3l1.74-1.846,1.816,1.916Zm.117.129,1.734-1.8,1.477,1.559-.129.615H20.275Zm2.484-6.68a.294.294,0,0,0,.076.029l1.266,2.2v.012a.32.32,0,0,0,.047.17l-2.133,2.215L19.83,19.333Zm-.2-.047L19.707,19.2l-1.248-1.318L22.1,16.573Zm-2.7,0a.311.311,0,0,0,.445,0h1.641L18.33,17.745l-1.113-1.172Zm-2.543.123.023-.047.059-.018,1.119,1.178-1.2.434Zm0,1.734,1.33-.48,1.307,1.383-1.74,1.84-.9-.92Zm0,2.027.8.826-.8.838Zm0,1.922.92-.973,1.811,1.881-.375.387H16.947Zm.152,3.545a.315.315,0,0,0-.129-.076l-.023-.035V23.851h2.186l-2,2.074Zm2.842,0a.325.325,0,0,0-.457,0H17.375l2-2.074h.838l2,2.074Zm2.625-.258-.094.164a.294.294,0,0,0-.076.029l-1.951-2.01h2.5l-.381,1.816Zm.281-.486.281-1.33h.48Zm.762-1.506h-.445l.1-.463.375.4A.217.217,0,0,0,23.609,23.675Zm1.447-2.35L23.844,23.44a.591.591,0,0,0-.088.041L23.3,23l.756-3.586,1,1.734a.445.445,0,0,0-.018.094A.4.4,0,0,0,25.057,21.325Z" transform="translate(-13.713 -15.999)"/></svg>