<svg xmlns="http://www.w3.org/2000/svg" width="25" height="19.444" viewBox="0 0 25 19.444"><defs><style>.a{fill:#95a1ac;}</style></defs><path class="a" d="M0,49.361a2.084,2.084,0,0,0,2.083,2.083H22.917A2.084,2.084,0,0,0,25,49.361V41.722H0ZM8.333,46.41a.522.522,0,0,1,.521-.521h5.9a.522.522,0,0,1,.521.521v1.736a.522.522,0,0,1-.521.521h-5.9a.522.522,0,0,1-.521-.521Zm-5.556,0a.522.522,0,0,1,.521-.521H6.424a.522.522,0,0,1,.521.521v1.736a.522.522,0,0,1-.521.521H3.3a.522.522,0,0,1-.521-.521ZM25,34.083v2.083H0V34.083A2.084,2.084,0,0,1,2.083,32H22.917A2.084,2.084,0,0,1,25,34.083Z" transform="translate(0 -32)"/></svg>