<svg xmlns="http://www.w3.org/2000/svg" width="15" height="15" viewBox="0 0 15 15"><defs><style>.a{fill:#fff;}</style></defs><path class="a" d="M9.739,103.5l5.049-5.049a.749.749,0,0,0,0-1.058l-1.173-1.173a.749.749,0,0,0-1.058,0l-5.049,5.05L2.458,96.217a.749.749,0,0,0-1.058,0L.227,97.39a.749.749,0,0,0,0,1.058L5.276,103.5.227,108.547a.749.749,0,0,0,0,1.058L1.4,110.779a.749.749,0,0,0,1.058,0l5.049-5.05,5.049,5.049a.749.749,0,0,0,1.058,0l1.173-1.173a.749.749,0,0,0,0-1.058Z" transform="translate(-0.007 -95.997)"/></svg>