<?xml version="1.0" encoding="utf-8"?>
<!-- Generator: Adobe Illustrator 16.0.3, SVG Export Plug-In . SVG Version: 6.00 Build 0)  -->
<!DOCTYPE svg PUBLIC "-//W3C//DTD SVG 1.1//EN" "http://www.w3.org/Graphics/SVG/1.1/DTD/svg11.dtd">
<svg version="1.1" id="Layer_1" xmlns="http://www.w3.org/2000/svg" xmlns:xlink="http://www.w3.org/1999/xlink" x="0px" y="0px"
	 width="19px" height="13.053px" viewBox="0 0 19 13.053" enable-background="new 0 0 19 13.053" xml:space="preserve">
<path id="Path_462" fill="#FFC107" d="M17.419,1.583C16.547,1.582,15.84,2.288,15.84,3.16c0,0.168,0.026,0.335,0.079,0.495
	l-1.284,0.816c-0.847,0.541-1.965,0.362-2.6-0.416l-1.26-1.54c0.201-0.271,0.31-0.598,0.31-0.934
	c-0.022-0.874-0.749-1.565-1.623-1.544c-0.844,0.021-1.522,0.7-1.544,1.544c0,0.336,0.108,0.663,0.309,0.934l-1.259,1.54
	C6.333,4.831,5.219,5.01,4.373,4.471L3.088,3.655C3.14,3.497,3.167,3.332,3.167,3.166c0-0.875-0.709-1.584-1.584-1.584
	s-1.584,0.709-1.584,1.584c0,0.821,0.628,1.507,1.446,1.578l0.936,5.614c0.033,0.189,0.197,0.329,0.39,0.331H16.23
	c0.193-0.002,0.357-0.142,0.391-0.331l0.936-5.614c0.871-0.082,1.511-0.854,1.429-1.726C18.909,2.209,18.231,1.588,17.419,1.583
	L17.419,1.583z"/>
<path id="Path_463" fill="#FFD54F" d="M9.496,12.841c-3.542,0-7.126-0.816-7.126-2.376S5.954,8.09,9.496,8.09
	c3.542,0,7.125,0.815,7.125,2.375S13.039,12.841,9.496,12.841z M9.496,8.881c-4.159,0-6.334,1.028-6.334,1.584
	s2.176,1.585,6.334,1.585c4.159,0,6.334-1.029,6.334-1.585S13.656,8.881,9.496,8.881z"/>
</svg>
