<svg xmlns="http://www.w3.org/2000/svg" width="20" height="26.667" viewBox="0 0 20 26.667"><defs><style>.a{fill:#43a047;}</style></defs><path class="a" d="M11.667,7.083V0H1.25A1.247,1.247,0,0,0,0,1.25V25.417a1.247,1.247,0,0,0,1.25,1.25h17.5A1.247,1.247,0,0,0,20,25.417V8.333H12.917A1.254,1.254,0,0,1,11.667,7.083Zm3.982,11.008-5.022,4.984a.888.888,0,0,1-1.252,0L4.353,18.092a.833.833,0,0,1,.586-1.425H8.333V12.5a.833.833,0,0,1,.833-.833h1.667a.833.833,0,0,1,.833.833v4.167h3.395a.834.834,0,0,1,.587,1.425ZM19.635,5.469l-5.1-5.1A1.249,1.249,0,0,0,13.651,0h-.318V6.667H20V6.349A1.246,1.246,0,0,0,19.635,5.469Z"/></svg>