<svg xmlns="http://www.w3.org/2000/svg" width="10" height="13.333" viewBox="0 0 10 13.333"><defs><style>.a{fill:#636d76;}</style></defs><path class="a" d="M5.833,3.542V0H.625A.624.624,0,0,0,0,.625V12.708a.624.624,0,0,0,.625.625h8.75A.624.624,0,0,0,10,12.708V4.167H6.458A.627.627,0,0,1,5.833,3.542Zm-2.5,3.75a.208.208,0,0,1-.208.208H2.917a.417.417,0,0,0-.417.417V8.75a.417.417,0,0,0,.417.417h.208a.208.208,0,0,1,.208.208v.417A.208.208,0,0,1,3.125,10H2.917a1.25,1.25,0,0,1-1.25-1.25V7.917a1.25,1.25,0,0,1,1.25-1.25h.208a.208.208,0,0,1,.208.208ZM4.486,10h-.32a.208.208,0,0,1-.208-.208V9.375a.208.208,0,0,1,.208-.208h.32c.155,0,.271-.091.271-.172a.138.138,0,0,0-.055-.1l-.57-.489a.967.967,0,0,1-.347-.733,1.06,1.06,0,0,1,1.1-1.006h.319a.208.208,0,0,1,.208.208v.417a.208.208,0,0,1-.208.208h-.32c-.155,0-.271.091-.271.172a.138.138,0,0,0,.055.1l.57.489a.967.967,0,0,1,.347.733A1.059,1.059,0,0,1,4.486,10Zm2.18-3.125v.542A2.839,2.839,0,0,0,7.083,8.9,2.838,2.838,0,0,0,7.5,7.417V6.875a.208.208,0,0,1,.208-.208h.417a.208.208,0,0,1,.208.208v.542a3.582,3.582,0,0,1-.945,2.45.417.417,0,0,1-.61,0,3.582,3.582,0,0,1-.945-2.45V6.875a.208.208,0,0,1,.208-.208h.417A.208.208,0,0,1,6.667,6.875ZM9.818,2.734,7.268.182A.625.625,0,0,0,6.826,0H6.667V3.333H10V3.174A.623.623,0,0,0,9.818,2.734Z"/></svg>