<svg xmlns="http://www.w3.org/2000/svg" width="15" height="12" viewBox="0 0 15 12">
  <path id="ship-solid" d="M11.639,8.734,13.28,7.093a.75.75,0,0,0-.3-1.244L12,5.534V2.25a.75.75,0,0,0-.75-.75H9.75V.563A.562.562,0,0,0,9.188,0H5.813A.562.562,0,0,0,5.25.563V1.5H3.75A.75.75,0,0,0,3,2.25V5.534l-.98.315a.75.75,0,0,0-.3,1.244L3.361,8.734A2.832,2.832,0,0,1,.563,10.5.562.562,0,0,0,0,11.063v.375A.562.562,0,0,0,.563,12,4.323,4.323,0,0,0,3.92,10.608,2.253,2.253,0,0,0,6,12H9a2.253,2.253,0,0,0,2.08-1.392A4.323,4.323,0,0,0,14.438,12,.562.562,0,0,0,15,11.438v-.375a.562.562,0,0,0-.562-.562A2.832,2.832,0,0,1,11.639,8.734ZM4.5,3h6V5.052L7.729,4.161a.75.75,0,0,0-.459,0L4.5,5.052Z" fill="#636d76"/>
</svg>
