<svg xmlns="http://www.w3.org/2000/svg" width="15" height="13.333" viewBox="0 0 15 13.333">
  <path id="exclamation-triangle-solid_1_" data-name="exclamation-triangle-solid (1)" d="M14.831,11.459a1.251,1.251,0,0,1-1.083,1.875H1.251A1.251,1.251,0,0,1,.168,11.459L6.417.625a1.251,1.251,0,0,1,2.165,0l6.248,10.834ZM7.5,9.219a1.2,1.2,0,1,0,1.2,1.2A1.2,1.2,0,0,0,7.5,9.219ZM6.362,4.913l.193,3.542a.312.312,0,0,0,.312.3H8.132a.312.312,0,0,0,.312-.3l.193-3.542a.313.313,0,0,0-.312-.33H6.674a.312.312,0,0,0-.312.33Z" transform="translate(0)" fill="#e34850"/>
</svg>
