<svg xmlns="http://www.w3.org/2000/svg" width="15" height="20" viewBox="0 0 15 20">
  <path id="file-invoice-dollar-solid" d="M15,5H10V0ZM10,6.25h5V18.125A1.875,1.875,0,0,1,13.125,20H1.875A1.875,1.875,0,0,1,0,18.125V1.875A1.875,1.875,0,0,1,1.875,0H8.75V5A1.248,1.248,0,0,0,10,6.25ZM2.5,3.438a.315.315,0,0,0,.313.313H5.938a.314.314,0,0,0,.313-.312V2.813A.314.314,0,0,0,5.938,2.5H2.813a.315.315,0,0,0-.312.313ZM2.813,6.25H5.938a.313.313,0,0,0,.313-.312V5.313A.313.313,0,0,0,5.938,5H2.813a.314.314,0,0,0-.312.313v.625A.314.314,0,0,0,2.813,6.25Zm4.9,6.125-.25-.062c-.891-.273-.871-.434-.84-.574.054-.305.648-.38,1.182-.3a4.038,4.038,0,0,1,.687.189.782.782,0,0,0,.512-1.477,6.373,6.373,0,0,0-.725-.206V9.688a.781.781,0,1,0-1.562,0v.234a1.937,1.937,0,0,0-1.634,1.551c-.289,1.673,1.3,2.139,1.973,2.338l.227.066c1.144.327,1.125.437,1.091.636-.054.305-.648.381-1.184.3a5.482,5.482,0,0,1-.924-.275l-.175-.063a.782.782,0,0,0-.52,1.475L5.741,16a8.142,8.142,0,0,0,.979.293v.264a.781.781,0,0,0,1.563,0v-.244a1.929,1.929,0,0,0,1.634-1.54C10.207,13.086,8.586,12.621,7.715,12.375Z"/>
</svg>
