<svg xmlns="http://www.w3.org/2000/svg" width="307.715" height="307.719" viewBox="0 0 307.715 307.719"><defs><style>.a{fill:#dfe8f3;}</style></defs><path class="a" d="M153.935,147.825a14.424,14.424,0,0,0-14.424,14.424,439.479,439.479,0,0,1-16.648,127.144c-1.641,5.842,1.292,18.325,13.9,18.325a14.43,14.43,0,0,0,13.877-10.53A465.164,465.164,0,0,0,168.354,162.25,14.415,14.415,0,0,0,153.935,147.825ZM153.418,98.7c-36.818-.042-62.511,28.29-62,60.756a394.316,394.316,0,0,1-8.036,85.674,14.423,14.423,0,1,0,28.248,5.842,423.134,423.134,0,0,0,8.637-91.967c-.246-15.6,11.972-31.547,32.725-31.457,18.818.282,34.348,15.23,34.63,33.338a483.185,483.185,0,0,1-6.377,86.275,14.419,14.419,0,0,0,11.876,16.576c12,2,16.113-9.075,16.576-11.882a512.662,512.662,0,0,0,6.773-91.42c-.529-33.537-28.813-61.231-63.052-61.736ZM86.892,86.816A14.438,14.438,0,0,0,66.6,88.908a104.24,104.24,0,0,0-23.289,67.313,349.037,349.037,0,0,1-5.475,67.344,14.435,14.435,0,0,0,11.636,16.762c12.086,2.1,16.269-8.9,16.762-11.636a378.025,378.025,0,0,0,5.926-72.921A74.277,74.277,0,0,1,88.99,107.107a14.433,14.433,0,0,0-2.1-20.29Zm65.793-37.461a107.429,107.429,0,0,0-27.514,2.987,14.428,14.428,0,0,0,6.647,28.079A86.26,86.26,0,0,1,152.252,78.2c45.334.679,82.778,36.962,83.469,80.884a529.539,529.539,0,0,1-3.354,68.293,14.43,14.43,0,0,0,12.687,15.975c10.049,1.172,15.332-7.14,15.975-12.687a558.387,558.387,0,0,0,3.54-72.031c-.937-59.35-51.128-108.381-111.885-109.282Zm151.5,72.993a14.423,14.423,0,1,0-28.169,6.214c2.831,12.868,2.951,22.484,2.825,37.022a14.421,14.421,0,0,0,14.3,14.545h.12a14.422,14.422,0,0,0,14.424-14.3c.108-13.33.24-26.511-3.5-43.477ZM280.07,67.824A159.874,159.874,0,0,0,151.946.012C110-.493,71.206,14.971,42.351,43.838A143.337,143.337,0,0,0,.088,148.24l-.072,12.9a14.415,14.415,0,0,0,13.992,14.839c.138.012.288.012.433.012a14.43,14.43,0,0,0,14.406-14l.1-14.208A114.658,114.658,0,0,1,62.768,64.242c23.3-23.319,54.9-35.862,88.758-35.376A130.937,130.937,0,0,1,256.474,84.394a14.416,14.416,0,1,0,23.6-16.57Z" transform="translate(-0.009 0)"/></svg>