<svg xmlns="http://www.w3.org/2000/svg" width="15.1" height="15" viewBox="0 0 15.1 15">
  <defs>
    <style>
      .cls-1 {
        fill: #eb675e;
      }
    </style>
  </defs>
  <g id="Group_3111" data-name="Group 3111" transform="translate(-1220.925 -1185.899)">
    <g id="Group_1" data-name="Group 1" transform="translate(1220.925 1185.899)">
      <path id="Path_1" data-name="Path 1" class="cls-1" d="M7.511,7.207a.7.7,0,0,0-.7.7A21.428,21.428,0,0,1,6,14.108a.7.7,0,1,0,1.354.375,22.681,22.681,0,0,0,.863-6.578.7.7,0,0,0-.7-.7Zm-.025-2.4A2.93,2.93,0,0,0,4.464,7.774a19.227,19.227,0,0,1-.391,4.176.7.7,0,0,0,1.375.285,20.631,20.631,0,0,0,.424-4.485A1.526,1.526,0,0,1,7.464,6.218,1.7,1.7,0,0,1,9.151,7.843a23.56,23.56,0,0,1-.311,4.205.7.7,0,1,0,1.387.229,25,25,0,0,0,.33-4.456A3.112,3.112,0,0,0,7.486,4.812ZM4.246,4.233a.7.7,0,0,0-.989.1,5.082,5.082,0,0,0-1.136,3.28A17.019,17.019,0,0,1,1.854,10.9a.7.7,0,0,0,1.383.25,18.433,18.433,0,0,0,.289-3.555,3.626,3.626,0,0,1,.82-2.375A.7.7,0,0,0,4.246,4.233Zm3.2-1.826a5.234,5.234,0,0,0-1.341.145.706.706,0,0,0,.324,1.375,4.2,4.2,0,0,1,1-.108,4.1,4.1,0,0,1,4.063,3.931,25.821,25.821,0,0,1-.164,3.329.7.7,0,1,0,1.4.171A27.228,27.228,0,0,0,12.9,7.739,5.517,5.517,0,0,0,7.449,2.407Zm7.383,3.559a.7.7,0,1,0-1.375.3A7.308,7.308,0,0,1,13.6,8.073a.7.7,0,0,0,.7.709h0a.7.7,0,0,0,.7-.7,8.709,8.709,0,0,0-.171-2.125ZM13.658,3.308A7.791,7.791,0,0,0,7.413,0a7.336,7.336,0,0,0-5.34,2.138A6.989,6.989,0,0,0,.012,7.227v.625a.7.7,0,0,0,.682.724H.712a.7.7,0,0,0,.7-.683V7.2A5.59,5.59,0,0,1,3.068,3.132,5.935,5.935,0,0,1,7.393,1.407a6.381,6.381,0,0,1,5.115,2.706.7.7,0,1,0,1.15-.808Z" transform="translate(-0.011 0.001)"/>
      <path id="Path_2" data-name="Path 2" class="cls-1" d="M13.934,12.515.149,1.323A.407.407,0,0,1,.083.77L.543.149A.363.363,0,0,1,1.069.08L14.855,11.27a.407.407,0,0,1,.066.553l-.46.622a.363.363,0,0,1-.526.07Z" transform="translate(0.1 1.097)"/>
    </g>
  </g>
</svg>
