<svg xmlns="http://www.w3.org/2000/svg" width="15.01" height="15.03" viewBox="0 0 15.01 15.03">
  <defs>
    <style>
      .cls-1 {
        fill: #98aeca;
      }
    </style>
  </defs>
  <path id="fingerprint" class="cls-1" d="M7.515,7.209a.7.7,0,0,0-.7.7A21.443,21.443,0,0,1,6,14.115a.7.7,0,1,0,1.354.38,22.7,22.7,0,0,0,.864-6.582A.7.7,0,0,0,7.515,7.209Zm-.025-2.4A2.932,2.932,0,0,0,4.467,7.777a19.24,19.24,0,0,1-.392,4.179.7.7,0,1,0,1.378.285,20.646,20.646,0,0,0,.42-4.486,1.527,1.527,0,0,1,1.6-1.535A1.7,1.7,0,0,1,9.157,7.847a23.576,23.576,0,0,1-.311,4.208.7.7,0,1,0,1.388.229,25.015,25.015,0,0,0,.33-4.459A3.114,3.114,0,0,0,7.489,4.813Zm-3.241-.58a.7.7,0,0,0-.989.1A5.086,5.086,0,0,0,2.124,7.619,17.031,17.031,0,0,1,1.857,10.9a.7.7,0,1,0,1.385.25A18.445,18.445,0,0,0,3.53,7.6a3.624,3.624,0,0,1,.818-2.375.7.7,0,0,0-.1-.989Zm3.2-1.827a5.237,5.237,0,0,0-1.341.146.7.7,0,0,0,.324,1.369,4.2,4.2,0,0,1,1-.108A4.1,4.1,0,0,1,11.5,7.759a25.838,25.838,0,0,1-.163,3.331.7.7,0,1,0,1.4.16,27.246,27.246,0,0,0,.173-3.513A5.522,5.522,0,0,0,7.454,2.406Zm7.388,3.56a.7.7,0,1,0-1.374.3A7.313,7.313,0,0,1,13.6,8.073a.7.7,0,0,0,.7.71h.006a.7.7,0,0,0,.7-.7,8.714,8.714,0,0,0-.171-2.121Zm-1.176-2.66A7.8,7.8,0,0,0,7.418,0,7.339,7.339,0,0,0,2.076,2.137,6.993,6.993,0,0,0,.013,7.23l0,.629a.7.7,0,0,0,.682.725H.713a.7.7,0,0,0,.7-.683l0-.693A5.593,5.593,0,0,1,3.069,3.132,5.941,5.941,0,0,1,7.4,1.407a6.384,6.384,0,0,1,5.117,2.708.7.7,0,1,0,1.151-.808Z" transform="translate(-0.009 0.003)"/>
</svg>
