<?xml version="1.0" encoding="utf-8"?>
<!-- Generator: Adobe Illustrator 19.0.0, SVG Export Plug-In . SVG Version: 6.00 Build 0)  -->
<svg version="1.1" id="Layer_1" xmlns="http://www.w3.org/2000/svg" xmlns:xlink="http://www.w3.org/1999/xlink" x="0px" y="0px"
	 viewBox="0 0 349.588 347.912" enable-background="new 0 0 349.588 347.912" xml:space="preserve">
<g id="XMLID_151_">
	<defs>
		<circle id="XMLID_150_" cx="174.84" cy="175.171" r="165.248"/>
	</defs>
	<clipPath id="XMLID_23_">
		<use xlink:href="#XMLID_150_"  overflow="visible"/>
	</clipPath>
	<g id="XMLID_69_" clip-path="url(#XMLID_23_)">
		<path id="XMLID_149_" fill="#FFFFFF" d="M468.5,337.133c0,5.929-4.851,10.779-10.778,10.779H-32.721
			c-5.929-0.001-10.779-4.851-10.779-10.779V20.701c0-5.928,4.85-10.779,10.779-10.779h490.443c5.928,0,10.778,4.851,10.778,10.779
			V337.133z"/>
		<g id="XMLID_145_">
			<path id="XMLID_148_" fill="#E02424" d="M457.722,9.923h-291.85v32.508H468.5v-21.73C468.5,14.773,463.648,9.923,457.722,9.923z"
				/>
			<path id="XMLID_147_" fill="#E02424" d="M165.871,132.115v20.283c0,6.724-5.467,12.225-12.15,12.225H468.5v-32.507H165.871
				V132.115z"/>
			<rect id="XMLID_146_" x="-43.5" y="193.211" fill="#E02424" width="512" height="32.507"/>
		</g>
		<rect id="XMLID_144_" x="-43.5" y="193.211" opacity="0.1" enable-background="new    " width="32.876" height="32.507"/>
		<g id="XMLID_140_">
			<rect id="XMLID_143_" x="-43.5" y="254.306" fill="#E02424" width="512" height="32.507"/>
			<path id="XMLID_142_" fill="#E02424" d="M468.5,337.133v-21.729h-512v21.729c0,5.929,4.85,10.779,10.779,10.779h490.443
				C463.648,347.911,468.5,343.061,468.5,337.133z"/>
			<rect id="XMLID_141_" x="165.866" y="71.021" fill="#E02424" width="302.623" height="32.507"/>
		</g>
		<path id="XMLID_139_" fill="#0853A4" d="M-32.721,9.923c-5.929,0-10.779,4.85-10.779,10.778v143.921h208.716
			c6.683,0,12.15-5.501,12.15-12.225V9.923H-32.721z"/>
		<path id="XMLID_138_" opacity="0.1" enable-background="new    " d="M1.232,9.923h-33.953c-5.929,0-10.779,4.85-10.779,10.778
			v143.921h33.954V20.701C-9.546,14.773-4.696,9.923,1.232,9.923z"/>
		<g id="XMLID_87_">
			<path id="XMLID_137_" fill="#FFFFFF" d="M4.215,53.003c-0.243,0-0.491-0.057-0.718-0.181l-2.938-1.583l-2.939,1.583
				c-0.226,0.123-0.472,0.181-0.717,0.181c-0.32,0-0.639-0.1-0.909-0.301c-0.474-0.353-0.713-0.952-0.612-1.544l0.56-3.355
				l-2.377-2.373c-0.42-0.421-0.572-1.049-0.39-1.621c0.181-0.573,0.664-0.99,1.247-1.076l3.284-0.489l1.471-3.051
				c0.26-0.54,0.796-0.882,1.383-0.882c0.587,0,1.124,0.342,1.383,0.882l1.47,3.051l3.285,0.489
				c0.582,0.087,1.064,0.503,1.246,1.076c0.182,0.572,0.03,1.2-0.392,1.621l-2.376,2.373l0.56,3.355
				c0.101,0.592-0.138,1.191-0.611,1.544C4.856,52.902,4.536,53.003,4.215,53.003z"/>
			<path id="XMLID_136_" fill="#FFFFFF" d="M4.215,80.422c-0.243,0-0.491-0.056-0.718-0.181l-2.938-1.584l-2.939,1.584
				c-0.226,0.124-0.472,0.181-0.717,0.181c-0.32,0-0.639-0.1-0.909-0.301c-0.474-0.353-0.713-0.952-0.612-1.546l0.56-3.353
				l-2.377-2.374c-0.42-0.418-0.572-1.049-0.39-1.62c0.181-0.572,0.664-0.988,1.247-1.077l3.284-0.488l1.471-3.051
				c0.26-0.539,0.796-0.88,1.383-0.88c0.587,0,1.124,0.341,1.383,0.88l1.47,3.051l3.285,0.488c0.582,0.089,1.064,0.505,1.246,1.077
				c0.182,0.571,0.03,1.202-0.392,1.62l-2.376,2.374l0.56,3.353c0.101,0.595-0.138,1.192-0.611,1.546
				C4.856,80.323,4.536,80.422,4.215,80.422z"/>
			<path id="XMLID_135_" fill="#FFFFFF" d="M4.215,107.843c-0.243,0-0.491-0.059-0.718-0.181l-2.938-1.582l-2.939,1.582
				c-0.226,0.123-0.472,0.181-0.717,0.181c-0.32,0-0.639-0.101-0.909-0.301c-0.474-0.354-0.713-0.953-0.612-1.544l0.56-3.354
				l-2.377-2.372c-0.42-0.422-0.572-1.052-0.39-1.623c0.181-0.572,0.664-0.99,1.247-1.077l3.284-0.488l1.471-3.051
				c0.26-0.538,0.796-0.879,1.383-0.879c0.587,0,1.124,0.341,1.383,0.879l1.47,3.051l3.285,0.488
				c0.582,0.088,1.064,0.506,1.246,1.077c0.182,0.571,0.03,1.201-0.392,1.623l-2.376,2.372l0.56,3.354
				c0.101,0.591-0.138,1.19-0.611,1.544C4.856,107.742,4.536,107.843,4.215,107.843z"/>
			<path id="XMLID_134_" fill="#FFFFFF" d="M4.215,135.263c-0.243,0-0.491-0.059-0.718-0.181l-2.938-1.584l-2.939,1.584
				c-0.226,0.123-0.472,0.181-0.717,0.181c-0.32,0-0.639-0.1-0.909-0.302c-0.474-0.353-0.713-0.953-0.612-1.545l0.56-3.352
				l-2.377-2.374c-0.42-0.42-0.572-1.05-0.39-1.622c0.181-0.572,0.664-0.99,1.247-1.077l3.284-0.488l1.471-3.051
				c0.26-0.538,0.796-0.88,1.383-0.88c0.587,0,1.124,0.343,1.383,0.88l1.47,3.051l3.285,0.488c0.582,0.088,1.064,0.506,1.246,1.077
				c0.182,0.572,0.03,1.202-0.392,1.622l-2.376,2.374l0.56,3.352c0.101,0.592-0.138,1.192-0.611,1.545
				C4.856,135.163,4.536,135.263,4.215,135.263z"/>
			<path id="XMLID_133_" fill="#FFFFFF" d="M-13.153,39.293c-0.243,0-0.491-0.057-0.718-0.182l-2.939-1.582l-2.938,1.582
				c-0.227,0.124-0.473,0.182-0.719,0.182c-0.32,0-0.638-0.101-0.908-0.302c-0.475-0.352-0.714-0.953-0.612-1.545l0.559-3.354
				l-2.376-2.373c-0.42-0.421-0.572-1.05-0.39-1.622c0.181-0.573,0.662-0.99,1.247-1.077l3.284-0.488l1.47-3.052
				c0.259-0.539,0.795-0.88,1.383-0.88s1.124,0.342,1.382,0.88l1.471,3.052l3.285,0.488c0.582,0.088,1.065,0.504,1.246,1.077
				c0.182,0.572,0.031,1.201-0.39,1.622l-2.377,2.373l0.561,3.354c0.1,0.592-0.138,1.192-0.613,1.545
				C-12.514,39.191-12.832,39.293-13.153,39.293z"/>
			<path id="XMLID_132_" fill="#FFFFFF" d="M-13.153,66.713c-0.243,0-0.491-0.06-0.718-0.181l-2.939-1.583l-2.938,1.583
				c-0.227,0.122-0.473,0.181-0.719,0.181c-0.32,0-0.638-0.102-0.908-0.301c-0.475-0.355-0.714-0.953-0.612-1.545l0.559-3.354
				l-2.376-2.374c-0.42-0.42-0.572-1.049-0.39-1.622c0.181-0.572,0.662-0.988,1.247-1.075l3.284-0.489l1.47-3.051
				c0.259-0.539,0.795-0.881,1.383-0.881s1.124,0.343,1.382,0.881l1.471,3.051l3.285,0.489c0.582,0.087,1.065,0.504,1.246,1.075
				c0.182,0.573,0.031,1.202-0.39,1.622l-2.377,2.374l0.561,3.354c0.1,0.592-0.138,1.19-0.613,1.545
				C-12.514,66.611-12.832,66.713-13.153,66.713z"/>
			<path id="XMLID_131_" fill="#FFFFFF" d="M-13.153,94.133c-0.243,0-0.491-0.059-0.718-0.18l-2.939-1.584l-2.938,1.584
				c-0.227,0.121-0.473,0.18-0.719,0.18c-0.32,0-0.638-0.102-0.908-0.301c-0.475-0.353-0.714-0.953-0.612-1.546l0.559-3.353
				l-2.376-2.374c-0.42-0.42-0.572-1.049-0.39-1.621c0.181-0.573,0.662-0.99,1.247-1.076l3.284-0.488l1.47-3.053
				c0.259-0.538,0.795-0.879,1.383-0.879s1.124,0.341,1.382,0.879l1.471,3.053l3.285,0.488c0.582,0.088,1.065,0.504,1.246,1.076
				c0.182,0.572,0.031,1.201-0.39,1.621l-2.377,2.374l0.561,3.353c0.1,0.593-0.138,1.193-0.613,1.546
				C-12.514,94.031-12.832,94.133-13.153,94.133z"/>
			<path id="XMLID_130_" fill="#FFFFFF" d="M-13.153,121.553c-0.243,0-0.491-0.057-0.718-0.181l-2.939-1.583l-2.938,1.583
				c-0.227,0.123-0.473,0.181-0.719,0.181c-0.32,0-0.638-0.1-0.908-0.301c-0.475-0.353-0.714-0.954-0.612-1.545l0.559-3.354
				l-2.376-2.373c-0.42-0.419-0.572-1.049-0.39-1.623c0.181-0.572,0.662-0.988,1.247-1.075l3.284-0.487l1.47-3.052
				c0.259-0.539,0.795-0.882,1.383-0.882s1.124,0.343,1.382,0.882l1.471,3.052l3.285,0.487c0.582,0.088,1.065,0.504,1.246,1.075
				c0.182,0.573,0.031,1.203-0.39,1.623l-2.377,2.373l0.561,3.354c0.1,0.591-0.138,1.191-0.613,1.545
				C-12.514,121.453-12.832,121.553-13.153,121.553z"/>
			<path id="XMLID_129_" fill="#FFFFFF" d="M-13.153,148.972c-0.243,0-0.491-0.059-0.718-0.181l-2.939-1.582l-2.938,1.582
				c-0.227,0.122-0.473,0.181-0.719,0.181c-0.32,0-0.638-0.1-0.908-0.301c-0.475-0.352-0.714-0.953-0.612-1.545l0.559-3.353
				l-2.376-2.372c-0.42-0.421-0.572-1.051-0.39-1.623c0.181-0.573,0.662-0.99,1.247-1.077l3.284-0.488l1.47-3.05
				c0.259-0.539,0.795-0.881,1.383-0.881s1.124,0.342,1.382,0.881l1.471,3.05l3.285,0.488c0.582,0.087,1.065,0.504,1.246,1.077
				c0.182,0.572,0.031,1.202-0.39,1.623l-2.377,2.372l0.561,3.353c0.1,0.592-0.138,1.193-0.613,1.545
				C-12.514,148.873-12.832,148.972-13.153,148.972z"/>
			<path id="XMLID_128_" fill="#FFFFFF" d="M37.932,53.003c-0.245,0-0.492-0.057-0.719-0.181l-2.938-1.583l-2.938,1.583
				c-0.226,0.123-0.473,0.181-0.718,0.181c-0.321,0-0.638-0.1-0.909-0.301c-0.474-0.353-0.714-0.952-0.612-1.544l0.56-3.355
				l-2.377-2.373c-0.421-0.421-0.573-1.049-0.391-1.621c0.182-0.573,0.665-0.99,1.247-1.076l3.286-0.489l1.469-3.051
				c0.259-0.54,0.796-0.882,1.383-0.882c0.587,0,1.124,0.342,1.383,0.882l1.47,3.051l3.285,0.489
				c0.582,0.087,1.065,0.503,1.246,1.076c0.183,0.572,0.03,1.2-0.391,1.621l-2.377,2.373l0.561,3.355
				c0.1,0.592-0.139,1.191-0.613,1.544C38.57,52.902,38.252,53.003,37.932,53.003z"/>
			<path id="XMLID_127_" fill="#FFFFFF" d="M37.932,80.422c-0.245,0-0.492-0.056-0.719-0.181l-2.938-1.584l-2.938,1.584
				c-0.226,0.124-0.473,0.181-0.718,0.181c-0.321,0-0.638-0.1-0.909-0.301c-0.474-0.353-0.714-0.952-0.612-1.546l0.56-3.353
				l-2.377-2.374c-0.421-0.418-0.573-1.049-0.391-1.62c0.182-0.572,0.665-0.988,1.247-1.077l3.286-0.488l1.469-3.051
				c0.259-0.539,0.796-0.88,1.383-0.88c0.587,0,1.124,0.341,1.383,0.88l1.47,3.051l3.285,0.488c0.582,0.089,1.065,0.505,1.246,1.077
				c0.183,0.571,0.03,1.202-0.391,1.62l-2.377,2.374l0.561,3.353c0.1,0.595-0.139,1.192-0.613,1.546
				C38.57,80.323,38.252,80.422,37.932,80.422z"/>
			<path id="XMLID_126_" fill="#FFFFFF" d="M37.932,107.843c-0.245,0-0.492-0.059-0.719-0.181l-2.938-1.582l-2.938,1.582
				c-0.226,0.123-0.473,0.181-0.718,0.181c-0.321,0-0.638-0.101-0.909-0.301c-0.474-0.354-0.714-0.953-0.612-1.544l0.56-3.354
				l-2.377-2.372c-0.421-0.422-0.573-1.052-0.391-1.623c0.182-0.572,0.665-0.99,1.247-1.077l3.286-0.488l1.469-3.051
				c0.259-0.538,0.796-0.879,1.383-0.879c0.587,0,1.124,0.341,1.383,0.879l1.47,3.051l3.285,0.488
				c0.582,0.088,1.065,0.506,1.246,1.077c0.183,0.571,0.03,1.201-0.391,1.623l-2.377,2.372l0.561,3.354
				c0.1,0.591-0.139,1.19-0.613,1.544C38.57,107.742,38.252,107.843,37.932,107.843z"/>
			<path id="XMLID_125_" fill="#FFFFFF" d="M37.932,135.263c-0.245,0-0.492-0.059-0.719-0.181l-2.938-1.584l-2.938,1.584
				c-0.226,0.123-0.473,0.181-0.718,0.181c-0.321,0-0.638-0.1-0.909-0.302c-0.474-0.353-0.714-0.953-0.612-1.545l0.56-3.352
				l-2.377-2.374c-0.421-0.42-0.573-1.05-0.391-1.622c0.182-0.572,0.665-0.99,1.247-1.077l3.286-0.488l1.469-3.051
				c0.259-0.538,0.796-0.88,1.383-0.88c0.587,0,1.124,0.343,1.383,0.88l1.47,3.051l3.285,0.488c0.582,0.088,1.065,0.506,1.246,1.077
				c0.183,0.572,0.03,1.202-0.391,1.622l-2.377,2.374l0.561,3.352c0.1,0.592-0.139,1.192-0.613,1.545
				C38.57,135.163,38.252,135.263,37.932,135.263z"/>
			<path id="XMLID_124_" fill="#FFFFFF" d="M20.563,39.293c-0.245,0-0.491-0.057-0.718-0.182l-2.939-1.582l-2.938,1.582
				c-0.227,0.124-0.472,0.182-0.718,0.182c-0.321,0-0.638-0.101-0.908-0.302c-0.474-0.352-0.714-0.953-0.613-1.545l0.56-3.354
				l-2.376-2.373c-0.421-0.421-0.572-1.05-0.391-1.622c0.181-0.573,0.664-0.99,1.247-1.077l3.285-0.488l1.469-3.052
				c0.26-0.539,0.796-0.88,1.384-0.88c0.587,0,1.124,0.342,1.383,0.88l1.47,3.052l3.285,0.488c0.583,0.088,1.065,0.504,1.246,1.077
				c0.182,0.572,0.03,1.201-0.392,1.622l-2.376,2.373l0.562,3.354c0.1,0.592-0.139,1.192-0.614,1.545
				C21.201,39.191,20.882,39.293,20.563,39.293z"/>
			<path id="XMLID_123_" fill="#FFFFFF" d="M20.563,66.713c-0.245,0-0.491-0.06-0.718-0.181l-2.939-1.583l-2.938,1.583
				c-0.227,0.122-0.472,0.181-0.718,0.181c-0.321,0-0.638-0.102-0.908-0.301c-0.474-0.355-0.714-0.953-0.613-1.545l0.56-3.354
				l-2.376-2.374c-0.421-0.42-0.572-1.049-0.391-1.622c0.181-0.572,0.664-0.988,1.247-1.075l3.285-0.489l1.469-3.051
				c0.26-0.539,0.796-0.881,1.384-0.881c0.587,0,1.124,0.343,1.383,0.881l1.47,3.051l3.285,0.489
				c0.583,0.087,1.065,0.504,1.246,1.075c0.182,0.573,0.03,1.202-0.392,1.622l-2.376,2.374l0.562,3.354
				c0.1,0.592-0.139,1.19-0.614,1.545C21.201,66.611,20.882,66.713,20.563,66.713z"/>
			<path id="XMLID_122_" fill="#FFFFFF" d="M20.563,94.133c-0.245,0-0.491-0.059-0.718-0.18l-2.939-1.584l-2.938,1.584
				c-0.227,0.121-0.472,0.18-0.718,0.18c-0.321,0-0.638-0.102-0.908-0.301c-0.474-0.353-0.714-0.953-0.613-1.546l0.56-3.353
				l-2.376-2.374c-0.421-0.42-0.572-1.049-0.391-1.621c0.181-0.573,0.664-0.99,1.247-1.076l3.285-0.488l1.469-3.053
				c0.26-0.538,0.796-0.879,1.384-0.879c0.587,0,1.124,0.341,1.383,0.879l1.47,3.053l3.285,0.488
				c0.583,0.088,1.065,0.504,1.246,1.076c0.182,0.572,0.03,1.201-0.392,1.621l-2.376,2.374l0.562,3.353
				c0.1,0.593-0.139,1.193-0.614,1.546C21.201,94.031,20.882,94.133,20.563,94.133z"/>
			<path id="XMLID_121_" fill="#FFFFFF" d="M20.563,121.553c-0.245,0-0.491-0.057-0.718-0.181l-2.939-1.583l-2.938,1.583
				c-0.227,0.123-0.472,0.181-0.718,0.181c-0.321,0-0.638-0.1-0.908-0.301c-0.474-0.353-0.714-0.954-0.613-1.545l0.56-3.354
				l-2.376-2.373c-0.421-0.419-0.572-1.049-0.391-1.623c0.181-0.572,0.664-0.988,1.247-1.075l3.285-0.487l1.469-3.052
				c0.26-0.539,0.796-0.882,1.384-0.882c0.587,0,1.124,0.343,1.383,0.882l1.47,3.052l3.285,0.487
				c0.583,0.088,1.065,0.504,1.246,1.075c0.182,0.573,0.03,1.203-0.392,1.623l-2.376,2.373l0.562,3.354
				c0.1,0.591-0.139,1.191-0.614,1.545C21.201,121.453,20.882,121.553,20.563,121.553z"/>
			<path id="XMLID_120_" fill="#FFFFFF" d="M20.563,148.972c-0.245,0-0.491-0.059-0.718-0.181l-2.939-1.582l-2.938,1.582
				c-0.227,0.122-0.472,0.181-0.718,0.181c-0.321,0-0.638-0.1-0.908-0.301c-0.474-0.352-0.714-0.953-0.613-1.545l0.56-3.353
				l-2.376-2.372c-0.421-0.421-0.572-1.051-0.391-1.623c0.181-0.573,0.664-0.99,1.247-1.077l3.285-0.488l1.469-3.05
				c0.26-0.539,0.796-0.881,1.384-0.881c0.587,0,1.124,0.342,1.383,0.881l1.47,3.05l3.285,0.488
				c0.583,0.087,1.065,0.504,1.246,1.077c0.182,0.572,0.03,1.202-0.392,1.623l-2.376,2.372l0.562,3.353
				c0.1,0.592-0.139,1.193-0.614,1.545C21.201,148.873,20.882,148.972,20.563,148.972z"/>
			<path id="XMLID_119_" fill="#FFFFFF" d="M71.646,53.003c-0.243,0-0.491-0.057-0.718-0.181l-2.939-1.583l-2.938,1.583
				c-0.227,0.123-0.472,0.181-0.718,0.181c-0.32,0-0.638-0.1-0.908-0.301c-0.474-0.353-0.713-0.952-0.612-1.544l0.559-3.355
				l-2.376-2.373c-0.421-0.421-0.572-1.049-0.39-1.621c0.182-0.573,0.662-0.99,1.247-1.076l3.285-0.489l1.47-3.051
				c0.258-0.54,0.795-0.882,1.382-0.882c0.588,0,1.124,0.342,1.383,0.882l1.47,3.051l3.286,0.489
				c0.582,0.087,1.065,0.503,1.246,1.076c0.182,0.572,0.03,1.2-0.391,1.621l-2.377,2.373l0.562,3.355
				c0.099,0.592-0.139,1.191-0.614,1.544C72.285,52.902,71.966,53.003,71.646,53.003z"/>
			<path id="XMLID_118_" fill="#FFFFFF" d="M71.646,80.422c-0.243,0-0.491-0.056-0.718-0.181l-2.939-1.584l-2.938,1.584
				c-0.227,0.124-0.472,0.181-0.718,0.181c-0.32,0-0.638-0.1-0.908-0.301c-0.474-0.353-0.713-0.952-0.612-1.546l0.559-3.353
				l-2.376-2.374c-0.421-0.418-0.572-1.049-0.39-1.62c0.182-0.572,0.662-0.988,1.247-1.077l3.285-0.488l1.47-3.051
				c0.258-0.539,0.795-0.88,1.382-0.88c0.588,0,1.124,0.341,1.383,0.88l1.47,3.051l3.286,0.488c0.582,0.089,1.065,0.505,1.246,1.077
				c0.182,0.571,0.03,1.202-0.391,1.62l-2.377,2.374l0.562,3.353c0.099,0.595-0.139,1.192-0.614,1.546
				C72.285,80.323,71.966,80.422,71.646,80.422z"/>
			<path id="XMLID_117_" fill="#FFFFFF" d="M71.646,107.843c-0.243,0-0.491-0.059-0.718-0.181l-2.939-1.582l-2.938,1.582
				c-0.227,0.123-0.472,0.181-0.718,0.181c-0.32,0-0.638-0.101-0.908-0.301c-0.474-0.354-0.713-0.953-0.612-1.544l0.559-3.354
				l-2.376-2.372c-0.421-0.422-0.572-1.052-0.39-1.623c0.182-0.572,0.662-0.99,1.247-1.077l3.285-0.488l1.47-3.051
				c0.258-0.538,0.795-0.879,1.382-0.879c0.588,0,1.124,0.341,1.383,0.879l1.47,3.051l3.286,0.488
				c0.582,0.088,1.065,0.506,1.246,1.077c0.182,0.571,0.03,1.201-0.391,1.623l-2.377,2.372l0.562,3.354
				c0.099,0.591-0.139,1.19-0.614,1.544C72.285,107.742,71.966,107.843,71.646,107.843z"/>
			<path id="XMLID_116_" fill="#FFFFFF" d="M71.646,135.263c-0.243,0-0.491-0.059-0.718-0.181l-2.939-1.584l-2.938,1.584
				c-0.227,0.123-0.472,0.181-0.718,0.181c-0.32,0-0.638-0.1-0.908-0.302c-0.474-0.353-0.713-0.953-0.612-1.545l0.559-3.352
				l-2.376-2.374c-0.421-0.42-0.572-1.05-0.39-1.622c0.182-0.572,0.662-0.99,1.247-1.077l3.285-0.488l1.47-3.051
				c0.258-0.538,0.795-0.88,1.382-0.88c0.588,0,1.124,0.343,1.383,0.88l1.47,3.051l3.286,0.488c0.582,0.088,1.065,0.506,1.246,1.077
				c0.182,0.572,0.03,1.202-0.391,1.622l-2.377,2.374l0.562,3.352c0.099,0.592-0.139,1.192-0.614,1.545
				C72.285,135.163,71.966,135.263,71.646,135.263z"/>
			<path id="XMLID_115_" fill="#FFFFFF" d="M54.278,39.293c-0.245,0-0.491-0.057-0.718-0.182l-2.938-1.582l-2.939,1.582
				c-0.226,0.124-0.472,0.182-0.718,0.182c-0.32,0-0.639-0.101-0.908-0.302c-0.474-0.352-0.714-0.953-0.613-1.545l0.56-3.354
				l-2.376-2.373c-0.421-0.421-0.573-1.05-0.391-1.622c0.181-0.573,0.664-0.99,1.247-1.077l3.286-0.488l1.468-3.052
				c0.261-0.539,0.796-0.88,1.384-0.88c0.586,0,1.124,0.342,1.382,0.88l1.47,3.052l3.286,0.488c0.583,0.088,1.064,0.504,1.244,1.077
				c0.182,0.572,0.03,1.201-0.391,1.622l-2.376,2.373l0.561,3.354c0.1,0.592-0.139,1.192-0.613,1.545
				C54.918,39.191,54.598,39.293,54.278,39.293z"/>
			<path id="XMLID_114_" fill="#FFFFFF" d="M54.278,66.713c-0.245,0-0.491-0.06-0.718-0.181l-2.938-1.583l-2.939,1.583
				c-0.226,0.122-0.472,0.181-0.718,0.181c-0.32,0-0.639-0.102-0.908-0.301c-0.474-0.355-0.714-0.953-0.613-1.545l0.56-3.354
				l-2.376-2.374c-0.421-0.42-0.573-1.049-0.391-1.622c0.181-0.572,0.664-0.988,1.247-1.075l3.286-0.489l1.468-3.051
				c0.261-0.539,0.796-0.881,1.384-0.881c0.586,0,1.124,0.343,1.382,0.881l1.47,3.051l3.286,0.489
				c0.583,0.087,1.064,0.504,1.244,1.075c0.182,0.573,0.03,1.202-0.391,1.622l-2.376,2.374l0.561,3.354
				c0.1,0.592-0.139,1.19-0.613,1.545C54.918,66.611,54.598,66.713,54.278,66.713z"/>
			<path id="XMLID_113_" fill="#FFFFFF" d="M54.278,94.133c-0.245,0-0.491-0.059-0.718-0.18l-2.938-1.584l-2.939,1.584
				c-0.226,0.121-0.472,0.18-0.718,0.18c-0.32,0-0.639-0.102-0.908-0.301c-0.474-0.353-0.714-0.953-0.613-1.546l0.56-3.353
				l-2.376-2.374c-0.421-0.42-0.573-1.049-0.391-1.621c0.181-0.573,0.664-0.99,1.247-1.076l3.286-0.488l1.468-3.053
				c0.261-0.538,0.796-0.879,1.384-0.879c0.586,0,1.124,0.341,1.382,0.879l1.47,3.053l3.286,0.488
				c0.583,0.088,1.064,0.504,1.244,1.076c0.182,0.572,0.03,1.201-0.391,1.621l-2.376,2.374l0.561,3.353
				c0.1,0.593-0.139,1.193-0.613,1.546C54.918,94.031,54.598,94.133,54.278,94.133z"/>
			<path id="XMLID_112_" fill="#FFFFFF" d="M54.278,121.553c-0.245,0-0.491-0.057-0.718-0.181l-2.938-1.583l-2.939,1.583
				c-0.226,0.123-0.472,0.181-0.718,0.181c-0.32,0-0.639-0.1-0.908-0.301c-0.474-0.353-0.714-0.954-0.613-1.545l0.56-3.354
				l-2.376-2.373c-0.421-0.419-0.573-1.049-0.391-1.623c0.181-0.572,0.664-0.988,1.247-1.075l3.286-0.487l1.468-3.052
				c0.261-0.539,0.796-0.882,1.384-0.882c0.586,0,1.124,0.343,1.382,0.882l1.47,3.052l3.286,0.487
				c0.583,0.088,1.064,0.504,1.244,1.075c0.182,0.573,0.03,1.203-0.391,1.623l-2.376,2.373l0.561,3.354
				c0.1,0.591-0.139,1.191-0.613,1.545C54.918,121.453,54.598,121.553,54.278,121.553z"/>
			<path id="XMLID_111_" fill="#FFFFFF" d="M54.278,148.972c-0.245,0-0.491-0.059-0.718-0.181l-2.938-1.582l-2.939,1.582
				c-0.226,0.122-0.472,0.181-0.718,0.181c-0.32,0-0.639-0.1-0.908-0.301c-0.474-0.352-0.714-0.953-0.613-1.545l0.56-3.353
				l-2.376-2.372c-0.421-0.421-0.573-1.051-0.391-1.623c0.181-0.573,0.664-0.99,1.247-1.077l3.286-0.488l1.468-3.05
				c0.261-0.539,0.796-0.881,1.384-0.881c0.586,0,1.124,0.342,1.382,0.881l1.47,3.05l3.286,0.488
				c0.583,0.087,1.064,0.504,1.244,1.077c0.182,0.572,0.03,1.202-0.391,1.623l-2.376,2.372l0.561,3.353
				c0.1,0.592-0.139,1.193-0.613,1.545C54.918,148.873,54.598,148.972,54.278,148.972z"/>
			<path id="XMLID_110_" fill="#FFFFFF" d="M105.362,53.003c-0.244,0-0.492-0.057-0.719-0.181l-2.938-1.583l-2.938,1.583
				c-0.227,0.123-0.473,0.181-0.719,0.181c-0.32,0-0.638-0.1-0.908-0.301c-0.474-0.353-0.714-0.952-0.612-1.544l0.56-3.355
				l-2.377-2.373c-0.421-0.421-0.574-1.049-0.391-1.621c0.181-0.573,0.663-0.99,1.246-1.076l3.285-0.489l1.47-3.051
				c0.26-0.54,0.796-0.882,1.383-0.882c0.587,0,1.124,0.342,1.383,0.882l1.471,3.051l3.284,0.489
				c0.582,0.087,1.064,0.503,1.244,1.076c0.183,0.572,0.031,1.2-0.391,1.621l-2.377,2.373l0.562,3.355
				c0.099,0.592-0.139,1.191-0.614,1.544C106.001,52.902,105.682,53.003,105.362,53.003z"/>
			<path id="XMLID_109_" fill="#FFFFFF" d="M105.362,80.422c-0.244,0-0.492-0.056-0.719-0.181l-2.938-1.584l-2.938,1.584
				c-0.227,0.124-0.473,0.181-0.719,0.181c-0.32,0-0.638-0.1-0.908-0.301c-0.474-0.353-0.714-0.952-0.612-1.546l0.56-3.353
				l-2.377-2.374c-0.421-0.418-0.574-1.049-0.391-1.62c0.181-0.572,0.663-0.988,1.246-1.077l3.285-0.488l1.47-3.051
				c0.26-0.539,0.796-0.88,1.383-0.88c0.587,0,1.124,0.341,1.383,0.88l1.471,3.051l3.284,0.488c0.582,0.089,1.064,0.505,1.244,1.077
				c0.183,0.571,0.031,1.202-0.391,1.62l-2.377,2.374l0.562,3.353c0.099,0.595-0.139,1.192-0.614,1.546
				C106.001,80.323,105.682,80.422,105.362,80.422z"/>
			<path id="XMLID_108_" fill="#FFFFFF" d="M105.362,107.843c-0.244,0-0.492-0.059-0.719-0.181l-2.938-1.582l-2.938,1.582
				c-0.227,0.123-0.473,0.181-0.719,0.181c-0.32,0-0.638-0.101-0.908-0.301c-0.474-0.354-0.714-0.953-0.612-1.544l0.56-3.354
				l-2.377-2.372c-0.421-0.422-0.574-1.052-0.391-1.623c0.181-0.572,0.663-0.99,1.246-1.077l3.285-0.488l1.47-3.051
				c0.26-0.538,0.796-0.879,1.383-0.879c0.587,0,1.124,0.341,1.383,0.879l1.471,3.051l3.284,0.488
				c0.582,0.088,1.064,0.506,1.244,1.077c0.183,0.571,0.031,1.201-0.391,1.623l-2.377,2.372l0.562,3.354
				c0.099,0.591-0.139,1.19-0.614,1.544C106.001,107.742,105.682,107.843,105.362,107.843z"/>
			<path id="XMLID_107_" fill="#FFFFFF" d="M105.362,135.263c-0.244,0-0.492-0.059-0.719-0.181l-2.938-1.584l-2.938,1.584
				c-0.227,0.123-0.473,0.181-0.719,0.181c-0.32,0-0.638-0.1-0.908-0.302c-0.474-0.353-0.714-0.953-0.612-1.545l0.56-3.352
				l-2.377-2.374c-0.421-0.42-0.574-1.05-0.391-1.622c0.181-0.572,0.663-0.99,1.246-1.077l3.285-0.488l1.47-3.051
				c0.26-0.538,0.796-0.88,1.383-0.88c0.587,0,1.124,0.343,1.383,0.88l1.471,3.051l3.284,0.488c0.582,0.088,1.064,0.506,1.244,1.077
				c0.183,0.572,0.031,1.202-0.391,1.622l-2.377,2.374l0.562,3.352c0.099,0.592-0.139,1.192-0.614,1.545
				C106.001,135.163,105.682,135.263,105.362,135.263z"/>
			<path id="XMLID_106_" fill="#FFFFFF" d="M87.993,39.293c-0.243,0-0.491-0.057-0.719-0.182l-2.938-1.582l-2.938,1.582
				c-0.226,0.124-0.474,0.182-0.717,0.182c-0.321,0-0.639-0.101-0.91-0.302c-0.474-0.352-0.713-0.953-0.612-1.545l0.56-3.354
				l-2.376-2.373c-0.421-0.421-0.573-1.05-0.391-1.622c0.182-0.573,0.665-0.99,1.247-1.077l3.286-0.488l1.469-3.052
				c0.26-0.539,0.797-0.88,1.383-0.88c0.588,0,1.124,0.342,1.383,0.88l1.47,3.052l3.285,0.488c0.582,0.088,1.066,0.504,1.246,1.077
				c0.183,0.572,0.031,1.201-0.391,1.622l-2.377,2.373l0.561,3.354c0.1,0.592-0.139,1.192-0.613,1.545
				C88.633,39.191,88.314,39.293,87.993,39.293z"/>
			<path id="XMLID_105_" fill="#FFFFFF" d="M87.993,66.713c-0.243,0-0.491-0.06-0.719-0.181l-2.938-1.583l-2.938,1.583
				c-0.226,0.122-0.474,0.181-0.717,0.181c-0.321,0-0.639-0.102-0.91-0.301c-0.474-0.355-0.713-0.953-0.612-1.545l0.56-3.354
				l-2.376-2.374c-0.421-0.42-0.573-1.049-0.391-1.622c0.182-0.572,0.665-0.988,1.247-1.075l3.286-0.489l1.469-3.051
				c0.26-0.539,0.797-0.881,1.383-0.881c0.588,0,1.124,0.343,1.383,0.881l1.47,3.051l3.285,0.489
				c0.582,0.087,1.066,0.504,1.246,1.075c0.183,0.573,0.031,1.202-0.391,1.622l-2.377,2.374l0.561,3.354
				c0.1,0.592-0.139,1.19-0.613,1.545C88.633,66.611,88.314,66.713,87.993,66.713z"/>
			<path id="XMLID_104_" fill="#FFFFFF" d="M87.993,94.133c-0.243,0-0.491-0.059-0.719-0.18l-2.938-1.584l-2.938,1.584
				c-0.226,0.121-0.474,0.18-0.717,0.18c-0.321,0-0.639-0.102-0.91-0.301c-0.474-0.353-0.713-0.953-0.612-1.546l0.56-3.353
				l-2.376-2.374c-0.421-0.42-0.573-1.049-0.391-1.621c0.182-0.573,0.665-0.99,1.247-1.076l3.286-0.488l1.469-3.053
				c0.26-0.538,0.797-0.879,1.383-0.879c0.588,0,1.124,0.341,1.383,0.879l1.47,3.053l3.285,0.488
				c0.582,0.088,1.066,0.504,1.246,1.076c0.183,0.572,0.031,1.201-0.391,1.621l-2.377,2.374l0.561,3.353
				c0.1,0.593-0.139,1.193-0.613,1.546C88.633,94.031,88.314,94.133,87.993,94.133z"/>
			<path id="XMLID_103_" fill="#FFFFFF" d="M87.993,121.553c-0.243,0-0.491-0.057-0.719-0.181l-2.938-1.583l-2.938,1.583
				c-0.226,0.123-0.474,0.181-0.717,0.181c-0.321,0-0.639-0.1-0.91-0.301c-0.474-0.353-0.713-0.954-0.612-1.545l0.56-3.354
				l-2.376-2.373c-0.421-0.419-0.573-1.049-0.391-1.623c0.182-0.572,0.665-0.988,1.247-1.075l3.286-0.487l1.469-3.052
				c0.26-0.539,0.797-0.882,1.383-0.882c0.588,0,1.124,0.343,1.383,0.882l1.47,3.052l3.285,0.487
				c0.582,0.088,1.066,0.504,1.246,1.075c0.183,0.573,0.031,1.203-0.391,1.623l-2.377,2.373l0.561,3.354
				c0.1,0.591-0.139,1.191-0.613,1.545C88.633,121.453,88.314,121.553,87.993,121.553z"/>
			<path id="XMLID_102_" fill="#FFFFFF" d="M87.993,148.972c-0.243,0-0.491-0.059-0.719-0.181l-2.938-1.582l-2.938,1.582
				c-0.226,0.122-0.474,0.181-0.717,0.181c-0.321,0-0.639-0.1-0.91-0.301c-0.474-0.352-0.713-0.953-0.612-1.545l0.56-3.353
				l-2.376-2.372c-0.421-0.421-0.573-1.051-0.391-1.623c0.182-0.573,0.665-0.99,1.247-1.077l3.286-0.488l1.469-3.05
				c0.26-0.539,0.797-0.881,1.383-0.881c0.588,0,1.124,0.342,1.383,0.881l1.47,3.05l3.285,0.488
				c0.582,0.087,1.066,0.504,1.246,1.077c0.183,0.572,0.031,1.202-0.391,1.623l-2.377,2.372l0.561,3.353
				c0.1,0.592-0.139,1.193-0.613,1.545C88.633,148.873,88.314,148.972,87.993,148.972z"/>
			<path id="XMLID_101_" fill="#FFFFFF" d="M139.077,53.003c-0.245,0-0.491-0.057-0.719-0.181l-2.939-1.583l-2.938,1.583
				c-0.227,0.123-0.473,0.181-0.717,0.181c-0.321,0-0.639-0.1-0.907-0.301c-0.476-0.353-0.717-0.952-0.613-1.544l0.559-3.355
				l-2.376-2.373c-0.42-0.421-0.573-1.049-0.391-1.621c0.182-0.573,0.665-0.99,1.247-1.076l3.285-0.489l1.47-3.051
				c0.259-0.54,0.795-0.882,1.382-0.882c0.589,0,1.126,0.342,1.384,0.882l1.47,3.051l3.286,0.489
				c0.581,0.087,1.064,0.503,1.243,1.076c0.182,0.572,0.031,1.2-0.391,1.621l-2.376,2.373l0.561,3.355
				c0.1,0.592-0.138,1.191-0.612,1.544C139.717,52.902,139.398,53.003,139.077,53.003z"/>
			<path id="XMLID_100_" fill="#FFFFFF" d="M139.077,80.422c-0.245,0-0.491-0.056-0.719-0.181l-2.939-1.584l-2.938,1.584
				c-0.227,0.124-0.473,0.181-0.717,0.181c-0.321,0-0.639-0.1-0.907-0.301c-0.476-0.353-0.717-0.952-0.613-1.546l0.559-3.353
				l-2.376-2.374c-0.42-0.418-0.573-1.049-0.391-1.62c0.182-0.572,0.665-0.988,1.247-1.077l3.285-0.488l1.47-3.051
				c0.259-0.539,0.795-0.88,1.382-0.88c0.589,0,1.126,0.341,1.384,0.88l1.47,3.051l3.286,0.488c0.581,0.089,1.064,0.505,1.243,1.077
				c0.182,0.571,0.031,1.202-0.391,1.62l-2.376,2.374l0.561,3.353c0.1,0.595-0.138,1.192-0.612,1.546
				C139.717,80.323,139.398,80.422,139.077,80.422z"/>
			<path id="XMLID_99_" fill="#FFFFFF" d="M139.077,107.843c-0.245,0-0.491-0.059-0.719-0.181l-2.939-1.582l-2.938,1.582
				c-0.227,0.123-0.473,0.181-0.717,0.181c-0.321,0-0.639-0.101-0.907-0.301c-0.476-0.354-0.717-0.953-0.613-1.544l0.559-3.354
				l-2.376-2.372c-0.42-0.422-0.573-1.052-0.391-1.623c0.182-0.572,0.665-0.99,1.247-1.077l3.285-0.488l1.47-3.051
				c0.259-0.538,0.795-0.879,1.382-0.879c0.589,0,1.126,0.341,1.384,0.879l1.47,3.051l3.286,0.488
				c0.581,0.088,1.064,0.506,1.243,1.077c0.182,0.571,0.031,1.201-0.391,1.623l-2.376,2.372l0.561,3.354
				c0.1,0.591-0.138,1.19-0.612,1.544C139.717,107.742,139.398,107.843,139.077,107.843z"/>
			<path id="XMLID_98_" fill="#FFFFFF" d="M139.077,135.263c-0.245,0-0.491-0.059-0.719-0.181l-2.939-1.584l-2.938,1.584
				c-0.227,0.123-0.473,0.181-0.717,0.181c-0.321,0-0.639-0.1-0.907-0.302c-0.476-0.353-0.717-0.953-0.613-1.545l0.559-3.352
				l-2.376-2.374c-0.42-0.42-0.573-1.05-0.391-1.622c0.182-0.572,0.665-0.99,1.247-1.077l3.285-0.488l1.47-3.051
				c0.259-0.538,0.795-0.88,1.382-0.88c0.589,0,1.126,0.343,1.384,0.88l1.47,3.051l3.286,0.488c0.581,0.088,1.064,0.506,1.243,1.077
				c0.182,0.572,0.031,1.202-0.391,1.622l-2.376,2.374l0.561,3.352c0.1,0.592-0.138,1.192-0.612,1.545
				C139.717,135.163,139.398,135.263,139.077,135.263z"/>
			<path id="XMLID_97_" fill="#FFFFFF" d="M121.708,39.293c-0.243,0-0.491-0.057-0.717-0.182l-2.939-1.582l-2.938,1.582
				c-0.226,0.124-0.473,0.182-0.718,0.182c-0.32,0-0.639-0.101-0.908-0.302c-0.474-0.352-0.714-0.953-0.613-1.545l0.56-3.354
				l-2.375-2.373c-0.422-0.421-0.573-1.05-0.392-1.622c0.182-0.573,0.662-0.99,1.247-1.077l3.285-0.488l1.47-3.052
				c0.26-0.539,0.796-0.88,1.383-0.88c0.588,0,1.124,0.342,1.383,0.88l1.47,3.052l3.286,0.488c0.581,0.088,1.064,0.504,1.244,1.077
				c0.182,0.572,0.03,1.201-0.391,1.622l-2.377,2.373l0.562,3.354c0.1,0.592-0.139,1.192-0.613,1.545
				C122.347,39.191,122.029,39.293,121.708,39.293z"/>
			<path id="XMLID_96_" fill="#FFFFFF" d="M121.708,66.713c-0.243,0-0.491-0.06-0.717-0.181l-2.939-1.583l-2.938,1.583
				c-0.226,0.122-0.473,0.181-0.718,0.181c-0.32,0-0.639-0.102-0.908-0.301c-0.474-0.355-0.714-0.953-0.613-1.545l0.56-3.354
				l-2.375-2.374c-0.422-0.42-0.573-1.049-0.392-1.622c0.182-0.572,0.662-0.988,1.247-1.075l3.285-0.489l1.47-3.051
				c0.26-0.539,0.796-0.881,1.383-0.881c0.588,0,1.124,0.343,1.383,0.881l1.47,3.051l3.286,0.489
				c0.581,0.087,1.064,0.504,1.244,1.075c0.182,0.573,0.03,1.202-0.391,1.622l-2.377,2.374l0.562,3.354
				c0.1,0.592-0.139,1.19-0.613,1.545C122.347,66.611,122.029,66.713,121.708,66.713z"/>
			<path id="XMLID_95_" fill="#FFFFFF" d="M121.708,94.133c-0.243,0-0.491-0.059-0.717-0.18l-2.939-1.584l-2.938,1.584
				c-0.226,0.121-0.473,0.18-0.718,0.18c-0.32,0-0.639-0.102-0.908-0.301c-0.474-0.353-0.714-0.953-0.613-1.546l0.56-3.353
				l-2.375-2.374c-0.422-0.42-0.573-1.049-0.392-1.621c0.182-0.573,0.662-0.99,1.247-1.076l3.285-0.488l1.47-3.053
				c0.26-0.538,0.796-0.879,1.383-0.879c0.588,0,1.124,0.341,1.383,0.879l1.47,3.053l3.286,0.488
				c0.581,0.088,1.064,0.504,1.244,1.076c0.182,0.572,0.03,1.201-0.391,1.621l-2.377,2.374l0.562,3.353
				c0.1,0.593-0.139,1.193-0.613,1.546C122.347,94.031,122.029,94.133,121.708,94.133z"/>
			<path id="XMLID_94_" fill="#FFFFFF" d="M121.708,121.553c-0.243,0-0.491-0.057-0.717-0.181l-2.939-1.583l-2.938,1.583
				c-0.226,0.123-0.473,0.181-0.718,0.181c-0.32,0-0.639-0.1-0.908-0.301c-0.474-0.353-0.714-0.954-0.613-1.545l0.56-3.354
				l-2.375-2.373c-0.422-0.419-0.573-1.049-0.392-1.623c0.182-0.572,0.662-0.988,1.247-1.075l3.285-0.487l1.47-3.052
				c0.26-0.539,0.796-0.882,1.383-0.882c0.588,0,1.124,0.343,1.383,0.882l1.47,3.052l3.286,0.487
				c0.581,0.088,1.064,0.504,1.244,1.075c0.182,0.573,0.03,1.203-0.391,1.623l-2.377,2.373l0.562,3.354
				c0.1,0.591-0.139,1.191-0.613,1.545C122.347,121.453,122.029,121.553,121.708,121.553z"/>
			<path id="XMLID_93_" fill="#FFFFFF" d="M121.708,148.972c-0.243,0-0.491-0.059-0.717-0.181l-2.939-1.582l-2.938,1.582
				c-0.226,0.122-0.473,0.181-0.718,0.181c-0.32,0-0.639-0.1-0.908-0.301c-0.474-0.352-0.714-0.953-0.613-1.545l0.56-3.353
				l-2.375-2.372c-0.422-0.421-0.573-1.051-0.392-1.623c0.182-0.573,0.662-0.99,1.247-1.077l3.285-0.488l1.47-3.05
				c0.26-0.539,0.796-0.881,1.383-0.881c0.588,0,1.124,0.342,1.383,0.881l1.47,3.05l3.286,0.488
				c0.581,0.087,1.064,0.504,1.244,1.077c0.182,0.572,0.03,1.202-0.391,1.623l-2.377,2.372l0.562,3.353
				c0.1,0.592-0.139,1.193-0.613,1.545C122.347,148.873,122.029,148.972,121.708,148.972z"/>
			<path id="XMLID_92_" fill="#FFFFFF" d="M155.426,39.293c-0.246,0-0.493-0.057-0.719-0.182l-2.938-1.582l-2.939,1.582
				c-0.227,0.124-0.474,0.182-0.717,0.182c-0.321,0-0.639-0.101-0.91-0.302c-0.474-0.352-0.714-0.953-0.613-1.545l0.561-3.354
				l-2.378-2.373c-0.421-0.421-0.572-1.05-0.39-1.622c0.181-0.573,0.665-0.99,1.246-1.077l3.285-0.488l1.469-3.052
				c0.26-0.539,0.797-0.88,1.384-0.88s1.123,0.342,1.382,0.88l1.472,3.052l3.284,0.488c0.582,0.088,1.064,0.504,1.246,1.077
				c0.183,0.572,0.032,1.201-0.39,1.622l-2.379,2.373l0.563,3.354c0.099,0.592-0.141,1.192-0.615,1.545
				C156.063,39.191,155.744,39.293,155.426,39.293z"/>
			<path id="XMLID_91_" fill="#FFFFFF" d="M155.426,66.713c-0.246,0-0.493-0.06-0.719-0.181l-2.938-1.583l-2.939,1.583
				c-0.227,0.122-0.474,0.181-0.717,0.181c-0.321,0-0.639-0.102-0.91-0.301c-0.474-0.355-0.714-0.953-0.613-1.545l0.561-3.354
				l-2.378-2.374c-0.421-0.42-0.572-1.049-0.39-1.622c0.181-0.572,0.665-0.988,1.246-1.075l3.285-0.489l1.469-3.051
				c0.26-0.539,0.797-0.881,1.384-0.881s1.123,0.343,1.382,0.881l1.472,3.051l3.284,0.489c0.582,0.087,1.064,0.504,1.246,1.075
				c0.183,0.573,0.032,1.202-0.39,1.622l-2.379,2.374l0.563,3.354c0.099,0.592-0.141,1.19-0.615,1.545
				C156.063,66.611,155.744,66.713,155.426,66.713z"/>
			<path id="XMLID_90_" fill="#FFFFFF" d="M155.426,94.133c-0.246,0-0.493-0.059-0.719-0.18l-2.938-1.584l-2.939,1.584
				c-0.227,0.121-0.474,0.18-0.717,0.18c-0.321,0-0.639-0.102-0.91-0.301c-0.474-0.353-0.714-0.953-0.613-1.546l0.561-3.353
				l-2.378-2.374c-0.421-0.42-0.572-1.049-0.39-1.621c0.181-0.573,0.665-0.99,1.246-1.076l3.285-0.488l1.469-3.053
				c0.26-0.538,0.797-0.879,1.384-0.879s1.123,0.341,1.382,0.879l1.472,3.053l3.284,0.488c0.582,0.088,1.064,0.504,1.246,1.076
				c0.183,0.572,0.032,1.201-0.39,1.621l-2.379,2.374l0.563,3.353c0.099,0.593-0.141,1.193-0.615,1.546
				C156.063,94.031,155.744,94.133,155.426,94.133z"/>
			<path id="XMLID_89_" fill="#FFFFFF" d="M155.426,121.553c-0.246,0-0.493-0.057-0.719-0.181l-2.938-1.583l-2.939,1.583
				c-0.227,0.123-0.474,0.181-0.717,0.181c-0.321,0-0.639-0.1-0.91-0.301c-0.474-0.353-0.714-0.954-0.613-1.545l0.561-3.354
				l-2.378-2.373c-0.421-0.419-0.572-1.049-0.39-1.623c0.181-0.572,0.665-0.988,1.246-1.075l3.285-0.487l1.469-3.052
				c0.26-0.539,0.797-0.882,1.384-0.882s1.123,0.343,1.382,0.882l1.472,3.052l3.284,0.487c0.582,0.088,1.064,0.504,1.246,1.075
				c0.183,0.573,0.032,1.203-0.39,1.623l-2.379,2.373l0.563,3.354c0.099,0.591-0.141,1.191-0.615,1.545
				C156.063,121.453,155.744,121.553,155.426,121.553z"/>
			<path id="XMLID_88_" fill="#FFFFFF" d="M155.426,148.972c-0.246,0-0.493-0.059-0.719-0.181l-2.938-1.582l-2.939,1.582
				c-0.227,0.122-0.474,0.181-0.717,0.181c-0.321,0-0.639-0.1-0.91-0.301c-0.474-0.352-0.714-0.953-0.613-1.545l0.561-3.353
				l-2.378-2.372c-0.421-0.421-0.572-1.051-0.39-1.623c0.181-0.573,0.665-0.99,1.246-1.077l3.285-0.488l1.469-3.05
				c0.26-0.539,0.797-0.881,1.384-0.881s1.123,0.342,1.382,0.881l1.472,3.05l3.284,0.488c0.582,0.087,1.064,0.504,1.246,1.077
				c0.183,0.572,0.032,1.202-0.39,1.623l-2.379,2.372l0.563,3.353c0.099,0.592-0.141,1.193-0.615,1.545
				C156.063,148.873,155.744,148.972,155.426,148.972z"/>
		</g>
		<rect id="XMLID_86_" x="-43.5" y="254.306" opacity="0.1" enable-background="new    " width="32.876" height="32.507"/>
		<path id="XMLID_85_" opacity="0.1" enable-background="new    " d="M-10.624,337.133v-21.729H-43.5v21.729
			c0,5.929,4.85,10.779,10.779,10.779H0.155C-5.774,347.911-10.624,343.061-10.624,337.133z"/>
		<g id="XMLID_84_">
		</g>
		<g id="XMLID_83_">
		</g>
		<g id="XMLID_82_">
		</g>
		<g id="XMLID_81_">
		</g>
		<g id="XMLID_80_">
		</g>
		<g id="XMLID_79_">
		</g>
		<g id="XMLID_78_">
		</g>
		<g id="XMLID_77_">
		</g>
		<g id="XMLID_76_">
		</g>
		<g id="XMLID_75_">
		</g>
		<g id="XMLID_74_">
		</g>
		<g id="XMLID_73_">
		</g>
		<g id="XMLID_72_">
		</g>
		<g id="XMLID_71_">
		</g>
		<g id="XMLID_70_">
		</g>
	</g>
</g>
</svg>
