<svg xmlns="http://www.w3.org/2000/svg" width="15" height="20" viewBox="0 0 15 20">
  <path id="clipboard-list-check-solid" d="M13.125,2.5h-2.1a3.728,3.728,0,0,0-7.04,0H1.875A1.875,1.875,0,0,0,0,4.375v13.75A1.875,1.875,0,0,0,1.875,20h11.25A1.875,1.875,0,0,0,15,18.125V4.375A1.875,1.875,0,0,0,13.125,2.5ZM7.5,2.5A1.25,1.25,0,1,1,6.25,3.75,1.25,1.25,0,0,1,7.5,2.5ZM3.75,15.313a.938.938,0,1,1,.938-.937A.938.938,0,0,1,3.75,15.313Zm.625-4.062a.624.624,0,0,1-.441-.184l-1.25-1.25a.625.625,0,0,1,.884-.884l.808.809L6.433,7.684a.625.625,0,0,1,.884.884l-2.5,2.5A.63.63,0,0,1,4.375,11.25Zm7.5,3.75h-5a.625.625,0,0,1,0-1.25h5a.625.625,0,0,1,0,1.25Zm0-3.75H8.125a.625.625,0,0,1,0-1.25h3.75a.625.625,0,0,1,0,1.25Z" fill="#fff"/>
</svg>
