<svg width="15" height="12" viewBox="0 0 15 12" fill="none" xmlns="http://www.w3.org/2000/svg">
<g clip-path="url(#clip0)">
<path d="M13.594 1.875H7.969L6.094 0H1.406C1.22136 0 1.03853 0.036367 0.867947 0.107025C0.697363 0.177683 0.542367 0.281245 0.411808 0.411804C0.281249 0.542363 0.177683 0.697367 0.107025 0.86795C0.0363673 1.03853 0 1.22136 0 1.406L0 9.844C0 10.2169 0.148132 10.5745 0.411808 10.8382C0.675484 11.1019 1.03311 11.25 1.406 11.25H13.594C13.7786 11.25 13.9615 11.2136 14.1321 11.143C14.3026 11.0723 14.4576 10.9688 14.5882 10.8382C14.7188 10.7076 14.8223 10.5526 14.893 10.382C14.9636 10.2115 15 10.0286 15 9.844V3.281C15 3.09636 14.9636 2.91353 14.893 2.74295C14.8223 2.57237 14.7188 2.41736 14.5882 2.2868C14.4576 2.15625 14.3026 2.05268 14.1321 1.98203C13.9615 1.91137 13.7786 1.875 13.594 1.875V1.875ZM10.781 6.8C10.781 6.92439 10.7316 7.04368 10.6436 7.13163C10.5557 7.21958 10.4364 7.269 10.312 7.269H8.2V9.378C8.2 9.50238 8.15059 9.62168 8.06263 9.70963C7.97468 9.79759 7.85539 9.847 7.731 9.847H7.266C7.14161 9.847 7.02232 9.79759 6.93437 9.70963C6.84641 9.62168 6.797 9.50238 6.797 9.378V7.266H4.688C4.62641 7.266 4.56542 7.25387 4.50852 7.2303C4.45162 7.20673 4.39992 7.17218 4.35637 7.12863C4.31282 7.08508 4.27827 7.03338 4.2547 6.97648C4.23113 6.91958 4.219 6.85859 4.219 6.797V6.328C4.219 6.26641 4.23113 6.20542 4.2547 6.14852C4.27827 6.09162 4.31282 6.03992 4.35637 5.99637C4.39992 5.95282 4.45162 5.91827 4.50852 5.8947C4.56542 5.87113 4.62641 5.859 4.688 5.859H6.8V3.75C6.8 3.62561 6.84941 3.50632 6.93737 3.41837C7.02532 3.33041 7.14461 3.281 7.269 3.281H7.738C7.86239 3.281 7.98168 3.33041 8.06963 3.41837C8.15759 3.50632 8.207 3.62561 8.207 3.75V5.859H10.316C10.4404 5.859 10.5597 5.90841 10.6476 5.99637C10.7356 6.08432 10.785 6.20362 10.785 6.328L10.781 6.8Z" fill="#E6E6E6"/>
</g>
<defs>
<clipPath id="clip0">
<rect width="15" height="11.25" fill="white"/>
</clipPath>
</defs>
</svg>