<svg xmlns="http://www.w3.org/2000/svg" width="22" height="28" viewBox="0 0 22 28"><defs><style>.a{fill:#c8e6c9;}.b{fill:#43a047;}.c{fill:#fff;font-size:6px;font-family:Montserrat-Bold, Montserrat;font-weight:700;}.d{fill:#2e7d32;}</style></defs><g transform="translate(0 0)"><path class="a" d="M1.678,0,6.36,7.967,0,6.262Z" transform="matrix(0.966, -0.259, 0.259, 0.966, 12.281, 1.646)"/><path class="b" d="M2.727,0h10.91l6.819,6.7V24.115c0,2.22-.468,2.679-2.727,2.679h-15C.468,26.794,0,26.335,0,24.115V2.679C0,.46.468,0,2.727,0Z" transform="translate(0 1.206)"/><text class="c" transform="translate(10.207 17.454)"><tspan x="-7.059" y="0">.CSV</tspan></text><path class="d" d="M1.614,0,6.322,7.718,0,6.024Z" transform="matrix(-0.966, 0.259, -0.259, -0.966, 22, 13.801)"/></g></svg>