<svg xmlns="http://www.w3.org/2000/svg" width="15" height="11.999" viewBox="0 0 15 11.999"><path d="M11.415,4.521H7.853V5.834a1.687,1.687,0,0,1-3.375,0V2.984L2.957,3.9a1.5,1.5,0,0,0-.729,1.284V6.291L.353,7.373A.748.748,0,0,0,.079,8.4l1.875,3.248a.75.75,0,0,0,1.024.274l2.423-1.4H8.6a1.5,1.5,0,0,0,1.5-1.5h.375a.749.749,0,0,0,.75-.75v-1.5h.187a.561.561,0,0,0,.562-.562V5.084A.561.561,0,0,0,11.415,4.521Zm3.462-.877L13,.4A.75.75,0,0,0,11.978.122l-2.423,1.4h-2.4a1.511,1.511,0,0,0-.795.227l-.785.49a.745.745,0,0,0-.352.635v2.96a.937.937,0,0,0,1.875,0V3.771h4.312a1.313,1.313,0,0,1,1.312,1.312v.668L14.6,4.669A.751.751,0,0,0,14.877,3.645Z" transform="translate(0.023 -0.022)"/></svg>