<svg xmlns="http://www.w3.org/2000/svg" width="369.597" height="240.219" viewBox="0 0 369.597 240.219">
  <g id="Hex_Neural" data-name="Hex Neural" transform="translate(1069.472 495.939) rotate(180)" opacity="0.7">
    <g id="Group_4390" data-name="Group 4390" transform="translate(700 258.721)">
      <g id="Group_4386" data-name="Group 4386" transform="translate(0 153.011)">
        <g id="Group_4384" data-name="Group 4384" transform="translate(155.017 84.208)">
          <path id="Path_1372" data-name="Path 1372" d="M986.7,700" transform="translate(-986.7 -700)" fill="none" stroke="#ced4d9" stroke-width="0.25"/>
        </g>
        <g id="Group_4385" data-name="Group 4385">
          <path id="Path_1373" data-name="Path 1373" d="M945.081,642.315l-18.832.216-9.608-16.2,9.235-16.421,18.832-.216" transform="translate(-799.504 -574.312)" fill="none" stroke="#ced4d9" stroke-width="0.25"/>
          <path id="Path_1374" data-name="Path 1374" d="M891.747,580.13l9.6,16.2-9.23,16.415-18.838.216-9.6-16.2,9.235-16.421Z" transform="translate(-775.179 -560.735)" fill="none" stroke="#ced4d9" stroke-width="0.25"/>
          <path id="Path_1375" data-name="Path 1375" d="M870.431,667.322l-6.061-10.23,9.23-16.415,18.838-.216,9.6,16.2-6,10.662" transform="translate(-775.496 -588.445)" fill="none" stroke="#ced4d9" stroke-width="0.25"/>
          <path id="Path_1376" data-name="Path 1376" d="M839.477,610.89l9.6,16.2-9.23,16.421-18.838.216-9.6-16.2,9.23-16.421Z" transform="translate(-751.171 -574.863)" fill="none" stroke="#ced4d9" stroke-width="0.25"/>
          <path id="Path_1377" data-name="Path 1377" d="M848.39,566.948l-9.23,16.415-18.838.216-9.6-16.2,9.23-16.415" transform="translate(-750.854 -547.337)" fill="none" stroke="#ced4d9" stroke-width="0.25"/>
          <path id="Path_1378" data-name="Path 1378" d="M765.2,667.878l-5.683-9.587,9.23-16.421,18.838-.211,9.6,16.2-5.623,10" transform="translate(-727.338 -588.996)" fill="none" stroke="#ced4d9" stroke-width="0.25"/>
          <line id="Line_414" data-name="Line 414" y1="0.216" x2="18.838" transform="translate(13.22 69.295)" fill="none" stroke="#ced4d9" stroke-width="0.25"/>
          <path id="Path_1379" data-name="Path 1379" d="M734.757,612.09l9.6,16.2-9.23,16.415-18.838.216-9.6-16.2" transform="translate(-703.073 -575.414)" fill="none" stroke="#ced4d9" stroke-width="0.25"/>
          <path id="Path_1380" data-name="Path 1380" d="M804.6,578.71a3.62,3.62,0,1,1,3.661,3.579A3.618,3.618,0,0,1,804.6,578.71Z" transform="translate(-748.043 -558.402)" fill="#2680eb" stroke="#ced4d9" stroke-width="0.25"/>
          <path id="Path_1381" data-name="Path 1381" d="M821.12,547.92a3.62,3.62,0,1,1,3.66,3.579A3.618,3.618,0,0,1,821.12,547.92Z" transform="translate(-755.631 -544.26)" fill="#2680eb" stroke="#ced4d9" stroke-width="0.25"/>
          <path id="Path_1382" data-name="Path 1382" d="M752.14,609.05a3.62,3.62,0,1,1,3.661,3.579A3.619,3.619,0,0,1,752.14,609.05Z" transform="translate(-723.948 -572.337)" fill="#2680eb" stroke="#ced4d9" stroke-width="0.25"/>
          <path id="Path_1383" data-name="Path 1383" d="M805.29,638.62a3.62,3.62,0,1,1,3.661,3.579A3.619,3.619,0,0,1,805.29,638.62Z" transform="translate(-748.36 -585.919)" fill="#2680eb" stroke="#ced4d9" stroke-width="0.25"/>
          <path id="Path_1384" data-name="Path 1384" d="M856.99,607.86a3.62,3.62,0,1,1,3.661,3.579A3.619,3.619,0,0,1,856.99,607.86Z" transform="translate(-772.106 -571.79)" fill="#2680eb" stroke="#ced4d9" stroke-width="0.25"/>
          <path id="Path_1385" data-name="Path 1385" d="M873.7,577.92a3.62,3.62,0,1,1,3.661,3.579A3.619,3.619,0,0,1,873.7,577.92Z" transform="translate(-779.781 -558.039)" fill="#2680eb" stroke="#ced4d9" stroke-width="0.25"/>
          <path id="Path_1386" data-name="Path 1386" d="M874.39,638.25a3.62,3.62,0,1,1,3.661,3.579A3.619,3.619,0,0,1,874.39,638.25Z" transform="translate(-780.098 -585.749)" fill="#2680eb" stroke="#ced4d9" stroke-width="0.25"/>
          <path id="Path_1387" data-name="Path 1387" d="M821.81,608.26a3.62,3.62,0,1,1,3.661,3.579A3.619,3.619,0,0,1,821.81,608.26Z" transform="translate(-755.948 -571.974)" fill="#2680eb" stroke="#ced4d9" stroke-width="0.25"/>
          <path id="Path_1388" data-name="Path 1388" d="M909.26,577.09a3.62,3.62,0,1,1,3.66,3.579A3.619,3.619,0,0,1,909.26,577.09Z" transform="translate(-796.114 -557.657)" fill="#2680eb" stroke="#ced4d9" stroke-width="0.25"/>
          <path id="Path_1389" data-name="Path 1389" d="M961.86,606.66a3.62,3.62,0,1,1,3.661,3.579A3.619,3.619,0,0,1,961.86,606.66Z" transform="translate(-820.274 -571.239)" fill="#2680eb" stroke="#ced4d9" stroke-width="0.25"/>
          <path id="Path_1390" data-name="Path 1390" d="M962.55,666.99a3.62,3.62,0,1,1,3.66,3.579A3.618,3.618,0,0,1,962.55,666.99Z" transform="translate(-820.591 -598.949)" fill="#2680eb" stroke="#ced4d9" stroke-width="0.25"/>
          <path id="Path_1391" data-name="Path 1391" d="M857.68,668.19a3.62,3.62,0,1,1,3.661,3.579A3.619,3.619,0,0,1,857.68,668.19Z" transform="translate(-772.423 -599.5)" fill="#2680eb" stroke="#ced4d9" stroke-width="0.25"/>
          <path id="Path_1392" data-name="Path 1392" d="M927.35,667.4a3.62,3.62,0,1,1,3.661,3.579A3.618,3.618,0,0,1,927.35,667.4Z" transform="translate(-804.423 -599.137)" fill="#2680eb" stroke="#ced4d9" stroke-width="0.25"/>
          <path id="Path_1393" data-name="Path 1393" d="M909.95,637.42A3.62,3.62,0,1,1,913.61,641,3.618,3.618,0,0,1,909.95,637.42Z" transform="translate(-796.431 -585.367)" fill="#2680eb" stroke="#ced4d9" stroke-width="0.25"/>
          <path id="Path_1394" data-name="Path 1394" d="M926.66,607.06a3.62,3.62,0,1,1,3.661,3.579A3.619,3.619,0,0,1,926.66,607.06Z" transform="translate(-804.106 -571.423)" fill="#2680eb" stroke="#ced4d9" stroke-width="0.25"/>
          <path id="Path_1395" data-name="Path 1395" d="M769.67,639.02a3.62,3.62,0,1,1,3.661,3.579A3.618,3.618,0,0,1,769.67,639.02Z" transform="translate(-731.999 -586.102)" fill="#2680eb" stroke="#ced4d9" stroke-width="0.25"/>
          <path id="Path_1396" data-name="Path 1396" d="M752.83,669.39a3.62,3.62,0,1,1,3.661,3.579A3.619,3.619,0,0,1,752.83,669.39Z" transform="translate(-724.265 -600.052)" fill="#2680eb" stroke="#ced4d9" stroke-width="0.25"/>
          <path id="Path_1397" data-name="Path 1397" d="M717.38,669.79a3.62,3.62,0,1,1,3.661,3.579A3.619,3.619,0,0,1,717.38,669.79Z" transform="translate(-707.982 -600.235)" fill="#2680eb" stroke="#ced4d9" stroke-width="0.25"/>
          <path id="Path_1398" data-name="Path 1398" d="M700,639.82a3.62,3.62,0,1,1,3.661,3.579A3.619,3.619,0,0,1,700,639.82Z" transform="translate(-700 -586.47)" fill="#2680eb" stroke="#ced4d9" stroke-width="0.25"/>
          <path id="Path_1399" data-name="Path 1399" d="M822.5,668.59a3.62,3.62,0,1,1,3.661,3.579A3.619,3.619,0,0,1,822.5,668.59Z" transform="translate(-756.265 -599.684)" fill="#2680eb" stroke="#ced4d9" stroke-width="0.25"/>
        </g>
      </g>
      <g id="Group_4387" data-name="Group 4387" transform="translate(209.351)">
        <path id="Path_1400" data-name="Path 1400" d="M1145.78,472.692l9.435-16.3,18.838.022,9.4,16.324-9.435,16.3" transform="translate(-1114.1 -350.89)" fill="none" stroke="#ced4d9" stroke-width="0.25"/>
        <path id="Path_1401" data-name="Path 1401" d="M1226.485,458.607l-18.838-.022-9.4-16.323,9.44-16.3,18.832.022,9.4,16.324Z" transform="translate(-1138.2 -336.913)" fill="none" stroke="#ced4d9" stroke-width="0.25"/>
        <path id="Path_1402" data-name="Path 1402" d="M1174.265,428.377l-18.832-.022-9.4-16.324,9.44-16.3,18.832.022,9.4,16.324Z" transform="translate(-1114.215 -323.028)" fill="none" stroke="#ced4d9" stroke-width="0.25"/>
        <path id="Path_1403" data-name="Path 1403" d="M1094.07,321.152l9.435-16.3,18.838.022,9.4,16.324-9.435,16.3" transform="translate(-1090.349 -281.287)" fill="none" stroke="#ced4d9" stroke-width="0.25"/>
        <path id="Path_1404" data-name="Path 1404" d="M1226.745,397.957l-18.838-.022-9.4-16.324,9.435-16.3,18.838.022,9.4,16.324Z" transform="translate(-1138.319 -309.056)" fill="none" stroke="#ced4d9" stroke-width="0.25"/>
        <path id="Path_1405" data-name="Path 1405" d="M1260.127,428.165l-9.4-16.323,9.435-16.3,18.838.022,9.4,16.324" transform="translate(-1162.305 -322.941)" fill="none" stroke="#ced4d9" stroke-width="0.25"/>
        <path id="Path_1406" data-name="Path 1406" d="M1226.805,337.632l-18.838-.022-9.4-16.324,9.435-16.3,18.838.022,9.4,16.324Z" transform="translate(-1138.347 -281.351)" fill="none" stroke="#ced4d9" stroke-width="0.25"/>
        <path id="Path_1407" data-name="Path 1407" d="M1236.43,268.521l-9.441,16.3-18.832-.022-9.4-16.323,4.169-7.2" transform="translate(-1138.434 -261.27)" fill="none" stroke="#ced4d9" stroke-width="0.25"/>
        <path id="Path_1408" data-name="Path 1408" d="M1279.2,307.327l-18.832-.027-9.4-16.324,9.441-16.3,18.832.022" transform="translate(-1162.415 -267.429)" fill="none" stroke="#ced4d9" stroke-width="0.25"/>
        <path id="Path_1409" data-name="Path 1409" d="M1174.623,274.8l9.4,16.324-9.435,16.3-18.838-.022-9.4-16.324" transform="translate(-1114.362 -267.484)" fill="none" stroke="#ced4d9" stroke-width="0.25"/>
        <path id="Path_1410" data-name="Path 1410" d="M1301.1,389.656a3.621,3.621,0,1,1-4.947,1.325A3.622,3.622,0,0,1,1301.1,389.656Z" transform="translate(-1182.945 -320.015)" fill="#fff" stroke="#ced4d9" stroke-width="0.25"/>
        <path id="Path_1411" data-name="Path 1411" d="M1319.124,419.576a3.621,3.621,0,1,1-4.947,1.319A3.622,3.622,0,0,1,1319.124,419.576Z" transform="translate(-1191.222 -333.757)" fill="#fff" stroke="#ced4d9" stroke-width="0.25"/>
        <path id="Path_1412" data-name="Path 1412" d="M1249.248,359.636a3.617,3.617,0,1,1-4.942,1.314A3.617,3.617,0,0,1,1249.248,359.636Z" transform="translate(-1159.13 -306.226)" fill="#fff" stroke="#ced4d9" stroke-width="0.25"/>
        <path id="Path_1413" data-name="Path 1413" d="M1249.273,419.8a3.621,3.621,0,1,1-4.947,1.325A3.622,3.622,0,0,1,1249.273,419.8Z" transform="translate(-1159.139 -333.859)" fill="#fff" stroke="#ced4d9" stroke-width="0.25"/>
        <path id="Path_1414" data-name="Path 1414" d="M1266.473,449.456a3.621,3.621,0,1,1-4.947,1.319A3.622,3.622,0,0,1,1266.473,449.456Z" transform="translate(-1167.039 -347.481)" fill="#fff" stroke="#ced4d9" stroke-width="0.25"/>
        <path id="Path_1415" data-name="Path 1415" d="M1214.263,419.226a3.621,3.621,0,1,1-4.947,1.325A3.622,3.622,0,0,1,1214.263,419.226Z" transform="translate(-1143.059 -333.597)" fill="#fff" stroke="#ced4d9" stroke-width="0.25"/>
        <path id="Path_1416" data-name="Path 1416" d="M1266.9,389.346a3.618,3.618,0,1,1-4.947,1.319A3.617,3.617,0,0,1,1266.9,389.346Z" transform="translate(-1167.237 -319.873)" fill="#fff" stroke="#ced4d9" stroke-width="0.25"/>
        <path id="Path_1417" data-name="Path 1417" d="M1249.023,480.454a3.621,3.621,0,1,1-4.947,1.319A3.622,3.622,0,0,1,1249.023,480.454Z" transform="translate(-1159.025 -361.718)" fill="#fff" stroke="#ced4d9" stroke-width="0.25"/>
        <path id="Path_1418" data-name="Path 1418" d="M1196.733,510.564a3.621,3.621,0,1,1-4.947,1.325A3.622,3.622,0,0,1,1196.733,510.564Z" transform="translate(-1135.007 -375.548)" fill="#fff" stroke="#ced4d9" stroke-width="0.25"/>
        <path id="Path_1419" data-name="Path 1419" d="M1144.514,480.326a3.621,3.621,0,1,1-4.947,1.325A3.622,3.622,0,0,1,1144.514,480.326Z" transform="translate(-1111.022 -361.66)" fill="#fff" stroke="#ced4d9" stroke-width="0.25"/>
        <path id="Path_1420" data-name="Path 1420" d="M1197.063,389.566a3.621,3.621,0,1,1-4.947,1.319A3.622,3.622,0,0,1,1197.063,389.566Z" transform="translate(-1135.159 -319.974)" fill="#fff" stroke="#ced4d9" stroke-width="0.25"/>
        <path id="Path_1421" data-name="Path 1421" d="M1162.473,328.886a3.618,3.618,0,1,1-4.947,1.314A3.617,3.617,0,0,1,1162.473,328.886Z" transform="translate(-1119.272 -292.103)" fill="#fff" stroke="#ced4d9" stroke-width="0.25"/>
        <path id="Path_1422" data-name="Path 1422" d="M1110.254,298.656a3.618,3.618,0,1,1-4.947,1.314A3.617,3.617,0,0,1,1110.254,298.656Z" transform="translate(-1095.286 -278.218)" fill="#fff" stroke="#ced4d9" stroke-width="0.25"/>
        <path id="Path_1423" data-name="Path 1423" d="M1162.408,389.206a3.619,3.619,0,1,1-4.942,1.319A3.622,3.622,0,0,1,1162.408,389.206Z" transform="translate(-1119.244 -319.808)" fill="#fff" stroke="#ced4d9" stroke-width="0.25"/>
        <path id="Path_1424" data-name="Path 1424" d="M1144.588,419.994a3.619,3.619,0,1,1-4.942,1.319A3.622,3.622,0,0,1,1144.588,419.994Z" transform="translate(-1111.059 -333.948)" fill="#fff" stroke="#ced4d9" stroke-width="0.25"/>
        <path id="Path_1425" data-name="Path 1425" d="M1162.153,449.866a3.621,3.621,0,1,1-4.947,1.319A3.622,3.622,0,0,1,1162.153,449.866Z" transform="translate(-1119.125 -347.67)" fill="#fff" stroke="#ced4d9" stroke-width="0.25"/>
        <path id="Path_1426" data-name="Path 1426" d="M1145.094,298.684a3.621,3.621,0,1,1-4.947,1.319A3.622,3.622,0,0,1,1145.094,298.684Z" transform="translate(-1111.289 -278.23)" fill="#fff" stroke="#ced4d9" stroke-width="0.25"/>
        <path id="Path_1427" data-name="Path 1427" d="M1196.8,450.226a3.621,3.621,0,1,1-4.947,1.319A3.622,3.622,0,0,1,1196.8,450.226Z" transform="translate(-1135.04 -347.835)" fill="#fff" stroke="#ced4d9" stroke-width="0.25"/>
        <path id="Path_1428" data-name="Path 1428" d="M1214.378,480.1a3.619,3.619,0,1,1-4.942,1.319A3.622,3.622,0,0,1,1214.378,480.1Z" transform="translate(-1143.114 -361.555)" fill="#fff" stroke="#ced4d9" stroke-width="0.25"/>
        <path id="Path_1429" data-name="Path 1429" d="M1267.094,328.806a3.621,3.621,0,1,1-4.947,1.319A3.622,3.622,0,0,1,1267.094,328.806Z" transform="translate(-1167.324 -292.066)" fill="#fff" stroke="#ced4d9" stroke-width="0.25"/>
        <path id="Path_1430" data-name="Path 1430" d="M1197.313,328.914a3.621,3.621,0,1,1-4.947,1.319A3.622,3.622,0,0,1,1197.313,328.914Z" transform="translate(-1135.274 -292.115)" fill="#fff" stroke="#ced4d9" stroke-width="0.25"/>
        <path id="Path_1431" data-name="Path 1431" d="M1214.878,298.576a3.619,3.619,0,1,1-4.942,1.319A3.622,3.622,0,0,1,1214.878,298.576Z" transform="translate(-1143.344 -278.181)" fill="#fff" stroke="#ced4d9" stroke-width="0.25"/>
        <path id="Path_1432" data-name="Path 1432" d="M1197.374,268.586a3.621,3.621,0,1,1-4.947,1.319A3.622,3.622,0,0,1,1197.374,268.586Z" transform="translate(-1135.302 -264.407)" fill="#fff" stroke="#ced4d9" stroke-width="0.25"/>
        <path id="Path_1433" data-name="Path 1433" d="M1145.023,359.016a3.621,3.621,0,1,1-4.947,1.319A3.622,3.622,0,0,1,1145.023,359.016Z" transform="translate(-1111.257 -305.942)" fill="#fff" stroke="#ced4d9" stroke-width="0.25"/>
        <path id="Path_1434" data-name="Path 1434" d="M1092.623,329.106a3.621,3.621,0,1,1-4.947,1.319A3.622,3.622,0,0,1,1092.623,329.106Z" transform="translate(-1087.189 -292.204)" fill="#fff" stroke="#ced4d9" stroke-width="0.25"/>
        <path id="Path_1435" data-name="Path 1435" d="M1249.593,298.816a3.621,3.621,0,1,1-4.947,1.319A3.622,3.622,0,0,1,1249.593,298.816Z" transform="translate(-1159.286 -278.292)" fill="#fff" stroke="#ced4d9" stroke-width="0.25"/>
        <path id="Path_1436" data-name="Path 1436" d="M1267.354,268.144a3.621,3.621,0,1,1-4.947,1.325A3.622,3.622,0,0,1,1267.354,268.144Z" transform="translate(-1167.444 -264.203)" fill="#fff" stroke="#ced4d9" stroke-width="0.25"/>
        <path id="Path_1437" data-name="Path 1437" d="M1214.683,359.116a3.618,3.618,0,1,1-4.947,1.314A3.617,3.617,0,0,1,1214.683,359.116Z" transform="translate(-1143.252 -305.988)" fill="#fff" stroke="#ced4d9" stroke-width="0.25"/>
      </g>
      <g id="Group_4388" data-name="Group 4388" transform="translate(321.902)">
        <path id="Path_1438" data-name="Path 1438" d="M1348,284.833l-9.522-16.253,4.158-7.31" transform="translate(-1315.16 -261.27)" fill="none" stroke="#ced4d9" stroke-width="0.25"/>
        <path id="Path_1439" data-name="Path 1439" d="M1303.41,274.914l18.832-.124,9.527,16.253-9.311,16.372-18.838.124" transform="translate(-1299.052 -267.48)" fill="none" stroke="#ced4d9" stroke-width="0.25"/>
        <path id="Path_1440" data-name="Path 1440" d="M1318.54,268.58l-18.832.124-4.358-7.435" transform="translate(-1295.35 -261.27)" fill="none" stroke="#ced4d9" stroke-width="0.25"/>
        <path id="Path_1441" data-name="Path 1441" d="M1338.87,321.149l9.311-16.372,12.614-.087" transform="translate(-1315.339 -281.213)" fill="none" stroke="#ced4d9" stroke-width="0.25"/>
        <path id="Path_1442" data-name="Path 1442" d="M1349.17,301.794a3.62,3.62,0,1,1,3.644,3.6A3.622,3.622,0,0,1,1349.17,301.794Z" transform="translate(-1320.07 -278.209)" fill="#fff" stroke="#ced4d9" stroke-width="0.25"/>
        <path id="Path_1443" data-name="Path 1443" d="M1332.18,332.074a3.62,3.62,0,1,1,3.644,3.6A3.622,3.622,0,0,1,1332.18,332.074Z" transform="translate(-1312.266 -292.117)" fill="#fff" stroke="#ced4d9" stroke-width="0.25"/>
        <path id="Path_1444" data-name="Path 1444" d="M1296.73,332.3a3.62,3.62,0,1,1,3.644,3.6A3.622,3.622,0,0,1,1296.73,332.3Z" transform="translate(-1295.984 -292.223)" fill="#fff" stroke="#ced4d9" stroke-width="0.25"/>
        <path id="Path_1445" data-name="Path 1445" d="M1331.78,271.744a3.62,3.62,0,1,1,3.644,3.59A3.622,3.622,0,0,1,1331.78,271.744Z" transform="translate(-1312.083 -264.407)" fill="#fff" stroke="#ced4d9" stroke-width="0.25"/>
        <path id="Path_1446" data-name="Path 1446" d="M1296.34,271.974a3.62,3.62,0,1,1,3.644,3.6A3.622,3.622,0,0,1,1296.34,271.974Z" transform="translate(-1295.805 -264.513)" fill="#fff" stroke="#ced4d9" stroke-width="0.25"/>
      </g>
      <g id="Group_4389" data-name="Group 4389" transform="translate(171.205 118.125)">
        <path id="Path_1447" data-name="Path 1447" d="M1132.49,680.1l6.84-11.825,18.838.022,6.8,11.8" transform="translate(-1069.85 -566.337)" fill="none" stroke="#ced4d9" stroke-width="0.25"/>
        <path id="Path_1448" data-name="Path 1448" d="M1082.3,666.22l-6.834-11.868,9.435-16.3,18.838.022,9.4,16.324" transform="translate(-1043.661 -552.452)" fill="none" stroke="#ced4d9" stroke-width="0.25"/>
        <path id="Path_1449" data-name="Path 1449" d="M1023.51,563.466l9.435-16.3,18.838.022,9.4,16.323-9.435,16.3" transform="translate(-1019.795 -510.711)" fill="none" stroke="#ced4d9" stroke-width="0.25"/>
        <path id="Path_1450" data-name="Path 1450" d="M1156.175,640.277l-18.832-.027-9.4-16.318,9.441-16.3,18.832.022,9.4,16.324Z" transform="translate(-1067.76 -538.48)" fill="none" stroke="#ced4d9" stroke-width="0.25"/>
        <path id="Path_1451" data-name="Path 1451" d="M1180.16,654.162l9.441-16.3,18.832.022,9.4,16.324" transform="translate(-1091.745 -552.365)" fill="none" stroke="#ced4d9" stroke-width="0.25"/>
        <path id="Path_1452" data-name="Path 1452" d="M1156.24,579.947l-18.832-.022-9.4-16.323,9.435-16.3,18.838.022,9.4,16.324Z" transform="translate(-1067.792 -510.77)" fill="none" stroke="#ced4d9" stroke-width="0.25"/>
        <path id="Path_1453" data-name="Path 1453" d="M1165.865,503.105l-9.441,16.3-18.832-.022-9.4-16.324,9.441-16.3" transform="translate(-1067.875 -482.964)" fill="none" stroke="#ced4d9" stroke-width="0.25"/>
        <path id="Path_1454" data-name="Path 1454" d="M1208.645,549.637l-18.838-.022-9.4-16.324,9.441-16.3" transform="translate(-1091.86 -496.849)" fill="none" stroke="#ced4d9" stroke-width="0.25"/>
        <path id="Path_1455" data-name="Path 1455" d="M1104.063,517.11l9.4,16.323-9.435,16.3-18.838-.022-9.4-16.324" transform="translate(-1043.807 -496.904)" fill="none" stroke="#ced4d9" stroke-width="0.25"/>
        <path id="Path_1456" data-name="Path 1456" d="M1230.533,631.976a3.618,3.618,0,1,1-4.947,1.314A3.617,3.617,0,0,1,1230.533,631.976Z" transform="translate(-1112.386 -549.439)" fill="#f76d74" stroke="#ced4d9" stroke-width="0.25"/>
        <path id="Path_1457" data-name="Path 1457" d="M1248.563,661.9a3.621,3.621,0,1,1-4.947,1.319A3.622,3.622,0,0,1,1248.563,661.9Z" transform="translate(-1120.667 -563.181)" fill="#f76d74" stroke="#ced4d9" stroke-width="0.25"/>
        <path id="Path_1458" data-name="Path 1458" d="M1231.253,571.366a3.621,3.621,0,1,1-4.947,1.325A3.622,3.622,0,0,1,1231.253,571.366Z" transform="translate(-1112.717 -521.601)" fill="#f76d74" stroke="#ced4d9" stroke-width="0.25"/>
        <path id="Path_1459" data-name="Path 1459" d="M1178.684,601.956a3.621,3.621,0,1,1-4.947,1.319A3.622,3.622,0,0,1,1178.684,601.956Z" transform="translate(-1088.571 -535.651)" fill="#f76d74" stroke="#ced4d9" stroke-width="0.25"/>
        <path id="Path_1460" data-name="Path 1460" d="M1178.713,662.116a3.618,3.618,0,1,1-4.947,1.314A3.617,3.617,0,0,1,1178.713,662.116Z" transform="translate(-1088.585 -563.282)" fill="#f76d74" stroke="#ced4d9" stroke-width="0.25"/>
        <path id="Path_1461" data-name="Path 1461" d="M1143.694,661.546a3.621,3.621,0,1,1-4.947,1.325A3.622,3.622,0,0,1,1143.694,661.546Z" transform="translate(-1072.5 -563.021)" fill="#f76d74" stroke="#ced4d9" stroke-width="0.25"/>
        <path id="Path_1462" data-name="Path 1462" d="M1196.344,631.666a3.621,3.621,0,1,1-4.947,1.319A3.622,3.622,0,0,1,1196.344,631.666Z" transform="translate(-1096.682 -549.296)" fill="#f76d74" stroke="#ced4d9" stroke-width="0.25"/>
        <path id="Path_1463" data-name="Path 1463" d="M1126.493,631.886a3.618,3.618,0,1,1-4.947,1.314A3.617,3.617,0,0,1,1126.493,631.886Z" transform="translate(-1064.6 -549.397)" fill="#f76d74" stroke="#ced4d9" stroke-width="0.25"/>
        <path id="Path_1464" data-name="Path 1464" d="M1091.9,571.206a3.621,3.621,0,1,1-4.947,1.325A3.622,3.622,0,0,1,1091.9,571.206Z" transform="translate(-1048.712 -521.527)" fill="#f76d74" stroke="#ced4d9" stroke-width="0.25"/>
        <path id="Path_1465" data-name="Path 1465" d="M1039.684,540.976a3.621,3.621,0,1,1-4.947,1.325A3.622,3.622,0,0,1,1039.684,540.976Z" transform="translate(-1024.728 -507.642)" fill="#f76d74" stroke="#ced4d9" stroke-width="0.25"/>
        <path id="Path_1466" data-name="Path 1466" d="M1091.843,631.526a3.621,3.621,0,1,1-4.947,1.319A3.622,3.622,0,0,1,1091.843,631.526Z" transform="translate(-1048.685 -549.232)" fill="#f76d74" stroke="#ced4d9" stroke-width="0.25"/>
        <path id="Path_1467" data-name="Path 1467" d="M1074.023,662.314a3.621,3.621,0,1,1-4.947,1.319A3.622,3.622,0,0,1,1074.023,662.314Z" transform="translate(-1040.5 -563.372)" fill="#f76d74" stroke="#ced4d9" stroke-width="0.25"/>
        <path id="Path_1468" data-name="Path 1468" d="M1074.534,541a3.621,3.621,0,1,1-4.947,1.319A3.622,3.622,0,0,1,1074.534,541Z" transform="translate(-1040.734 -507.651)" fill="#f76d74" stroke="#ced4d9" stroke-width="0.25"/>
        <path id="Path_1469" data-name="Path 1469" d="M1196.533,571.126a3.621,3.621,0,1,1-4.947,1.319A3.622,3.622,0,0,1,1196.533,571.126Z" transform="translate(-1096.77 -521.49)" fill="#f76d74" stroke="#ced4d9" stroke-width="0.25"/>
        <path id="Path_1470" data-name="Path 1470" d="M1126.753,571.233a3.618,3.618,0,1,1-4.947,1.314A3.617,3.617,0,0,1,1126.753,571.233Z" transform="translate(-1064.719 -521.537)" fill="#f76d74" stroke="#ced4d9" stroke-width="0.25"/>
        <path id="Path_1471" data-name="Path 1471" d="M1144.318,540.9a3.619,3.619,0,1,1-4.942,1.319A3.622,3.622,0,0,1,1144.318,540.9Z" transform="translate(-1072.789 -507.605)" fill="#f76d74" stroke="#ced4d9" stroke-width="0.25"/>
        <path id="Path_1472" data-name="Path 1472" d="M1126.813,510.906a3.621,3.621,0,1,1-4.947,1.319A3.622,3.622,0,0,1,1126.813,510.906Z" transform="translate(-1064.747 -493.831)" fill="#f76d74" stroke="#ced4d9" stroke-width="0.25"/>
        <path id="Path_1473" data-name="Path 1473" d="M1144.573,480.226a3.621,3.621,0,1,1-4.948,1.319A3.622,3.622,0,0,1,1144.573,480.226Z" transform="translate(-1072.904 -479.739)" fill="#f76d74" stroke="#ced4d9" stroke-width="0.25"/>
        <path id="Path_1474" data-name="Path 1474" d="M1074.463,601.336a3.621,3.621,0,1,1-4.947,1.319A3.622,3.622,0,0,1,1074.463,601.336Z" transform="translate(-1040.702 -535.366)" fill="#f76d74" stroke="#ced4d9" stroke-width="0.25"/>
        <path id="Path_1475" data-name="Path 1475" d="M1022.068,571.426a3.619,3.619,0,1,1-4.942,1.319A3.622,3.622,0,0,1,1022.068,571.426Z" transform="translate(-1016.639 -521.628)" fill="#f76d74" stroke="#ced4d9" stroke-width="0.25"/>
        <path id="Path_1476" data-name="Path 1476" d="M1179.033,541.136a3.618,3.618,0,1,1-4.947,1.314A3.617,3.617,0,0,1,1179.033,541.136Z" transform="translate(-1088.732 -507.715)" fill="#f76d74" stroke="#ced4d9" stroke-width="0.25"/>
        <path id="Path_1477" data-name="Path 1477" d="M1196.793,510.456a3.621,3.621,0,1,1-4.947,1.319A3.622,3.622,0,0,1,1196.793,510.456Z" transform="translate(-1096.889 -493.624)" fill="#f76d74" stroke="#ced4d9" stroke-width="0.25"/>
        <path id="Path_1478" data-name="Path 1478" d="M1144.123,601.436a3.621,3.621,0,1,1-4.947,1.319A3.622,3.622,0,0,1,1144.123,601.436Z" transform="translate(-1072.697 -535.412)" fill="#f76d74" stroke="#ced4d9" stroke-width="0.25"/>
      </g>
    </g>
    <g id="Group_4397" data-name="Group 4397" transform="translate(772.486 255.72)" opacity="0.35">
      <g id="Group_4393" data-name="Group 4393" transform="translate(223.113)">
        <g id="Group_4391" data-name="Group 4391">
          <path id="Path_1479" data-name="Path 1479" d="M1272.054,261.27l-.043,8.775-10.533,6-10.468-6.115" transform="translate(-1248.681 -258.269)" fill="none" stroke="#ced4d9" stroke-width="0.25"/>
          <path id="Path_1480" data-name="Path 1480" d="M1270.46,295.744l.059-12.122,10.533-6,10.468,6.115-.065,12.122-10.533,6.007Z" transform="translate(-1257.615 -265.779)" fill="none" stroke="#ced4d9" stroke-width="0.25"/>
          <path id="Path_1481" data-name="Path 1481" d="M1311.094,261.27l-.049,8.949-10.527,6.007-10.468-6.115" transform="translate(-1266.613 -258.269)" fill="none" stroke="#ced4d9" stroke-width="0.25"/>
          <path id="Path_1482" data-name="Path 1482" d="M1368.04,255.72" transform="translate(-1302.434 -255.72)" fill="none" stroke="#ced4d9" stroke-width="0.25"/>
          <path id="Path_1483" data-name="Path 1483" d="M1309.49,296.069l.065-12.122,10.533-6.007,10.462,6.115-.059,12.122-10.533,6.007Z" transform="translate(-1275.541 -265.926)" fill="none" stroke="#ced4d9" stroke-width="0.25"/>
          <path id="Path_1484" data-name="Path 1484" d="M1290.02,317.472l10.527-6,10.468,6.115-.065,12.122-10.527,6.007" transform="translate(-1266.599 -281.326)" fill="none" stroke="#ced4d9" stroke-width="0.25"/>
          <path id="Path_1485" data-name="Path 1485" d="M1365.135,298.762l-6.353,3.623-10.462-6.115.06-12.122,10.533-6.007" transform="translate(-1293.376 -266.018)" fill="none" stroke="#ced4d9" stroke-width="0.25"/>
          <line id="Line_415" data-name="Line 415" y1="12.122" x2="0.065" transform="translate(65.412 36.405)" fill="none" stroke="#ced4d9" stroke-width="0.25"/>
          <path id="Path_1486" data-name="Path 1486" d="M1374.133,274.03l-6.223-3.639.049-9.122" transform="translate(-1302.374 -258.269)" fill="none" stroke="#ced4d9" stroke-width="0.25"/>
          <path id="Path_1487" data-name="Path 1487" d="M1328.583,343.975a2.329,2.329,0,1,1-.838-3.185A2.331,2.331,0,0,1,1328.583,343.975Z" transform="translate(-1282.318 -294.648)" fill="#ce42c3" stroke="#ced4d9" stroke-width="0.25"/>
          <path id="Path_1488" data-name="Path 1488" d="M1309.273,355.5a2.329,2.329,0,1,1-.838-3.185A2.331,2.331,0,0,1,1309.273,355.5Z" transform="translate(-1273.448 -299.939)" fill="#ce42c3" stroke="#ced4d9" stroke-width="0.25"/>
          <path id="Path_1489" data-name="Path 1489" d="M1367.583,344.6a2.329,2.329,0,1,1-.838-3.185A2.331,2.331,0,0,1,1367.583,344.6Z" transform="translate(-1300.23 -294.932)" fill="#ce42c3" stroke="#ced4d9" stroke-width="0.25"/>
          <path id="Path_1490" data-name="Path 1490" d="M1348.043,310.685a2.329,2.329,0,1,1-.838-3.185A2.331,2.331,0,0,1,1348.043,310.685Z" transform="translate(-1291.255 -279.357)" fill="#ce42c3" stroke="#ced4d9" stroke-width="0.25"/>
          <path id="Path_1491" data-name="Path 1491" d="M1309.323,310.545a2.329,2.329,0,1,1-.838-3.185A2.331,2.331,0,0,1,1309.323,310.545Z" transform="translate(-1273.471 -279.293)" fill="#ce42c3" stroke="#ced4d9" stroke-width="0.25"/>
          <path id="Path_1492" data-name="Path 1492" d="M1290.183,321.535a2.329,2.329,0,1,1-.838-3.185A2.331,2.331,0,0,1,1290.183,321.535Z" transform="translate(-1264.68 -284.341)" fill="#ce42c3" stroke="#ced4d9" stroke-width="0.25"/>
          <path id="Path_1493" data-name="Path 1493" d="M1309.783,288.015a2.329,2.329,0,1,1-.838-3.185A2.331,2.331,0,0,1,1309.783,288.015Z" transform="translate(-1273.682 -268.945)" fill="#ce42c3" stroke="#ced4d9" stroke-width="0.25"/>
          <path id="Path_1494" data-name="Path 1494" d="M1328.873,321.976a2.329,2.329,0,1,1-.838-3.179A2.331,2.331,0,0,1,1328.873,321.976Z" transform="translate(-1282.451 -284.544)" fill="#ce42c3" stroke="#ced4d9" stroke-width="0.25"/>
          <path id="Path_1495" data-name="Path 1495" d="M1270.283,310.225a2.329,2.329,0,1,1-.838-3.185A2.331,2.331,0,0,1,1270.283,310.225Z" transform="translate(-1255.54 -279.146)" fill="#ce42c3" stroke="#ced4d9" stroke-width="0.25"/>
          <path id="Path_1496" data-name="Path 1496" d="M1251.043,276.486a2.329,2.329,0,1,1-.838-3.179A2.331,2.331,0,0,1,1251.043,276.486Z" transform="translate(-1246.703 -263.65)" fill="#ce42c3" stroke="#ced4d9" stroke-width="0.25"/>
          <path id="Path_1497" data-name="Path 1497" d="M1328.913,277.015a2.329,2.329,0,1,1-.838-3.185A2.331,2.331,0,0,1,1328.913,277.015Z" transform="translate(-1282.469 -263.892)" fill="#ce42c3" stroke="#ced4d9" stroke-width="0.25"/>
          <path id="Path_1498" data-name="Path 1498" d="M1289.883,276.7a2.329,2.329,0,1,1-.838-3.185A2.331,2.331,0,0,1,1289.883,276.7Z" transform="translate(-1264.542 -263.745)" fill="#ce42c3" stroke="#ced4d9" stroke-width="0.25"/>
          <path id="Path_1499" data-name="Path 1499" d="M1270.6,287.925a2.329,2.329,0,1,1-.838-3.185A2.331,2.331,0,0,1,1270.6,287.925Z" transform="translate(-1255.687 -268.903)" fill="#ce42c3" stroke="#ced4d9" stroke-width="0.25"/>
          <path id="Path_1500" data-name="Path 1500" d="M1367.833,322.255a2.329,2.329,0,1,1-.838-3.185A2.331,2.331,0,0,1,1367.833,322.255Z" transform="translate(-1300.345 -284.671)" fill="#ce42c3" stroke="#ced4d9" stroke-width="0.25"/>
          <path id="Path_1501" data-name="Path 1501" d="M1367.953,277.345a2.329,2.329,0,1,1-.838-3.185A2.331,2.331,0,0,1,1367.953,277.345Z" transform="translate(-1300.4 -264.044)" fill="#ce42c3" stroke="#ced4d9" stroke-width="0.25"/>
          <path id="Path_1502" data-name="Path 1502" d="M1348.463,288.445a2.329,2.329,0,1,1-.838-3.185A2.331,2.331,0,0,1,1348.463,288.445Z" transform="translate(-1291.448 -269.142)" fill="#ce42c3" stroke="#ced4d9" stroke-width="0.25"/>
        </g>
        <g id="Group_4392" data-name="Group 4392" transform="translate(20.746 64.128)">
          <path id="Path_1503" data-name="Path 1503" d="M1299.972,378.63l10.468,6.115-.065,12.122-10.527,6.007-10.468-6.115" transform="translate(-1287.051 -376.301)" fill="none" stroke="#ced4d9" stroke-width="0.25"/>
          <path id="Path_1504" data-name="Path 1504" d="M1308.82,430.609l.065-12.122,10.527-6.007,10.468,6.115-.065,12.122-10.527,6.007Z" transform="translate(-1295.98 -391.849)" fill="none" stroke="#ced4d9" stroke-width="0.25"/>
          <path id="Path_1505" data-name="Path 1505" d="M1328.41,397.079l.065-12.122,10.533-6.007,10.468,6.121-.065,12.122-10.533,6Z" transform="translate(-1304.978 -376.448)" fill="none" stroke="#ced4d9" stroke-width="0.25"/>
          <path id="Path_1506" data-name="Path 1506" d="M1364.924,433.286l-6.6,3.769-10.462-6.121.065-12.122,10.527-6,6.478,3.785" transform="translate(-1313.911 -392)" fill="none" stroke="#ced4d9" stroke-width="0.25"/>
          <path id="Path_1507" data-name="Path 1507" d="M1328.38,452.337l10.533-6.007,10.462,6.121-.059,12.122-10.533,6" transform="translate(-1304.964 -407.396)" fill="none" stroke="#ced4d9" stroke-width="0.25"/>
          <path id="Path_1508" data-name="Path 1508" d="M1366.953,478.845a2.329,2.329,0,1,1-.838-3.185A2.331,2.331,0,0,1,1366.953,478.845Z" transform="translate(-1320.688 -420.722)" fill="#ce42c3" stroke="#ced4d9" stroke-width="0.25"/>
          <path id="Path_1509" data-name="Path 1509" d="M1347.643,490.365a2.329,2.329,0,1,1-.838-3.185A2.331,2.331,0,0,1,1347.643,490.365Z" transform="translate(-1311.818 -426.013)" fill="#ce42c3" stroke="#ced4d9" stroke-width="0.25"/>
          <path id="Path_1510" data-name="Path 1510" d="M1347.683,445.415a2.329,2.329,0,1,1-.838-3.185A2.331,2.331,0,0,1,1347.683,445.415Z" transform="translate(-1311.837 -405.367)" fill="#ce42c3" stroke="#ced4d9" stroke-width="0.25"/>
          <path id="Path_1511" data-name="Path 1511" d="M1328.553,456.405a2.329,2.329,0,1,1-.838-3.185A2.331,2.331,0,0,1,1328.553,456.405Z" transform="translate(-1303.05 -410.415)" fill="#ce42c3" stroke="#ced4d9" stroke-width="0.25"/>
          <path id="Path_1512" data-name="Path 1512" d="M1348.143,422.875a2.329,2.329,0,1,1-.838-3.185A2.331,2.331,0,0,1,1348.143,422.875Z" transform="translate(-1312.048 -395.015)" fill="#ce42c3" stroke="#ced4d9" stroke-width="0.25"/>
          <path id="Path_1513" data-name="Path 1513" d="M1367.233,456.835a2.329,2.329,0,1,1-.838-3.185A2.331,2.331,0,0,1,1367.233,456.835Z" transform="translate(-1320.816 -410.613)" fill="#ce42c3" stroke="#ced4d9" stroke-width="0.25"/>
          <path id="Path_1514" data-name="Path 1514" d="M1308.653,445.085a2.329,2.329,0,1,1-.838-3.185A2.331,2.331,0,0,1,1308.653,445.085Z" transform="translate(-1293.91 -405.216)" fill="#ce42c3" stroke="#ced4d9" stroke-width="0.25"/>
          <path id="Path_1515" data-name="Path 1515" d="M1289.413,411.355a2.329,2.329,0,1,1-.838-3.185A2.331,2.331,0,0,1,1289.413,411.355Z" transform="translate(-1285.073 -389.723)" fill="#ce42c3" stroke="#ced4d9" stroke-width="0.25"/>
          <path id="Path_1516" data-name="Path 1516" d="M1309,377.825a2.329,2.329,0,1,1-.838-3.185A2.331,2.331,0,0,1,1309,377.825Z" transform="translate(-1294.071 -374.323)" fill="#ce42c3" stroke="#ced4d9" stroke-width="0.25"/>
          <path id="Path_1517" data-name="Path 1517" d="M1367.283,411.885a2.329,2.329,0,1,1-.838-3.185A2.331,2.331,0,0,1,1367.283,411.885Z" transform="translate(-1320.839 -389.967)" fill="#ce42c3" stroke="#ced4d9" stroke-width="0.25"/>
          <path id="Path_1518" data-name="Path 1518" d="M1367.6,389.585a2.329,2.329,0,1,1-.838-3.185A2.331,2.331,0,0,1,1367.6,389.585Z" transform="translate(-1320.986 -379.724)" fill="#ce42c3" stroke="#ced4d9" stroke-width="0.25"/>
          <path id="Path_1519" data-name="Path 1519" d="M1347.833,378.035a2.329,2.329,0,1,1-.838-3.185A2.331,2.331,0,0,1,1347.833,378.035Z" transform="translate(-1311.905 -374.419)" fill="#ce42c3" stroke="#ced4d9" stroke-width="0.25"/>
          <path id="Path_1520" data-name="Path 1520" d="M1328.563,389.265a2.329,2.329,0,1,1-.838-3.185A2.331,2.331,0,0,1,1328.563,389.265Z" transform="translate(-1303.055 -379.577)" fill="#ce42c3" stroke="#ced4d9" stroke-width="0.25"/>
          <path id="Path_1521" data-name="Path 1521" d="M1328.243,411.565a2.329,2.329,0,1,1-.838-3.185A2.331,2.331,0,0,1,1328.243,411.565Z" transform="translate(-1302.908 -389.82)" fill="#ce42c3" stroke="#ced4d9" stroke-width="0.25"/>
          <path id="Path_1522" data-name="Path 1522" d="M1308.973,422.785a2.329,2.329,0,1,1-.838-3.185A2.331,2.331,0,0,1,1308.973,422.785Z" transform="translate(-1294.057 -394.973)" fill="#ce42c3" stroke="#ced4d9" stroke-width="0.25"/>
          <path id="Path_1523" data-name="Path 1523" d="M1383.33,377.11" transform="translate(-1330.203 -375.603)" fill="#ce42c3" stroke="#ced4d9" stroke-width="0.25"/>
        </g>
      </g>
      <g id="Group_4394" data-name="Group 4394" transform="translate(84.013 68.539)">
        <path id="Path_1524" data-name="Path 1524" d="M1132.96,405.857l-10.6,5.872-10.387-6.245.216-12.122,10.6-5.872" transform="translate(-1045.719 -384.782)" fill="none" stroke="#ced4d9" stroke-width="0.25"/>
        <path id="Path_1525" data-name="Path 1525" d="M1083.755,386.91l10.387,6.245-.216,12.122-10.608,5.872L1072.93,404.9l.216-12.122Z" transform="translate(-1027.788 -384.515)" fill="none" stroke="#ced4d9" stroke-width="0.25"/>
        <path id="Path_1526" data-name="Path 1526" d="M1102.565,420.88l10.387,6.25-.216,12.117-10.6,5.872-10.392-6.245.216-12.122Z" transform="translate(-1036.427 -400.118)" fill="none" stroke="#ced4d9" stroke-width="0.25"/>
        <path id="Path_1527" data-name="Path 1527" d="M1111.33,506.617l-10.6,5.872-10.387-6.25.216-12.117,10.6-5.872" transform="translate(-1035.784 -431.061)" fill="none" stroke="#ced4d9" stroke-width="0.25"/>
        <path id="Path_1528" data-name="Path 1528" d="M1063.535,420.3l10.387,6.25-.216,12.117-10.608,5.877-10.387-6.25.216-12.122Z" transform="translate(-1018.501 -399.852)" fill="none" stroke="#ced4d9" stroke-width="0.25"/>
        <path id="Path_1529" data-name="Path 1529" d="M1055.111,397.568l-.216,12.117-10.608,5.872-10.387-6.245.216-12.122" transform="translate(-1009.861 -389.237)" fill="none" stroke="#ced4d9" stroke-width="0.25"/>
        <path id="Path_1530" data-name="Path 1530" d="M1043.529,453.57l10.387,6.25-.216,12.122-10.6,5.872-10.387-6.25.216-12.117Z" transform="translate(-1009.315 -415.133)" fill="none" stroke="#ced4d9" stroke-width="0.25"/>
        <path id="Path_1531" data-name="Path 1531" d="M1012.96,492.8l10.608-5.872,10.387,6.245-.216,12.122-10.6,5.872" transform="translate(-1000.243 -430.455)" fill="none" stroke="#ced4d9" stroke-width="0.25"/>
        <path id="Path_1532" data-name="Path 1532" d="M1004.569,452.95l10.392,6.25-.216,12.122-10.608,5.872-10.387-6.25" transform="translate(-991.42 -414.848)" fill="none" stroke="#ced4d9" stroke-width="0.25"/>
        <path id="Path_1533" data-name="Path 1533" d="M1051.52,505.544l.216-12.122,10.6-5.872,10.392,6.245-.216,12.122" transform="translate(-1017.954 -430.74)" fill="none" stroke="#ced4d9" stroke-width="0.25"/>
        <path id="Path_1534" data-name="Path 1534" d="M1030.332,418.821a2.328,2.328,0,1,1,3.163.9A2.335,2.335,0,0,1,1030.332,418.821Z" transform="translate(-1008.089 -397.583)" fill="#b318f1" stroke="#ced4d9" stroke-width="0.25"/>
        <path id="Path_1535" data-name="Path 1535" d="M1030.292,396.331a2.331,2.331,0,1,1,3.168.9A2.335,2.335,0,0,1,1030.292,396.331Z" transform="translate(-1008.07 -387.253)" fill="#b318f1" stroke="#ced4d9" stroke-width="0.25"/>
        <path id="Path_1536" data-name="Path 1536" d="M1009.882,452.031a2.331,2.331,0,1,1,3.168.908A2.335,2.335,0,0,1,1009.882,452.031Z" transform="translate(-998.696 -412.837)" fill="#b318f1" stroke="#ced4d9" stroke-width="0.25"/>
        <path id="Path_1537" data-name="Path 1537" d="M1049.022,452.555a2.327,2.327,0,1,1,3.163.914A2.327,2.327,0,0,1,1049.022,452.555Z" transform="translate(-1016.673 -413.08)" fill="#b318f1" stroke="#ced4d9" stroke-width="0.25"/>
        <path id="Path_1538" data-name="Path 1538" d="M1068.912,419.335a2.329,2.329,0,1,1,3.169.908A2.327,2.327,0,0,1,1068.912,419.335Z" transform="translate(-1025.809 -397.822)" fill="#b318f1" stroke="#ced4d9" stroke-width="0.25"/>
        <path id="Path_1539" data-name="Path 1539" d="M1069.242,397.271a2.328,2.328,0,1,1,3.163.908A2.335,2.335,0,0,1,1069.242,397.271Z" transform="translate(-1025.96 -387.685)" fill="#b318f1" stroke="#ced4d9" stroke-width="0.25"/>
        <path id="Path_1540" data-name="Path 1540" d="M1088.052,431.241a2.328,2.328,0,1,1,3.163.9A2.335,2.335,0,0,1,1088.052,431.241Z" transform="translate(-1034.6 -403.288)" fill="#b318f1" stroke="#ced4d9" stroke-width="0.25"/>
        <path id="Path_1541" data-name="Path 1541" d="M1049.1,430.305a2.329,2.329,0,1,1,3.168.908A2.327,2.327,0,0,1,1049.1,430.305Z" transform="translate(-1016.71 -402.86)" fill="#b318f1" stroke="#ced4d9" stroke-width="0.25"/>
        <path id="Path_1542" data-name="Path 1542" d="M1089.132,385.941a2.328,2.328,0,1,1,3.163.908A2.335,2.335,0,0,1,1089.132,385.941Z" transform="translate(-1035.096 -382.481)" fill="#b318f1" stroke="#ced4d9" stroke-width="0.25"/>
        <path id="Path_1543" data-name="Path 1543" d="M1127.962,386.641a2.328,2.328,0,1,1,3.163.9A2.335,2.335,0,0,1,1127.962,386.641Z" transform="translate(-1052.931 -382.802)" fill="#b318f1" stroke="#ced4d9" stroke-width="0.25"/>
        <path id="Path_1544" data-name="Path 1544" d="M1146.772,420.615a2.327,2.327,0,1,1,3.163.908A2.327,2.327,0,0,1,1146.772,420.615Z" transform="translate(-1061.57 -398.41)" fill="#b318f1" stroke="#ced4d9" stroke-width="0.25"/>
        <path id="Path_1545" data-name="Path 1545" d="M1087.732,453.311a2.331,2.331,0,1,1,3.168.9A2.335,2.335,0,0,1,1087.732,453.311Z" transform="translate(-1034.453 -413.424)" fill="#b318f1" stroke="#ced4d9" stroke-width="0.25"/>
        <path id="Path_1546" data-name="Path 1546" d="M1086.732,498.255a2.329,2.329,0,1,1,3.168.914A2.327,2.327,0,0,1,1086.732,498.255Z" transform="translate(-1033.994 -434.07)" fill="#b318f1" stroke="#ced4d9" stroke-width="0.25"/>
        <path id="Path_1547" data-name="Path 1547" d="M1105.542,532.225a2.327,2.327,0,1,1,3.163.914A2.327,2.327,0,0,1,1105.542,532.225Z" transform="translate(-1042.633 -449.673)" fill="#b318f1" stroke="#ced4d9" stroke-width="0.25"/>
        <path id="Path_1548" data-name="Path 1548" d="M1106.732,464.985a2.327,2.327,0,1,1,3.163.914A2.327,2.327,0,0,1,1106.732,464.985Z" transform="translate(-1043.18 -418.789)" fill="#b318f1" stroke="#ced4d9" stroke-width="0.25"/>
        <path id="Path_1549" data-name="Path 1549" d="M1126.762,453.9a2.327,2.327,0,1,1,3.163.908A2.327,2.327,0,0,1,1126.762,453.9Z" transform="translate(-1052.38 -413.695)" fill="#b318f1" stroke="#ced4d9" stroke-width="0.25"/>
        <path id="Path_1550" data-name="Path 1550" d="M1126.952,431.585a2.327,2.327,0,1,1,3.163.914A2.327,2.327,0,0,1,1126.952,431.585Z" transform="translate(-1052.467 -403.448)" fill="#b318f1" stroke="#ced4d9" stroke-width="0.25"/>
        <path id="Path_1551" data-name="Path 1551" d="M1086.322,520.675a2.327,2.327,0,1,1,3.163.908A2.327,2.327,0,0,1,1086.322,520.675Z" transform="translate(-1033.805 -444.368)" fill="#b318f1" stroke="#ced4d9" stroke-width="0.25"/>
        <path id="Path_1552" data-name="Path 1552" d="M1107.952,419.911a2.331,2.331,0,1,1,3.168.908A2.335,2.335,0,0,1,1107.952,419.911Z" transform="translate(-1043.74 -398.084)" fill="#b318f1" stroke="#ced4d9" stroke-width="0.25"/>
        <path id="Path_1553" data-name="Path 1553" d="M1108.142,397.615a2.327,2.327,0,1,1,3.163.914A2.327,2.327,0,0,1,1108.142,397.615Z" transform="translate(-1043.827 -387.846)" fill="#b318f1" stroke="#ced4d9" stroke-width="0.25"/>
        <path id="Path_1554" data-name="Path 1554" d="M1028.962,463.661a2.328,2.328,0,1,1,3.163.908A2.335,2.335,0,0,1,1028.962,463.661Z" transform="translate(-1007.459 -418.178)" fill="#b318f1" stroke="#ced4d9" stroke-width="0.25"/>
        <path id="Path_1555" data-name="Path 1555" d="M1067.512,486.705a2.327,2.327,0,1,1,3.163.914A2.327,2.327,0,0,1,1067.512,486.705Z" transform="translate(-1025.166 -428.765)" fill="#b318f1" stroke="#ced4d9" stroke-width="0.25"/>
        <path id="Path_1556" data-name="Path 1556" d="M1047.772,497.635a2.327,2.327,0,1,1,3.163.914A2.327,2.327,0,0,1,1047.772,497.635Z" transform="translate(-1016.099 -433.786)" fill="#b318f1" stroke="#ced4d9" stroke-width="0.25"/>
        <path id="Path_1557" data-name="Path 1557" d="M1047.5,519.975a2.327,2.327,0,1,1,3.163.914A2.327,2.327,0,0,1,1047.5,519.975Z" transform="translate(-1015.975 -444.046)" fill="#b318f1" stroke="#ced4d9" stroke-width="0.25"/>
        <path id="Path_1558" data-name="Path 1558" d="M1027.542,531.021a2.331,2.331,0,1,1,3.168.908A2.335,2.335,0,0,1,1027.542,531.021Z" transform="translate(-1006.807 -449.117)" fill="#b318f1" stroke="#ced4d9" stroke-width="0.25"/>
        <path id="Path_1559" data-name="Path 1559" d="M1106.332,487.391a2.331,2.331,0,1,1,3.169.9A2.335,2.335,0,0,1,1106.332,487.391Z" transform="translate(-1042.996 -429.078)" fill="#b318f1" stroke="#ced4d9" stroke-width="0.25"/>
        <path id="Path_1560" data-name="Path 1560" d="M1125.352,521.251a2.328,2.328,0,1,1,3.163.908A2.335,2.335,0,0,1,1125.352,521.251Z" transform="translate(-1051.732 -444.63)" fill="#b318f1" stroke="#ced4d9" stroke-width="0.25"/>
        <path id="Path_1561" data-name="Path 1561" d="M1028.692,486.005a2.327,2.327,0,1,1,3.163.908A2.327,2.327,0,0,1,1028.692,486.005Z" transform="translate(-1007.335 -428.444)" fill="#b318f1" stroke="#ced4d9" stroke-width="0.25"/>
        <path id="Path_1562" data-name="Path 1562" d="M1008.732,497.055a2.329,2.329,0,1,1,3.168.908A2.327,2.327,0,0,1,1008.732,497.055Z" transform="translate(-998.168 -433.519)" fill="#b318f1" stroke="#ced4d9" stroke-width="0.25"/>
        <path id="Path_1563" data-name="Path 1563" d="M989.732,485.381a2.328,2.328,0,1,1,3.163.908A2.335,2.335,0,0,1,989.732,485.381Z" transform="translate(-989.441 -428.154)" fill="#b318f1" stroke="#ced4d9" stroke-width="0.25"/>
        <path id="Path_1564" data-name="Path 1564" d="M1067.922,464.285a2.329,2.329,0,1,1,3.168.914A2.327,2.327,0,0,1,1067.922,464.285Z" transform="translate(-1025.354 -418.468)" fill="#b318f1" stroke="#ced4d9" stroke-width="0.25"/>
      </g>
      <g id="Group_4395" data-name="Group 4395" transform="translate(0 61.266)">
        <path id="Path_1565" data-name="Path 1565" d="M849.059,405.86l10.435,6.169-.119,12.122-10.56,5.953-10.435-6.169" transform="translate(-836.044 -385.947)" fill="none" stroke="#ced4d9" stroke-width="0.25"/>
        <path id="Path_1566" data-name="Path 1566" d="M857.65,457.885l.124-12.122,10.56-5.953,10.436,6.164-.125,12.122-10.554,5.953Z" transform="translate(-844.895 -401.54)" fill="none" stroke="#ced4d9" stroke-width="0.25"/>
        <path id="Path_1567" data-name="Path 1567" d="M877.41,424.451l.124-12.122,10.56-5.958,10.435,6.169-.124,12.122-10.56,5.953Z" transform="translate(-853.971 -386.181)" fill="none" stroke="#ced4d9" stroke-width="0.25"/>
        <path id="Path_1568" data-name="Path 1568" d="M946.884,373.46l10.435,6.164-.124,12.122-10.56,5.953L936.2,391.535" transform="translate(-880.974 -371.065)" fill="none" stroke="#ced4d9" stroke-width="0.25"/>
        <path id="Path_1569" data-name="Path 1569" d="M896.69,458.4l.124-12.122,10.554-5.953,10.441,6.169-.124,12.122-10.56,5.953Z" transform="translate(-862.827 -401.774)" fill="none" stroke="#ced4d9" stroke-width="0.25"/>
        <path id="Path_1570" data-name="Path 1570" d="M877.16,479.7l10.56-5.953,10.435,6.169-.124,12.122-10.56,5.953" transform="translate(-853.856 -417.129)" fill="none" stroke="#ced4d9" stroke-width="0.25"/>
        <path id="Path_1571" data-name="Path 1571" d="M935.51,458.785l.124-12.122,10.56-5.953,10.435,6.164L956.505,459l-10.56,5.958Z" transform="translate(-880.657 -401.953)" fill="none" stroke="#ced4d9" stroke-width="0.25"/>
        <path id="Path_1572" data-name="Path 1572" d="M984.905,465.425l-10.435-6.169.124-12.122,10.56-5.953,10.435,6.164" transform="translate(-898.552 -402.169)" fill="none" stroke="#ced4d9" stroke-width="0.25"/>
        <path id="Path_1573" data-name="Path 1573" d="M954.71,492.685l.124-12.122,10.56-5.953,10.435,6.169-.124,12.122" transform="translate(-889.476 -417.524)" fill="none" stroke="#ced4d9" stroke-width="0.25"/>
        <path id="Path_1574" data-name="Path 1574" d="M976.265,425.566l-10.56,5.953-10.435-6.164.119-12.122,10.56-5.953" transform="translate(-889.733 -386.599)" fill="none" stroke="#ced4d9" stroke-width="0.25"/>
        <path id="Path_1575" data-name="Path 1575" d="M915.607,506.365a2.329,2.329,0,1,1-.822-3.19A2.329,2.329,0,0,1,915.607,506.365Z" transform="translate(-869.524 -430.495)" fill="#3cf7af" stroke="#ced4d9" stroke-width="0.25"/>
        <path id="Path_1576" data-name="Path 1576" d="M896.247,517.795a2.329,2.329,0,1,1-.822-3.19A2.329,2.329,0,0,1,896.247,517.795Z" transform="translate(-860.632 -435.745)" fill="#3cf7af" stroke="#ced4d9" stroke-width="0.25"/>
        <path id="Path_1577" data-name="Path 1577" d="M954.607,507.175a2.329,2.329,0,1,1-.822-3.19A2.329,2.329,0,0,1,954.607,507.175Z" transform="translate(-887.437 -430.867)" fill="#3cf7af" stroke="#ced4d9" stroke-width="0.25"/>
        <path id="Path_1578" data-name="Path 1578" d="M935.227,473.165a2.329,2.329,0,1,1-.822-3.19A2.329,2.329,0,0,1,935.227,473.165Z" transform="translate(-878.535 -415.246)" fill="#3cf7af" stroke="#ced4d9" stroke-width="0.25"/>
        <path id="Path_1579" data-name="Path 1579" d="M896.507,472.835a2.329,2.329,0,1,1-.822-3.19A2.329,2.329,0,0,1,896.507,472.835Z" transform="translate(-860.751 -415.095)" fill="#3cf7af" stroke="#ced4d9" stroke-width="0.25"/>
        <path id="Path_1580" data-name="Path 1580" d="M877.327,483.735a2.329,2.329,0,1,1-.822-3.19A2.329,2.329,0,0,1,877.327,483.735Z" transform="translate(-851.941 -420.101)" fill="#3cf7af" stroke="#ced4d9" stroke-width="0.25"/>
        <path id="Path_1581" data-name="Path 1581" d="M897.077,450.3a2.329,2.329,0,1,1-.822-3.19A2.329,2.329,0,0,1,897.077,450.3Z" transform="translate(-861.013 -404.746)" fill="#3cf7af" stroke="#ced4d9" stroke-width="0.25"/>
        <path id="Path_1582" data-name="Path 1582" d="M916.007,484.355a2.329,2.329,0,1,1-.822-3.19A2.329,2.329,0,0,1,916.007,484.355Z" transform="translate(-869.707 -420.386)" fill="#3cf7af" stroke="#ced4d9" stroke-width="0.25"/>
        <path id="Path_1583" data-name="Path 1583" d="M857.477,472.325a2.329,2.329,0,1,1-.822-3.19A2.329,2.329,0,0,1,857.477,472.325Z" transform="translate(-842.824 -414.86)" fill="#3cf7af" stroke="#ced4d9" stroke-width="0.25"/>
        <path id="Path_1584" data-name="Path 1584" d="M838.4,438.495a2.329,2.329,0,1,1-.822-3.19A2.329,2.329,0,0,1,838.4,438.495Z" transform="translate(-834.061 -399.322)" fill="#3cf7af" stroke="#ced4d9" stroke-width="0.25"/>
        <path id="Path_1585" data-name="Path 1585" d="M858.157,405.065a2.329,2.329,0,1,1-.822-3.19A2.329,2.329,0,0,1,858.157,405.065Z" transform="translate(-843.137 -383.967)" fill="#3cf7af" stroke="#ced4d9" stroke-width="0.25"/>
        <path id="Path_1586" data-name="Path 1586" d="M916.267,439.4a2.329,2.329,0,1,1-.822-3.19A2.329,2.329,0,0,1,916.267,439.4Z" transform="translate(-869.827 -399.74)" fill="#3cf7af" stroke="#ced4d9" stroke-width="0.25"/>
        <path id="Path_1587" data-name="Path 1587" d="M955.517,417.495a2.329,2.329,0,1,1-.822-3.19A2.329,2.329,0,0,1,955.517,417.495Z" transform="translate(-887.855 -389.677)" fill="#3cf7af" stroke="#ced4d9" stroke-width="0.25"/>
        <path id="Path_1588" data-name="Path 1588" d="M975.277,384.065a2.329,2.329,0,1,1-.822-3.19A2.329,2.329,0,0,1,975.277,384.065Z" transform="translate(-896.931 -374.322)" fill="#3cf7af" stroke="#ced4d9" stroke-width="0.25"/>
        <path id="Path_1589" data-name="Path 1589" d="M916.7,417.1a2.329,2.329,0,1,1-.822-3.19A2.329,2.329,0,0,1,916.7,417.1Z" transform="translate(-870.024 -389.497)" fill="#3cf7af" stroke="#ced4d9" stroke-width="0.25"/>
        <path id="Path_1590" data-name="Path 1590" d="M896.987,405.465a2.329,2.329,0,1,1-.822-3.19A2.328,2.328,0,0,1,896.987,405.465Z" transform="translate(-860.971 -384.151)" fill="#3cf7af" stroke="#ced4d9" stroke-width="0.25"/>
        <path id="Path_1591" data-name="Path 1591" d="M877.667,416.595a2.329,2.329,0,1,1-.822-3.19A2.329,2.329,0,0,1,877.667,416.595Z" transform="translate(-852.098 -389.263)" fill="#3cf7af" stroke="#ced4d9" stroke-width="0.25"/>
        <path id="Path_1592" data-name="Path 1592" d="M975.057,406.485a2.329,2.329,0,1,1-.822-3.19A2.329,2.329,0,0,1,975.057,406.485Z" transform="translate(-896.83 -384.62)" fill="#3cf7af" stroke="#ced4d9" stroke-width="0.25"/>
        <path id="Path_1593" data-name="Path 1593" d="M877.237,438.895a2.329,2.329,0,1,1-.822-3.19A2.329,2.329,0,0,1,877.237,438.895Z" transform="translate(-851.9 -399.506)" fill="#3cf7af" stroke="#ced4d9" stroke-width="0.25"/>
        <path id="Path_1594" data-name="Path 1594" d="M857.907,450.025a2.329,2.329,0,1,1-.822-3.19A2.329,2.329,0,0,1,857.907,450.025Z" transform="translate(-843.022 -404.618)" fill="#3cf7af" stroke="#ced4d9" stroke-width="0.25"/>
        <path id="Path_1595" data-name="Path 1595" d="M954.967,484.825a2.329,2.329,0,1,1-.822-3.19A2.329,2.329,0,0,1,954.967,484.825Z" transform="translate(-887.602 -420.602)" fill="#3cf7af" stroke="#ced4d9" stroke-width="0.25"/>
        <path id="Path_1596" data-name="Path 1596" d="M955.3,439.925a2.329,2.329,0,1,1-.822-3.19A2.329,2.329,0,0,1,955.3,439.925Z" transform="translate(-887.754 -399.979)" fill="#3cf7af" stroke="#ced4d9" stroke-width="0.25"/>
        <path id="Path_1597" data-name="Path 1597" d="M974.727,451.395a2.329,2.329,0,1,1-.822-3.19A2.329,2.329,0,0,1,974.727,451.395Z" transform="translate(-896.678 -405.247)" fill="#3cf7af" stroke="#ced4d9" stroke-width="0.25"/>
        <path id="Path_1598" data-name="Path 1598" d="M994.127,440.3a2.329,2.329,0,1,1-.822-3.19A2.329,2.329,0,0,1,994.127,440.3Z" transform="translate(-905.588 -400.153)" fill="#3cf7af" stroke="#ced4d9" stroke-width="0.25"/>
        <path id="Path_1599" data-name="Path 1599" d="M1013.767,451.915a2.329,2.329,0,1,1-.822-3.19A2.328,2.328,0,0,1,1013.767,451.915Z" transform="translate(-914.609 -405.486)" fill="#3cf7af" stroke="#ced4d9" stroke-width="0.25"/>
        <path id="Path_1600" data-name="Path 1600" d="M936.227,406.095a2.329,2.329,0,1,1-.822-3.19A2.329,2.329,0,0,1,936.227,406.095Z" transform="translate(-878.995 -384.44)" fill="#3cf7af" stroke="#ced4d9" stroke-width="0.25"/>
        <path id="Path_1601" data-name="Path 1601" d="M955.777,372.545a2.329,2.329,0,1,1-.822-3.19A2.329,2.329,0,0,1,955.777,372.545Z" transform="translate(-887.974 -369.031)" fill="#3cf7af" stroke="#ced4d9" stroke-width="0.25"/>
        <path id="Path_1602" data-name="Path 1602" d="M974.367,473.745a2.329,2.329,0,1,1-.822-3.19A2.329,2.329,0,0,1,974.367,473.745Z" transform="translate(-896.513 -415.513)" fill="#3cf7af" stroke="#ced4d9" stroke-width="0.25"/>
        <path id="Path_1603" data-name="Path 1603" d="M994.007,485.345a2.329,2.329,0,1,1-.822-3.19A2.329,2.329,0,0,1,994.007,485.345Z" transform="translate(-905.533 -420.84)" fill="#3cf7af" stroke="#ced4d9" stroke-width="0.25"/>
        <path id="Path_1604" data-name="Path 1604" d="M993.567,507.645a2.329,2.329,0,1,1-.822-3.19A2.329,2.329,0,0,1,993.567,507.645Z" transform="translate(-905.331 -431.083)" fill="#3cf7af" stroke="#ced4d9" stroke-width="0.25"/>
        <path id="Path_1605" data-name="Path 1605" d="M935.767,450.925a2.329,2.329,0,1,1-.822-3.19A2.329,2.329,0,0,1,935.767,450.925Z" transform="translate(-878.783 -405.031)" fill="#3cf7af" stroke="#ced4d9" stroke-width="0.25"/>
      </g>
      <g id="Group_4396" data-name="Group 4396" transform="translate(158.721 8.857)">
        <path id="Path_1606" data-name="Path 1606" d="M1252.125,295.477l-10.608,5.872L1231.13,295.1l.216-12.122,10.6-5.872" transform="translate(-1175.158 -274.402)" fill="none" stroke="#ced4d9" stroke-width="0.25"/>
        <path id="Path_1607" data-name="Path 1607" d="M1202.919,276.53l10.387,6.245-.216,12.122-10.6,5.872-10.387-6.245.216-12.122Z" transform="translate(-1157.231 -274.135)" fill="none" stroke="#ced4d9" stroke-width="0.25"/>
        <path id="Path_1608" data-name="Path 1608" d="M1221.729,310.5l10.392,6.25-.216,12.117-10.608,5.872-10.387-6.245.216-12.122Z" transform="translate(-1165.871 -289.738)" fill="none" stroke="#ced4d9" stroke-width="0.25"/>
        <path id="Path_1609" data-name="Path 1609" d="M1230.495,396.233l-10.608,5.872-10.387-6.25.216-12.117,10.608-5.877" transform="translate(-1165.223 -320.677)" fill="none" stroke="#ced4d9" stroke-width="0.25"/>
        <path id="Path_1610" data-name="Path 1610" d="M1182.7,309.92l10.387,6.25-.216,12.117-10.6,5.872-10.387-6.245.216-12.122Z" transform="translate(-1147.944 -289.471)" fill="none" stroke="#ced4d9" stroke-width="0.25"/>
        <path id="Path_1611" data-name="Path 1611" d="M1174.271,287.183l-.216,12.122-10.6,5.872-10.392-6.245.216-12.122" transform="translate(-1139.3 -278.857)" fill="none" stroke="#ced4d9" stroke-width="0.25"/>
        <path id="Path_1612" data-name="Path 1612" d="M1162.695,343.19l10.387,6.25-.216,12.122-10.608,5.872-10.387-6.25.216-12.117Z" transform="translate(-1138.753 -304.753)" fill="none" stroke="#ced4d9" stroke-width="0.25"/>
        <path id="Path_1613" data-name="Path 1613" d="M1132.13,382.422l10.6-5.872,10.387,6.245-.216,12.122-10.6,5.872" transform="translate(-1129.687 -320.075)" fill="none" stroke="#ced4d9" stroke-width="0.25"/>
        <path id="Path_1614" data-name="Path 1614" d="M1132.563,342.57l10.387,6.25-.216,12.122-10.6,5.872" transform="translate(-1129.687 -304.468)" fill="none" stroke="#ced4d9" stroke-width="0.25"/>
        <path id="Path_1615" data-name="Path 1615" d="M1170.68,395.159l.216-12.117,10.608-5.872,10.387,6.245-.216,12.122" transform="translate(-1147.393 -320.36)" fill="none" stroke="#ced4d9" stroke-width="0.25"/>
        <path id="Path_1616" data-name="Path 1616" d="M1149.5,308.435a2.329,2.329,0,1,1,3.168.914A2.327,2.327,0,0,1,1149.5,308.435Z" transform="translate(-1137.532 -287.203)" fill="#ce42c3" stroke="#ced4d9" stroke-width="0.25"/>
        <path id="Path_1617" data-name="Path 1617" d="M1149.462,285.951a2.328,2.328,0,1,1,3.163.9A2.335,2.335,0,0,1,1149.462,285.951Z" transform="translate(-1137.513 -276.873)" fill="#ce42c3" stroke="#ced4d9" stroke-width="0.25"/>
        <path id="Path_1618" data-name="Path 1618" d="M1129.042,341.651a2.328,2.328,0,1,1,3.163.9A2.335,2.335,0,0,1,1129.042,341.651Z" transform="translate(-1128.134 -302.457)" fill="#ce42c3" stroke="#ced4d9" stroke-width="0.25"/>
        <path id="Path_1619" data-name="Path 1619" d="M1168.182,342.175a2.329,2.329,0,1,1,3.168.914A2.327,2.327,0,0,1,1168.182,342.175Z" transform="translate(-1146.112 -302.7)" fill="#ce42c3" stroke="#ced4d9" stroke-width="0.25"/>
        <path id="Path_1620" data-name="Path 1620" d="M1188.082,308.956a2.329,2.329,0,1,1,3.169.908A2.327,2.327,0,0,1,1188.082,308.956Z" transform="translate(-1155.252 -287.442)" fill="#ce42c3" stroke="#ced4d9" stroke-width="0.25"/>
        <path id="Path_1621" data-name="Path 1621" d="M1188.4,286.891a2.328,2.328,0,1,1,3.163.9A2.335,2.335,0,0,1,1188.4,286.891Z" transform="translate(-1155.399 -277.305)" fill="#ce42c3" stroke="#ced4d9" stroke-width="0.25"/>
        <path id="Path_1622" data-name="Path 1622" d="M1207.222,320.865a2.327,2.327,0,1,1,3.163.908A2.327,2.327,0,0,1,1207.222,320.865Z" transform="translate(-1164.043 -292.912)" fill="#ce42c3" stroke="#ced4d9" stroke-width="0.25"/>
        <path id="Path_1623" data-name="Path 1623" d="M1168.272,319.925a2.329,2.329,0,1,1,3.169.908A2.327,2.327,0,0,1,1168.272,319.925Z" transform="translate(-1146.153 -292.48)" fill="#ce42c3" stroke="#ced4d9" stroke-width="0.25"/>
        <path id="Path_1624" data-name="Path 1624" d="M1208.3,275.561a2.328,2.328,0,1,1,3.163.908A2.335,2.335,0,0,1,1208.3,275.561Z" transform="translate(-1164.539 -272.101)" fill="#ce42c3" stroke="#ced4d9" stroke-width="0.25"/>
        <path id="Path_1625" data-name="Path 1625" d="M1247.132,276.251a2.328,2.328,0,1,1,3.163.9A2.311,2.311,0,0,1,1247.132,276.251Z" transform="translate(-1182.374 -272.418)" fill="#ce42c3" stroke="#ced4d9" stroke-width="0.25"/>
        <path id="Path_1626" data-name="Path 1626" d="M1265.942,310.235a2.327,2.327,0,1,1,3.163.908A2.327,2.327,0,0,1,1265.942,310.235Z" transform="translate(-1191.013 -288.03)" fill="#ce42c3" stroke="#ced4d9" stroke-width="0.25"/>
        <path id="Path_1627" data-name="Path 1627" d="M1206.892,342.935a2.327,2.327,0,1,1,3.163.914A2.327,2.327,0,0,1,1206.892,342.935Z" transform="translate(-1163.891 -303.049)" fill="#ce42c3" stroke="#ced4d9" stroke-width="0.25"/>
        <path id="Path_1628" data-name="Path 1628" d="M1205.892,387.871a2.328,2.328,0,1,1,3.163.9A2.335,2.335,0,0,1,1205.892,387.871Z" transform="translate(-1163.432 -323.686)" fill="#ce42c3" stroke="#ced4d9" stroke-width="0.25"/>
        <path id="Path_1629" data-name="Path 1629" d="M1224.712,421.841a2.328,2.328,0,1,1,3.163.9A2.335,2.335,0,0,1,1224.712,421.841Z" transform="translate(-1172.076 -339.288)" fill="#ce42c3" stroke="#ced4d9" stroke-width="0.25"/>
        <path id="Path_1630" data-name="Path 1630" d="M1225.9,354.6a2.327,2.327,0,1,1,3.163.908A2.327,2.327,0,0,1,1225.9,354.6Z" transform="translate(-1172.623 -308.405)" fill="#ce42c3" stroke="#ced4d9" stroke-width="0.25"/>
        <path id="Path_1631" data-name="Path 1631" d="M1245.922,343.505a2.329,2.329,0,1,1,3.169.914A2.327,2.327,0,0,1,1245.922,343.505Z" transform="translate(-1181.818 -303.311)" fill="#ce42c3" stroke="#ced4d9" stroke-width="0.25"/>
        <path id="Path_1632" data-name="Path 1632" d="M1246.122,321.205a2.329,2.329,0,1,1,3.168.908A2.327,2.327,0,0,1,1246.122,321.205Z" transform="translate(-1181.91 -293.068)" fill="#ce42c3" stroke="#ced4d9" stroke-width="0.25"/>
        <path id="Path_1633" data-name="Path 1633" d="M1205.482,410.3a2.327,2.327,0,1,1,3.163.908A2.327,2.327,0,0,1,1205.482,410.3Z" transform="translate(-1163.244 -333.988)" fill="#ce42c3" stroke="#ced4d9" stroke-width="0.25"/>
        <path id="Path_1634" data-name="Path 1634" d="M1227.112,309.535a2.327,2.327,0,1,1,3.163.908A2.327,2.327,0,0,1,1227.112,309.535Z" transform="translate(-1173.179 -287.708)" fill="#ce42c3" stroke="#ced4d9" stroke-width="0.25"/>
        <path id="Path_1635" data-name="Path 1635" d="M1227.313,287.231a2.328,2.328,0,1,1,3.163.9A2.335,2.335,0,0,1,1227.313,287.231Z" transform="translate(-1173.271 -277.461)" fill="#ce42c3" stroke="#ced4d9" stroke-width="0.25"/>
        <path id="Path_1636" data-name="Path 1636" d="M1148.122,353.271a2.328,2.328,0,1,1,3.163.908A2.335,2.335,0,0,1,1148.122,353.271Z" transform="translate(-1136.898 -307.794)" fill="#ce42c3" stroke="#ced4d9" stroke-width="0.25"/>
        <path id="Path_1637" data-name="Path 1637" d="M1186.672,376.326a2.327,2.327,0,1,1,3.163.914A2.327,2.327,0,0,1,1186.672,376.326Z" transform="translate(-1154.604 -318.385)" fill="#ce42c3" stroke="#ced4d9" stroke-width="0.25"/>
        <path id="Path_1638" data-name="Path 1638" d="M1166.942,387.255a2.327,2.327,0,1,1,3.163.914A2.327,2.327,0,0,1,1166.942,387.255Z" transform="translate(-1145.542 -323.406)" fill="#ce42c3" stroke="#ced4d9" stroke-width="0.25"/>
        <path id="Path_1639" data-name="Path 1639" d="M1166.672,409.591a2.331,2.331,0,1,1,3.169.9A2.335,2.335,0,0,1,1166.672,409.591Z" transform="translate(-1145.418 -333.662)" fill="#ce42c3" stroke="#ced4d9" stroke-width="0.25"/>
        <path id="Path_1640" data-name="Path 1640" d="M1146.712,420.645a2.327,2.327,0,1,1,3.163.908A2.327,2.327,0,0,1,1146.712,420.645Z" transform="translate(-1136.25 -338.742)" fill="#ce42c3" stroke="#ced4d9" stroke-width="0.25"/>
        <path id="Path_1641" data-name="Path 1641" d="M1225.5,377.011a2.331,2.331,0,1,1,3.168.908A2.335,2.335,0,0,1,1225.5,377.011Z" transform="translate(-1172.439 -318.698)" fill="#ce42c3" stroke="#ced4d9" stroke-width="0.25"/>
        <path id="Path_1642" data-name="Path 1642" d="M1244.522,410.871a2.328,2.328,0,1,1,3.163.908A2.335,2.335,0,0,1,1244.522,410.871Z" transform="translate(-1181.175 -334.25)" fill="#ce42c3" stroke="#ced4d9" stroke-width="0.25"/>
        <path id="Path_1643" data-name="Path 1643" d="M1147.852,375.625a2.329,2.329,0,1,1,3.168.914A2.327,2.327,0,0,1,1147.852,375.625Z" transform="translate(-1136.774 -318.064)" fill="#ce42c3" stroke="#ced4d9" stroke-width="0.25"/>
        <path id="Path_1644" data-name="Path 1644" d="M1127.9,386.671a2.328,2.328,0,1,1,3.163.908A2.335,2.335,0,0,1,1127.9,386.671Z" transform="translate(-1127.611 -323.135)" fill="#ce42c3" stroke="#ced4d9" stroke-width="0.25"/>
        <path id="Path_1645" data-name="Path 1645" d="M1187.082,353.9a2.328,2.328,0,1,1,3.163.908A2.335,2.335,0,0,1,1187.082,353.9Z" transform="translate(-1154.793 -308.083)" fill="#ce42c3" stroke="#ced4d9" stroke-width="0.25"/>
      </g>
    </g>
  </g>
</svg>
