<svg xmlns="http://www.w3.org/2000/svg" width="30" height="23.329" viewBox="0 0 30 23.329"><defs><style>.a{fill:#fff;}</style></defs><path class="a" d="M14.587,38.1l-9.6,7.908v8.535a.833.833,0,0,0,.833.833l5.836-.015a.833.833,0,0,0,.829-.833V49.546a.833.833,0,0,1,.833-.833H16.65a.833.833,0,0,1,.833.833v4.981a.833.833,0,0,0,.833.836l5.834.016a.833.833,0,0,0,.833-.833V46l-9.6-7.9a.635.635,0,0,0-.8,0Zm15.167,5.375L25.4,39.888V32.675a.625.625,0,0,0-.625-.625H21.859a.625.625,0,0,0-.625.625v3.781L16.571,32.62a2.5,2.5,0,0,0-3.177,0L.212,43.477a.625.625,0,0,0-.083.88l1.328,1.614a.625.625,0,0,0,.881.085l12.25-10.09a.635.635,0,0,1,.8,0l12.251,10.09a.625.625,0,0,0,.88-.083l1.328-1.614a.625.625,0,0,0-.089-.882Z" transform="translate(0.015 -32.05)"/></svg>