<svg xmlns="http://www.w3.org/2000/svg" width="25" height="22.223" viewBox="0 0 25 22.223">
  <path id="house-user-solid" d="M24.992,11.09A1.4,1.4,0,0,1,23.6,12.483H22.214l.03,6.949a2.78,2.78,0,0,1-2.778,2.791H5.56a2.779,2.779,0,0,1-2.778-2.778V12.483H1.391A1.376,1.376,0,0,1,0,11.09a1.41,1.41,0,0,1,.434-1.042L11.563.348A1.251,1.251,0,0,1,12.518,0a1.46,1.46,0,0,1,.916.3l11.081,9.744a1.179,1.179,0,0,1,.477,1.042ZM12.5,6.945a2.778,2.778,0,1,0,2.778,2.778A2.78,2.78,0,0,0,12.5,6.945Zm-1.389,6.945a3.471,3.471,0,0,0-3.472,3.472.7.7,0,0,0,.694.694h8.334a.7.7,0,0,0,.694-.694,3.471,3.471,0,0,0-3.472-3.472Z" fill="#636d76"/>
</svg>
