<svg xmlns="http://www.w3.org/2000/svg" width="20" height="20.938" viewBox="0 0 20 20.938">
  <path id="hubspot-1" d="M25.018,11V8.51a1.92,1.92,0,0,0,1.107-1.731V6.722a1.92,1.92,0,0,0-1.92-1.92h-.057a1.92,1.92,0,0,0-1.92,1.92v.057A1.92,1.92,0,0,0,23.335,8.51V11a5.437,5.437,0,0,0-2.585,1.138L13.912,6.815a2.186,2.186,0,1,0-1.024,1.331l6.734,5.24a5.454,5.454,0,0,0,.083,6.143l-2.048,2.049A1.811,1.811,0,1,0,18.84,22.76l2.026-2.027A5.463,5.463,0,1,0,25.018,11m-.84,8.2a2.8,2.8,0,1,1,2.7-2.8,2.8,2.8,0,0,1-2.7,2.8" transform="translate(-9.662 -4.109)" fill="#ff7a59"/>
</svg>
