<svg xmlns="http://www.w3.org/2000/svg" width="13.485" height="12" viewBox="0 0 13.485 12">
  <path id="digging-regular" d="M6.111,2.246A1.123,1.123,0,1,0,4.988,1.123,1.123,1.123,0,0,0,6.111,2.246Zm.914,7.488a.749.749,0,0,0-.71.512l-.578,1.735h7.488L10.839,7.153A.749.749,0,0,0,9.527,7.1L8.79,8.359,7.035,7.411,6.509,4.553A2.872,2.872,0,0,0,3.694,2.246h-1.7a.562.562,0,0,0-.42.189L.242,3.987A.749.749,0,0,0,.453,5.134l7.76,4.21-.229.391ZM2.269,4.82l-.885-.483.861-.968H3.539ZM4.2,5.873,5.351,4.6l.421,2.133ZM8.95,10.3l1.19-2.027,1.277,2.583H8.626ZM4.321,8.118,1.275,6.409l-1.5,4.844a.562.562,0,1,0,1.072.333L1.928,8.093l1.562.852v2.475a.562.562,0,0,0,1.123,0V8.611a.562.562,0,0,0-.292-.493Z" transform="translate(0.26)" fill="#636d76"/>
</svg>
