<svg xmlns="http://www.w3.org/2000/svg" width="20" height="16" viewBox="0 0 20 16"><defs><style>.a{fill:#fc7900;}</style></defs><path class="a" d="M19.5,0h-1a.5.5,0,0,0-.5.5V5H2V.5A.5.5,0,0,0,1.5,0H.5A.5.5,0,0,0,0,.5V16H2V15H18v1h2V.5A.5.5,0,0,0,19.5,0ZM18,13H2V7H18ZM11.5,4h3a.5.5,0,0,0,.5-.5V.5a.5.5,0,0,0-.5-.5h-3a.5.5,0,0,0-.5.5v3A.5.5,0,0,0,11.5,4Zm-8,8h3a.5.5,0,0,0,.5-.5v-3A.5.5,0,0,0,6.5,8h-3a.5.5,0,0,0-.5.5v3A.5.5,0,0,0,3.5,12Zm5,0h3a.5.5,0,0,0,.5-.5v-3a.5.5,0,0,0-.5-.5h-3a.5.5,0,0,0-.5.5v3A.5.5,0,0,0,8.5,12Z"/></svg>