<svg xmlns="http://www.w3.org/2000/svg" width="15" height="15" viewBox="0 0 15 15">
  <path id="key-regular" d="M9.375,1.406A4.219,4.219,0,1,1,7.8,9.541l-1.24,1.24H5.625v1.406H4.219v1.406H1.406V10.781L5.337,6.85A4.221,4.221,0,0,1,9.375,1.406M9.375,0A5.628,5.628,0,0,0,3.8,6.4l-3.6,3.6a.7.7,0,0,0-.206.5V14.3a.7.7,0,0,0,.7.7H4.922a.7.7,0,0,0,.7-.7v-.7h.7a.7.7,0,0,0,.7-.7V12.3L8.2,11.128A5.625,5.625,0,1,0,9.375,0Zm0,4.219a1.406,1.406,0,1,0,1.406-1.406A1.406,1.406,0,0,0,9.375,4.219Z" fill="#95a1ac"/>
</svg>
