<svg xmlns="http://www.w3.org/2000/svg" width="30" height="17.999" viewBox="0 0 30 17.999">
  <path id="font-case-regular" d="M29.219,68.5h-.75a.75.75,0,0,0-.75.75v.6A5.968,5.968,0,0,0,17.97,74.5V76a5.968,5.968,0,0,0,9.75,4.649v.6a.75.75,0,0,0,.75.75h.75a.75.75,0,0,0,.75-.75v-12A.75.75,0,0,0,29.219,68.5Zm-1.5,7.5a3.75,3.75,0,0,1-7.5,0V74.5a3.75,3.75,0,1,1,7.5,0ZM9.931,64.485a.75.75,0,0,0-.7-.485H7.211a.75.75,0,0,0-.7.485l-6.49,16.5A.75.75,0,0,0,.721,82h.8a.75.75,0,0,0,.7-.485l1.879-4.765h8.229l1.88,4.765a.75.75,0,0,0,.7.485h.8a.75.75,0,0,0,.7-1.015ZM4.993,74.5,8.22,66.324,11.447,74.5Z" transform="translate(0.031 -64)" fill="#fff"/>
</svg>
