<svg xmlns="http://www.w3.org/2000/svg" width="27" height="22.365" viewBox="0 0 27 22.365"><defs><style>.a{fill:#fff;}.b{fill:#3b4557;}</style></defs><g transform="translate(-6612 -2673.635)"><path class="a" d="M22.162,4.02a2.08,2.08,0,1,0-1.329-1.937,2.112,2.112,0,0,0,.031.308L16.726,5.7a2.018,2.018,0,0,0-1.509,0L11.08,2.391a2.059,2.059,0,0,0,.031-.308,2.083,2.083,0,1,0-4.167,0,2.078,2.078,0,0,0,.077.533L2.616,7.022a2.078,2.078,0,0,0-.533-.077,2.119,2.119,0,1,0,2.006,1.55L8.495,4.089A1.958,1.958,0,0,0,9.782,4.02l4.138,3.31a2.059,2.059,0,0,0-.031.308,2.083,2.083,0,0,0,4.167,0,2.112,2.112,0,0,0-.031-.308L22.162,4.02Zm-4.8,9.868H14.583a.694.694,0,0,0-.694.694v6.944a.694.694,0,0,0,.694.694h2.778a.694.694,0,0,0,.694-.694V14.583A.694.694,0,0,0,17.361,13.889Zm6.944-5.556H21.528a.694.694,0,0,0-.694.694v12.5a.694.694,0,0,0,.694.694h2.778A.694.694,0,0,0,25,21.528V9.028A.694.694,0,0,0,24.306,8.333Zm-13.889,0H7.639a.694.694,0,0,0-.694.694v12.5a.694.694,0,0,0,.694.694h2.778a.694.694,0,0,0,.694-.694V9.028A.694.694,0,0,0,10.417,8.333ZM3.472,15.278H.694A.694.694,0,0,0,0,15.972v5.556a.694.694,0,0,0,.694.694H3.472a.694.694,0,0,0,.694-.694V15.972A.694.694,0,0,0,3.472,15.278Z" transform="translate(6613 2673.635)"/><rect class="b" width="27" height="10" transform="translate(6612 2686)"/><rect class="b" width="6" height="10" transform="translate(6619 2681)"/><rect class="b" width="6" height="10" transform="translate(6633 2681)"/><path class="a" d="M5.4,64.508A.75.75,0,0,0,4.689,64H3.584a.75.75,0,0,0-.71.509l-2.842,8A.375.375,0,0,0,.387,73H1.573a.375.375,0,0,0,.355-.255L2.375,71.5H5.9l.447,1.245A.375.375,0,0,0,6.7,73H7.887a.375.375,0,0,0,.355-.495ZM3.049,69.625,4.137,66.6l1.088,3.03ZM14.637,66.25h-.75a.375.375,0,0,0-.375.375v.042a2.971,2.971,0,0,0-1.5-.417,3,3,0,0,0-3,3V70a3,3,0,0,0,3,3,2.964,2.964,0,0,0,1.5-.417v.042a.375.375,0,0,0,.375.375h.75a.375.375,0,0,0,.375-.375v-6A.375.375,0,0,0,14.637,66.25ZM13.137,70a1.125,1.125,0,0,1-2.25,0v-.75a1.125,1.125,0,1,1,2.25,0Z" transform="translate(6618.988 2621)"/></g></svg>