<svg xmlns="http://www.w3.org/2000/svg" width="33.192" height="25" viewBox="0 0 33.192 25">
  <g id="Group_5203" data-name="Group 5203" transform="translate(-6470 -2322)">
    <path id="font-solid" d="M24,53H23L16,33c-.246-.724-1.235-1-2-1H11c-.765,0-1.754.276-2,1L2,53H1a1.087,1.087,0,0,0-1,1v2a1.087,1.087,0,0,0,1,1H8a1.087,1.087,0,0,0,1-1V54a1.087,1.087,0,0,0-1-1H7l1-3h9l1,3H17a1.087,1.087,0,0,0-1,1v2a1.087,1.087,0,0,0,1,1h7a1.087,1.087,0,0,0,1-1V54A1.087,1.087,0,0,0,24,53ZM10,45l3-7,2,7Z" transform="translate(6470 2290)" fill="#fff"/>
    <ellipse id="Ellipse_285" data-name="Ellipse 285" cx="8" cy="8.5" rx="8" ry="8.5" transform="translate(6487 2330)" fill="#1e1e1e"/>
    <path id="search-solid" d="M14,12.432l-3-3c-.123-.123.175,0,0,0H10a7.072,7.072,0,0,0,1-4c0-3.142-1.858-5-5-5s-6,1.858-6,5a6.234,6.234,0,0,0,6,6,4.177,4.177,0,0,0,3-1H9c0,.175-.123.877,0,1l3,2a.745.745,0,0,0,1,0h1A.748.748,0,0,0,14,12.432Zm-8-3a4.412,4.412,0,0,1-4-4c0-1.933,2.064-3,4-3a2.706,2.706,0,0,1,3,3C9,7.365,7.936,9.432,6,9.432Z" transform="translate(6489 2332.569)" fill="#fff"/>
  </g>
</svg>
