<svg xmlns="http://www.w3.org/2000/svg" width="20" height="20" viewBox="0 0 20 20"><defs><style>.a{fill:#fff;}.b{fill:#3b4557;}</style></defs><g transform="translate(-6608 -2662)"><g transform="translate(4921 2332)"><path class="a" d="M28,17.981a10,10,0,0,1-16.276,7.8.967.967,0,0,1-.074-1.436L12.1,23.9a.969.969,0,0,1,1.286-.08,7.42,7.42,0,1,0-.474-11.222l2.047,2.047a.645.645,0,0,1-.456,1.1H8.645A.645.645,0,0,1,8,15.1V9.235a.645.645,0,0,1,1.1-.456l1.991,1.991A10,10,0,0,1,28,17.981Zm-7.295,3.177.4-.509a.968.968,0,0,0-.17-1.358L19.29,18.014V13.806a.968.968,0,0,0-.968-.968h-.645a.968.968,0,0,0-.968.968v5.47l2.637,2.051A.968.968,0,0,0,20.705,21.158Z" transform="translate(1679 322)"/><rect class="b" width="6" height="10" transform="translate(1695 334)"/></g><path class="a" d="M3.6,64.339A.5.5,0,0,0,3.13,64H2.393a.5.5,0,0,0-.473.339L.025,69.67A.25.25,0,0,0,.262,70h.791a.25.25,0,0,0,.237-.17l.3-.83H3.936l.3.83a.25.25,0,0,0,.237.17h.791a.25.25,0,0,0,.237-.33ZM2.036,67.75l.725-2.02.725,2.02ZM9.762,65.5h-.5a.25.25,0,0,0-.25.25v.028a1.981,1.981,0,0,0-1-.278,2,2,0,0,0-2,2V68a2,2,0,0,0,2,2,1.976,1.976,0,0,0,1-.278v.028a.25.25,0,0,0,.25.25h.5a.25.25,0,0,0,.25-.25v-4A.25.25,0,0,0,9.762,65.5Zm-1,2.5a.75.75,0,1,1-1.5,0v-.5a.75.75,0,1,1,1.5,0Z" transform="translate(6613.988 2605)"/></g></svg>