<svg xmlns="http://www.w3.org/2000/svg" width="30" height="40" viewBox="0 0 30 40">
  <path id="hourglass-start-solid" d="M28.125,0H1.875A1.875,1.875,0,0,0,0,1.875v1.25A1.875,1.875,0,0,0,1.875,5c0,7.107,3.986,13.1,9.441,15-5.455,1.9-9.441,7.893-9.441,15A1.875,1.875,0,0,0,0,36.875v1.25A1.875,1.875,0,0,0,1.875,40h26.25A1.875,1.875,0,0,0,30,38.125v-1.25A1.875,1.875,0,0,0,28.125,35c0-7.107-3.986-13.1-9.441-15,5.455-1.9,9.441-7.893,9.441-15A1.875,1.875,0,0,0,30,3.125V1.875A1.875,1.875,0,0,0,28.125,0Zm-5,35H6.875c0-6.051,3.61-11.25,8.125-11.25S23.125,28.947,23.125,35Z" fill="#1e1e1e"/>
</svg>
