<svg xmlns="http://www.w3.org/2000/svg" width="25" height="28.571" viewBox="0 0 25 28.571"><defs><style>.a{fill:#fff;}</style></defs><path class="a" d="M18.158,16.138,12.5,21.8,6.842,16.138A7.476,7.476,0,0,0,0,23.571v2.321a2.679,2.679,0,0,0,2.679,2.679H22.321A2.679,2.679,0,0,0,25,25.893V23.571A7.476,7.476,0,0,0,18.158,16.138ZM1.786,10.714A5.327,5.327,0,0,0,5.647,9.057a7.142,7.142,0,1,0,.463-5.05A5.331,5.331,0,0,0,1.786,1.786,5.343,5.343,0,0,0,4.191,6.25,5.343,5.343,0,0,0,1.786,10.714ZM9.821,5.357h5.357a1.784,1.784,0,0,1,1.786,1.786H8.036A1.784,1.784,0,0,1,9.821,5.357Z"/></svg>