<svg xmlns="http://www.w3.org/2000/svg" width="30" height="24" viewBox="0 0 30 24">
  <path id="lightbulb-on-regular" d="M5.25,9A1.125,1.125,0,0,0,4.125,7.875h-3a1.125,1.125,0,1,0,0,2.25h3A1.125,1.125,0,0,0,5.25,9Zm-.231,4.463-2.6,1.5a1.125,1.125,0,1,0,1.125,1.948l2.6-1.5a1.125,1.125,0,1,0-1.125-1.948ZM6.144,2.588l-2.6-1.5A1.125,1.125,0,1,0,2.421,3.037l2.6,1.5A1.125,1.125,0,1,0,6.144,2.588Zm18.275,2.1a1.116,1.116,0,0,0,.563-.151l2.6-1.5a1.125,1.125,0,1,0-1.125-1.948l-2.6,1.5a1.125,1.125,0,0,0,.563,2.1Zm4.456,3.188h-3a1.125,1.125,0,0,0,0,2.25h3a1.125,1.125,0,0,0,0-2.25Zm-1.3,7.089-2.6-1.5a1.125,1.125,0,1,0-1.125,1.948l2.6,1.5a1.125,1.125,0,1,0,1.125-1.948ZM15,0A8.245,8.245,0,0,0,8.792,13.677,13.41,13.41,0,0,1,11.249,18v0H13.5v-.006a2.235,2.235,0,0,0-.1-.66,14.8,14.8,0,0,0-2.915-5.14,6,6,0,1,1,9.032,0,14.835,14.835,0,0,0-2.91,5.131A2.661,2.661,0,0,0,16.5,18v0h2.25a13.413,13.413,0,0,1,2.457-4.32A8.247,8.247,0,0,0,15,0Zm0,3.75a4.505,4.505,0,0,0-4.5,4.5.75.75,0,1,0,1.5,0,3,3,0,0,1,3-3,.75.75,0,0,0,0-1.5ZM11.253,21.525a.75.75,0,0,0,.126.414l1.148,1.726a.75.75,0,0,0,.624.335h3.7a.75.75,0,0,0,.625-.335l1.148-1.728a.759.759,0,0,0,.126-.414l0-2.023h-7.5Z" fill="#fc7900"/>
</svg>
