<svg xmlns="http://www.w3.org/2000/svg" width="12" height="11.57" viewBox="0 0 12 11.57"><defs><style>.a{fill:#349af8;}</style></defs><path class="a" d="M7.654,4.189a3.347,3.347,0,0,1,.008,4.849l-.008.008L6.079,10.565a3.661,3.661,0,0,1-5.038,0,3.352,3.352,0,0,1,0-4.858l.87-.839a.377.377,0,0,1,.64.24A4.031,4.031,0,0,0,2.778,6.3a.354.354,0,0,1-.089.375l-.307.3a1.6,1.6,0,0,0-.027,2.3,1.734,1.734,0,0,0,2.4.012L6.329,7.769a1.586,1.586,0,0,0,0-2.3,1.744,1.744,0,0,0-.242-.194.359.359,0,0,1-.163-.285A.883.883,0,0,1,6.2,4.315l.493-.476A.387.387,0,0,1,7.173,3.8a3.546,3.546,0,0,1,.481.389ZM10.958,1A3.661,3.661,0,0,0,5.92,1L4.345,2.523l-.008.008A3.347,3.347,0,0,0,4.345,7.38a3.545,3.545,0,0,0,.481.389.387.387,0,0,0,.482-.039L5.8,7.254a.883.883,0,0,0,.274-.674A.359.359,0,0,0,5.913,6.3,1.744,1.744,0,0,1,5.67,6.1a1.586,1.586,0,0,1,0-2.3L7.245,2.282a1.734,1.734,0,0,1,2.4.012,1.6,1.6,0,0,1-.027,2.3l-.307.3a.354.354,0,0,0-.089.375,4.031,4.031,0,0,1,.227,1.191.377.377,0,0,0,.64.24l.87-.839a3.352,3.352,0,0,0,0-4.858Z" transform="translate(0 0)"/></svg>