<svg xmlns="http://www.w3.org/2000/svg" width="23.704" height="20" viewBox="0 0 23.704 20">
  <path id="list-check-solid" d="M7.042,32.282a1.112,1.112,0,0,1,.079,1.569L3.789,37.557a.952.952,0,0,1-.8.324.868.868,0,0,1-.815-.324L.325,35.705a1.063,1.063,0,0,1,0-1.531,1.111,1.111,0,0,1,1.571,0L2.92,35.2l2.552-2.831a1.111,1.111,0,0,1,1.569-.082Zm0,7.409a1.112,1.112,0,0,1,.079,1.569l-3.331,3.7a.952.952,0,0,1-.8.324.868.868,0,0,1-.815-.324L.325,43.112a1.064,1.064,0,0,1,0-1.532,1.117,1.117,0,0,1,1.571,0L2.92,42.6,5.472,39.77a1.112,1.112,0,0,1,1.569-.079ZM10.37,34.96a1.481,1.481,0,0,1,1.481-1.481h10.37a1.481,1.481,0,1,1,0,2.963H11.852A1.48,1.48,0,0,1,10.37,34.96Zm0,7.407a1.48,1.48,0,0,1,1.481-1.481h10.37a1.481,1.481,0,1,1,0,2.963H11.852A1.48,1.48,0,0,1,10.37,42.367ZM7.407,49.774a1.48,1.48,0,0,1,1.481-1.481H22.222a1.481,1.481,0,0,1,0,2.963H8.889A1.48,1.48,0,0,1,7.407,49.774ZM0,49.774A2.222,2.222,0,1,1,2.222,52,2.222,2.222,0,0,1,0,49.774Z" transform="translate(0 -31.997)"/>
</svg>
