<svg xmlns="http://www.w3.org/2000/svg" width="12" height="9.145" viewBox="0 0 12 9.145"><defs><style>.a{fill:#636d76;}</style></defs><path class="a" d="M11.834,68.956l-4,4a.572.572,0,0,1-.976-.4V70.265H3.619a.57.57,0,0,1-.571-.571V67.408a.57.57,0,0,1,.571-.571H6.857V64.551a.573.573,0,0,1,.976-.4l4,4A.576.576,0,0,1,11.834,68.956ZM4.572,72.837v-.952a.287.287,0,0,0-.286-.286h-2a.761.761,0,0,1-.762-.762V66.265a.761.761,0,0,1,.762-.762h2a.287.287,0,0,0,.286-.286v-.952a.287.287,0,0,0-.286-.286h-2A2.286,2.286,0,0,0,0,66.265v4.572a2.286,2.286,0,0,0,2.286,2.286h2A.287.287,0,0,0,4.572,72.837Z" transform="translate(0 -63.979)"/></svg>