<svg xmlns="http://www.w3.org/2000/svg" width="20" height="21.974" viewBox="0 0 20 21.974">
  <path id="canadian-maple-leaf-brands" d="M38.485,15.094C38.592,14.987,43,11.129,43,11.129l-.751-.322c-.429-.21-.318-.494-.215-.747.1-.326.863-2.888.863-2.888s-2.047.429-2.476.536c-.322.1-.429-.107-.536-.322S39.24,6,39.24,6,36.983,8.567,36.876,8.67c-.429.322-.863,0-.755-.429,0-.429,1.185-5.562,1.185-5.562s-1.292.747-1.721.961c-.322.215-.541.215-.755-.215C34.609,3.1,33,0,33,0s-1.609,3.1-1.824,3.425c-.215.429-.429.429-.755.215-.429-.215-1.721-.961-1.721-.961S29.88,7.811,29.88,8.24c.107.429-.322.751-.755.429C29.017,8.562,26.76,6,26.76,6s-.536,1.172-.644,1.386-.215.425-.536.322C25.146,7.6,23.1,7.167,23.1,7.167s.755,2.562.863,2.888c.1.258.215.536-.215.747L23,11.129s4.4,3.858,4.515,3.966c.219.215.429.322.219.966s-.433,1.506-.433,1.506,4.086-.863,4.519-.97c.373-.039.785.107.785.536s-.249,4.841-.249,4.841h1.288s-.249-4.408-.249-4.841.408-.575.79-.536c.429.107,4.515.97,4.515.97s-.215-.863-.429-1.506S38.27,15.309,38.485,15.094Z" transform="translate(-23)"/>
</svg>
