<svg xmlns="http://www.w3.org/2000/svg" width="15" height="15.001" viewBox="0 0 15 15.001">
  <path id="medal-solid" d="M6.559,3.832,4.373.228A.4.4,0,0,0,4,0H.474A.469.469,0,0,0,.09.738L3.351,5.393A6.057,6.057,0,0,1,6.559,3.832Zm.946.856a5.157,5.157,0,1,0,5.157,5.157A5.155,5.155,0,0,0,7.505,4.688ZM10.215,9.3l-1.11,1.084.26,1.531a.335.335,0,0,1-.487.352L7.5,11.542l-1.374.72a.335.335,0,0,1-.487-.352l.26-1.531L4.794,9.3a.338.338,0,0,1,.189-.576L6.517,8.5,7.2,7.105a.335.335,0,0,1,.6,0L8.493,8.5l1.535.223A.337.337,0,0,1,10.215,9.3Zm4.3-9.3h-3.5a.469.469,0,0,0-.4.228L8.449,3.805a6.041,6.041,0,0,1,3.208,1.564L14.919.713A.457.457,0,0,0,14.511,0Z" transform="translate(-0.005)" fill="#2680eb"/>
</svg>
