<svg xmlns="http://www.w3.org/2000/svg" width="20.107" height="20" viewBox="0 0 20.107 20">
  <path id="message-smile-solid" d="M16.693,0H1.613A2.511,2.511,0,0,0-.9,2.482V13.757a2.488,2.488,0,0,0,2.513,2.478h3.77v3.3a.474.474,0,0,0,.751.381l4.9-3.679h5.655a2.511,2.511,0,0,0,2.513-2.478V2.482A2.49,2.49,0,0,0,16.693,0ZM11.7,4.4a1.239,1.239,0,0,1-.035,2.478,1.192,1.192,0,0,1-1.221-1.221A1.253,1.253,0,0,1,11.7,4.4Zm-5.027,0A1.223,1.223,0,0,1,7.9,5.659,1.192,1.192,0,0,1,6.675,6.88,1.221,1.221,0,0,1,5.419,5.659,1.253,1.253,0,0,1,6.675,4.4Zm6.688,6.256a5.5,5.5,0,0,1-8.345,0A.94.94,0,1,1,6.451,9.441a3.632,3.632,0,0,0,5.476,0,.942.942,0,0,1,1.436,1.219Z" transform="translate(0.9 -0.004)" fill="#fff"/>
</svg>
