<svg xmlns="http://www.w3.org/2000/svg" width="42.864" height="30" viewBox="0 0 42.864 30">
  <path id="money-check-dollar-pen-solid" d="M0,68.287A4.287,4.287,0,0,1,4.287,64H34.3a4.289,4.289,0,0,1,4.287,4.287v4.327a4.759,4.759,0,0,0-2.773,1.373L23.667,86.126a4.275,4.275,0,0,0-1.125,2l-.4,1.6H4.287A4.289,4.289,0,0,1,0,85.436ZM18.221,81.149h4.287a1.072,1.072,0,1,0,0-2.144H18.221a1.072,1.072,0,1,0,0,2.144Zm0-8.574a1.072,1.072,0,1,0,0,2.144H28.939a1.072,1.072,0,1,0,0-2.144ZM8.3,70.431v.4a4.421,4.421,0,0,0-1.065.342A3.455,3.455,0,0,0,5.152,73.7a3.192,3.192,0,0,0,.228,1.943,3.277,3.277,0,0,0,1.16,1.306,9.508,9.508,0,0,0,2.584,1.072l.147.04a7.2,7.2,0,0,1,1.963.784.62.62,0,0,1,.248.275.7.7,0,0,1,.02.442.754.754,0,0,1-.536.589,3.662,3.662,0,0,1-1.929.127,14.87,14.87,0,0,1-1.755-.523c-.147-.054-.295-.1-.429-.147a1.339,1.339,0,0,0-1.693.851,1.253,1.253,0,0,0,.848,1.634.671.671,0,0,0,.3.161,17.844,17.844,0,0,0,2,.61v.429a1.335,1.335,0,0,0,1.286,1.346,1.361,1.361,0,0,0,1.407-1.346v-.368c.355-.067.7-.228,1.025-.308a3.5,3.5,0,0,0,1.923-4.569,3.3,3.3,0,0,0-1.132-1.367A9.1,9.1,0,0,0,10.1,75.515L9.988,75.5a8.3,8.3,0,0,1-1.943-.77A.655.655,0,0,1,7.8,74.5a.505.505,0,0,1-.013-.335c.027-.134.127-.355.549-.543a3.946,3.946,0,0,1,1.923-.234c.288.107,1.192.281,1.454.348a1.337,1.337,0,1,0,.683-2.586c-.295-.08-.965-.214-1.407-.295v-.422a1.346,1.346,0,0,0-2.693,0Zm33.775,6.036a2.673,2.673,0,0,1,0,3.791l-1.969,1.969-4.749-4.756L37.325,75.5a2.685,2.685,0,0,1,3.791,0ZM25.181,87.586l8.655-8.595,4.756,4.749L29.937,92.4a2.154,2.154,0,0,1-1,.563L24.913,93.97a1.094,1.094,0,0,1-1.018-.281,1.136,1.136,0,0,1-.281-1.078l1-3.972a2.689,2.689,0,0,1,.563-1.052Z" transform="translate(0 -64)"/>
</svg>
