<svg xmlns="http://www.w3.org/2000/svg" width="15" height="13.333" viewBox="0 0 15 13.333">
  <path id="monitor-heart-rate-solid" d="M12.5,2.5H2.5V6.667H5.129a.208.208,0,0,1,.186.115l.518,1.036L7.127,5.23a.417.417,0,0,1,.745,0l.718,1.436h1.826a.417.417,0,1,1,0,.833H8.076L7.5,6.348,6.206,8.936a.417.417,0,0,1-.745,0L4.742,7.5H2.5v3.333h10ZM13.75,0H1.25A1.25,1.25,0,0,0,0,1.25V12.083a1.25,1.25,0,0,0,1.25,1.25h12.5A1.25,1.25,0,0,0,15,12.083V1.25A1.25,1.25,0,0,0,13.75,0Zm-.417,11.667H1.667v-10H13.333Z" fill="#636d76"/>
</svg>
