<svg xmlns="http://www.w3.org/2000/svg" width="15" height="15" viewBox="0 0 15 15"><defs><style>.a{fill:#eb675e;}</style></defs><path class="a" d="M7.5,8A7.5,7.5,0,1,0,15,15.5,7.5,7.5,0,0,0,7.5,8Zm.726,11.371v.484a.485.485,0,0,1-.484.484H7.258a.485.485,0,0,1-.484-.484v-.49a2.687,2.687,0,0,1-1.4-.457.486.486,0,0,1-.07-.762l.363-.342a.491.491,0,0,1,.6-.048,1.176,1.176,0,0,0,.6.163H8.223a.669.669,0,0,0,.62-.708.707.707,0,0,0-.46-.686L6.2,15.863a2.158,2.158,0,0,1-1.488-2.075,2.118,2.118,0,0,1,2.062-2.159v-.484a.485.485,0,0,1,.484-.484h.484a.485.485,0,0,1,.484.484v.49a2.687,2.687,0,0,1,1.4.457.486.486,0,0,1,.07.762l-.363.342a.491.491,0,0,1-.6.048,1.176,1.176,0,0,0-.6-.163H6.777a.669.669,0,0,0-.62.708.707.707,0,0,0,.46.686l2.177.662a2.158,2.158,0,0,1,1.488,2.075A2.111,2.111,0,0,1,8.226,19.371Z" transform="translate(0 -8)"/></svg>