<svg xmlns="http://www.w3.org/2000/svg" width="12" height="12" viewBox="0 0 12 12"><defs><style>.a{fill:#636d76;}</style></defs><path class="a" d="M4.125,5.059h3.75a.375.375,0,0,0,.375-.375V4.309a.375.375,0,0,0-.375-.375H4.125a.375.375,0,0,0-.375.375v.375A.375.375,0,0,0,4.125,5.059ZM3.75,6.934a.375.375,0,0,0,.375.375h3.75a.375.375,0,0,0,.375-.375V6.559a.375.375,0,0,0-.375-.375H4.125a.375.375,0,0,0-.375.375ZM6,9.773a1.872,1.872,0,0,1-1.1-.356L0,5.877v5A1.125,1.125,0,0,0,1.125,12h9.75A1.125,1.125,0,0,0,12,10.872v-5L7.1,9.417A1.874,1.874,0,0,1,6,9.773Zm5.569-5.957c-.207-.163-.4-.316-.694-.535V2.247A1.125,1.125,0,0,0,9.75,1.122H7.932L7.721.968C7.327.681,6.544-.011,6,0,5.456-.011,4.674.681,4.279.968l-.212.154H2.25A1.125,1.125,0,0,0,1.125,2.247V3.282c-.29.219-.487.372-.694.535A1.125,1.125,0,0,0,0,4.7v.25L2.25,6.576V2.247h7.5V6.576L12,4.951V4.7a1.125,1.125,0,0,0-.431-.885Z" transform="translate(0 0.003)"/></svg>