<svg xmlns="http://www.w3.org/2000/svg" width="30" height="29.997" viewBox="0 0 30 29.997">
  <path id="party-horn-solid" d="M2.824,20.248l6.925,6.925,3.526-1.322-9.129-9.13ZM.118,27.46a1.877,1.877,0,0,0,2.415,2.418L7.82,27.9,2.1,22.176ZM8.822,11.8a1.873,1.873,0,0,0-3.081.664l-.872,2.33L15.2,25.128l2.329-.873a1.875,1.875,0,0,0,.666-3.082Zm1.957-2.426a1.4,1.4,0,0,0,.9-.326A9.2,9.2,0,0,0,15,1.965V1.406a1.354,1.354,0,1,0-2.707,0v.558A6.388,6.388,0,0,1,9.983,6.888,1.336,1.336,0,0,0,9.7,8.87,1.388,1.388,0,0,0,10.779,9.374ZM3.748,3.7a1.822,1.822,0,0,0,0-3.644A1.864,1.864,0,0,0,1.873,1.875,1.831,1.831,0,0,0,3.748,3.7ZM28.537,15h-.558a9.179,9.179,0,0,0-7.029,3.316,1.406,1.406,0,0,0,.179,1.981,1.35,1.35,0,0,0,.846.328,1.4,1.4,0,0,0,1.08-.505,6.571,6.571,0,0,1,4.978-2.307h.558A1.362,1.362,0,0,0,29.945,16.4,1.377,1.377,0,0,0,28.537,15ZM22.83,10.312A4.812,4.812,0,0,0,23.9,6.474c-.057-.877-.062-1.287.4-1.829s.866-.6,1.738-.676a4.793,4.793,0,0,0,3.623-1.65A1.406,1.406,0,1,0,27.523.492c-.461.54-.866.6-1.738.676a4.716,4.716,0,0,0-4.692,5.487c.057.877.062,1.287-.4,1.829s-.864.6-1.734.674A4.776,4.776,0,0,0,15.337,10.8a1.409,1.409,0,0,0,.152,1.986,1.348,1.348,0,0,0,1.93-.159c.46-.538.864-.6,1.732-.674A4.8,4.8,0,0,0,22.83,10.312Zm5.238,14.061a1.822,1.822,0,1,0,0,3.644,1.853,1.853,0,0,0,1.822-1.822A1.753,1.753,0,0,0,28.068,24.373Zm0-16.873a1.822,1.822,0,1,0,0,3.644A1.853,1.853,0,0,0,29.89,9.321,1.753,1.753,0,0,0,28.068,7.5Z" transform="translate(0.002)" fill="#fff"/>
</svg>
