<svg xmlns="http://www.w3.org/2000/svg" width="20.002" height="20" viewBox="0 0 20.002 20">
  <path id="party-horn-solid_1_" data-name="party-horn-solid (1)" d="M1.882,13.5,6.5,18.117l2.351-.882L2.764,11.148Zm-1.8,4.809a1.251,1.251,0,0,0,1.61,1.612L5.213,18.6,1.4,14.785Zm5.8-10.441a1.249,1.249,0,0,0-2.054.443L3.246,9.863l6.891,6.891,1.553-.582a1.25,1.25,0,0,0,.444-2.055Zm1.3-1.617a.933.933,0,0,0,.6-.217A6.134,6.134,0,0,0,10,1.31V.938a.9.9,0,1,0-1.8,0V1.31A4.259,4.259,0,0,1,6.655,4.592a.89.89,0,0,0-.188,1.322A.926.926,0,0,0,7.186,6.25ZM2.5,2.465a1.215,1.215,0,0,0,0-2.43A1.243,1.243,0,0,0,1.248,1.25,1.221,1.221,0,0,0,2.5,2.465ZM19.026,10h-.372a6.12,6.12,0,0,0-4.686,2.211.937.937,0,0,0,.12,1.321.9.9,0,0,0,.564.218.936.936,0,0,0,.72-.337,4.381,4.381,0,0,1,3.319-1.538h.372a.908.908,0,0,0,.9-.937A.918.918,0,0,0,19.026,10Zm-3.8-3.125a3.208,3.208,0,0,0,.713-2.559c-.038-.585-.041-.858.267-1.22s.577-.4,1.159-.45a3.2,3.2,0,0,0,2.416-1.1A.938.938,0,0,0,18.35.328c-.308.36-.577.4-1.159.45a3.144,3.144,0,0,0-3.129,3.659c.038.585.041.858-.267,1.22s-.576.4-1.156.449a3.184,3.184,0,0,0-2.414,1.1.939.939,0,0,0,.1,1.324.9.9,0,0,0,1.287-.106c.306-.359.576-.4,1.155-.449A3.2,3.2,0,0,0,15.221,6.875Zm3.492,9.375a1.215,1.215,0,1,0,0,2.43,1.236,1.236,0,0,0,1.215-1.215A1.169,1.169,0,0,0,18.713,16.25Zm0-11.25a1.215,1.215,0,0,0,0,2.43,1.236,1.236,0,0,0,1.215-1.215A1.169,1.169,0,0,0,18.713,5Z" transform="translate(0.002)"/>
</svg>
