<svg xmlns="http://www.w3.org/2000/svg" width="15" height="10" viewBox="0 0 25 20">
  <path id="inventory-solid_1_" data-name="inventory-solid (1)" d="M24.375,0h-1.25A.627.627,0,0,0,22.5.625V6.25H2.5V.625A.627.627,0,0,0,1.875,0H.625A.627.627,0,0,0,0,.625V20H2.5V18.75h20V20H25V.625A.627.627,0,0,0,24.375,0ZM22.5,16.25H2.5V8.75h20ZM14.375,5h3.75a.627.627,0,0,0,.625-.625V.625A.627.627,0,0,0,18.125,0h-3.75a.627.627,0,0,0-.625.625v3.75A.627.627,0,0,0,14.375,5Zm-10,10h3.75a.627.627,0,0,0,.625-.625v-3.75A.627.627,0,0,0,8.125,10H4.375a.627.627,0,0,0-.625.625v3.75A.627.627,0,0,0,4.375,15Zm6.25,0h3.75A.627.627,0,0,0,15,14.375v-3.75A.627.627,0,0,0,14.375,10h-3.75a.627.627,0,0,0-.625.625v3.75A.627.627,0,0,0,10.625,15Z" fill="#ced4d9"/>
</svg>
