<svg xmlns="http://www.w3.org/2000/svg" width="104" height="84" viewBox="0 0 104 84"><defs><style>.a{fill:#95a1ac;}.b{fill:#fff;}</style></defs><g transform="translate(-5321 -4026)"><path class="a" d="M90.625,64H9.375A9.375,9.375,0,0,0,0,73.375v56.25A9.375,9.375,0,0,0,9.375,139h81.25A9.375,9.375,0,0,0,100,129.625V73.375A9.375,9.375,0,0,0,90.625,64Zm-1.172,65.625H10.547a1.172,1.172,0,0,1-1.172-1.172V74.547a1.172,1.172,0,0,1,1.172-1.172H89.453a1.172,1.172,0,0,1,1.172,1.172v53.906A1.172,1.172,0,0,1,89.453,129.625ZM25,81.188A7.813,7.813,0,1,0,32.813,89,7.813,7.813,0,0,0,25,81.188ZM18.75,120.25h62.5V104.625L64.157,87.532a2.344,2.344,0,0,0-3.315,0L37.5,110.875l-7.718-7.718a2.344,2.344,0,0,0-3.315,0l-7.718,7.718Z" transform="translate(5321 3962)"/><g transform="translate(-50 -60)"><circle class="b" cx="20" cy="20" r="20" transform="translate(5435 4130)"/><path class="a" d="M23,8A15,15,0,1,0,38,23,15,15,0,0,0,23,8Zm7.869,7.131A11.13,11.13,0,0,1,32.12,29.383l-15.5-15.5A11.13,11.13,0,0,1,30.869,15.131ZM15.131,30.869A11.13,11.13,0,0,1,13.88,16.617l15.5,15.5A11.13,11.13,0,0,1,15.131,30.869Z" transform="translate(5432 4127)"/></g></g></svg>