<svg xmlns="http://www.w3.org/2000/svg" width="12" height="10.5" viewBox="0 0 12 10.5"><defs><style>.a{fill:#636d76;}</style></defs><path class="a" d="M11.625,38h-4.5a.375.375,0,0,0-.375.375v.75a.375.375,0,0,0,.375.375h4.5A.375.375,0,0,0,12,39.125v-.75A.375.375,0,0,0,11.625,38Zm0,3h-4.5a.375.375,0,0,0-.375.375v.75a.375.375,0,0,0,.375.375h4.5A.375.375,0,0,0,12,42.125v-.75A.375.375,0,0,0,11.625,41Zm0-6h-4.5a.375.375,0,0,0-.375.375v.75a.375.375,0,0,0,.375.375h4.5A.375.375,0,0,0,12,36.125v-.75A.375.375,0,0,0,11.625,35Zm0-3h-4.5a.375.375,0,0,0-.375.375v.75a.375.375,0,0,0,.375.375h4.5A.375.375,0,0,0,12,33.125v-.75A.375.375,0,0,0,11.625,32Zm-6.75,6H.375A.375.375,0,0,0,0,38.375v.75a.375.375,0,0,0,.375.375h4.5a.375.375,0,0,0,.375-.375v-.75A.375.375,0,0,0,4.875,38Zm0,3H.375A.375.375,0,0,0,0,41.375v.75a.375.375,0,0,0,.375.375h4.5a.375.375,0,0,0,.375-.375v-.75A.375.375,0,0,0,4.875,41Zm0-9H.375A.375.375,0,0,0,0,32.375v.75a.375.375,0,0,0,.375.375h4.5a.375.375,0,0,0,.375-.375v-.75A.375.375,0,0,0,4.875,32Zm0,3H.375A.375.375,0,0,0,0,35.375v.75a.375.375,0,0,0,.375.375h4.5a.375.375,0,0,0,.375-.375v-.75A.375.375,0,0,0,4.875,35Z" transform="translate(0 -32)"/></svg>