<svg xmlns="http://www.w3.org/2000/svg" width="17" height="17" viewBox="0 0 17 17"><defs><style>.a{fill:#757575;}</style></defs><path class="a" d="M13.357,39.893v1.214a.457.457,0,0,1-.455.455H9.563V44.9a.457.457,0,0,1-.455.455H7.893a.457.457,0,0,1-.455-.455V41.563H4.1a.457.457,0,0,1-.455-.455V39.893a.457.457,0,0,1,.455-.455H7.438V36.1a.457.457,0,0,1,.455-.455H9.107a.457.457,0,0,1,.455.455v3.339H12.9A.457.457,0,0,1,13.357,39.893ZM17,33.821V47.179A1.822,1.822,0,0,1,15.179,49H1.821A1.822,1.822,0,0,1,0,47.179V33.821A1.822,1.822,0,0,1,1.821,32H15.179A1.822,1.822,0,0,1,17,33.821ZM15.179,46.951v-12.9a.228.228,0,0,0-.228-.228H2.049a.228.228,0,0,0-.228.228v12.9a.228.228,0,0,0,.228.228h12.9A.228.228,0,0,0,15.179,46.951Z" transform="translate(0 -32)"/></svg>