<svg xmlns="http://www.w3.org/2000/svg" width="15" height="15" viewBox="0 0 15 15"><defs><style>.a{fill:#fc7900;}</style></defs><path class="a" d="M19.371,15.016v.968a.364.364,0,0,1-.363.363H16.347v2.661a.364.364,0,0,1-.363.363h-.968a.364.364,0,0,1-.363-.363V16.347H11.992a.364.364,0,0,1-.363-.363v-.968a.364.364,0,0,1,.363-.363h2.661V11.992a.364.364,0,0,1,.363-.363h.968a.364.364,0,0,1,.363.363v2.661h2.661A.364.364,0,0,1,19.371,15.016ZM23,15.5A7.5,7.5,0,1,1,15.5,8,7.5,7.5,0,0,1,23,15.5Zm-1.452,0A6.048,6.048,0,1,0,15.5,21.548,6.047,6.047,0,0,0,21.548,15.5Z" transform="translate(-8 -8)"/></svg>