<svg xmlns="http://www.w3.org/2000/svg" width="10" height="8.749" viewBox="0 0 10 8.749"><defs><style>.a{fill:#2e3b4a;}</style></defs><path class="a" d="M6.5,35.593H5.4V34.5a.313.313,0,0,0-.312-.312H4.778a.313.313,0,0,0-.312.312v1.094H3.372a.313.313,0,0,0-.312.312v.312a.313.313,0,0,0,.312.312H4.466v1.094a.313.313,0,0,0,.312.312h.312a.313.313,0,0,0,.312-.312V36.531H6.5a.313.313,0,0,0,.312-.312v-.312A.313.313,0,0,0,6.5,35.593ZM4.934,32c-2.761,0-5,1.818-5,4.062A3.59,3.59,0,0,0,.968,38.528a4.956,4.956,0,0,1-.906,1.43.469.469,0,0,0,.342.791,4.738,4.738,0,0,0,2.716-.9,6.031,6.031,0,0,0,1.814.279c2.761,0,5-1.818,5-4.062S7.7,32,4.934,32Zm0,7.187A5.075,5.075,0,0,1,3.4,38.95L2.96,38.81l-.381.269a4.2,4.2,0,0,1-1.123.566,4.9,4.9,0,0,0,.389-.785l.207-.549-.4-.426a2.686,2.686,0,0,1-.777-1.824c0-1.722,1.822-3.125,4.062-3.125S9,34.34,9,36.062,7.174,39.187,4.934,39.187Z" transform="translate(0.066 -32)"/></svg>