<svg xmlns="http://www.w3.org/2000/svg" width="34.192" height="30.192" viewBox="0 0 34.192 30.192">
  <g id="Group_4482" data-name="Group 4482" transform="translate(-1026.25 -56)">
    <path id="bullseye-solid" d="M15.25,8a15,15,0,1,0,15,15A15,15,0,0,0,15.25,8Zm0,26a11,11,0,0,1,0-22,11,11,0,0,1,0,22Zm0-19a8.19,8.19,0,0,0-8,8,8.19,8.19,0,0,0,8,8c4.276,0,7-3.724,7-8S19.526,15,15.25,15Zm0,12a4,4,0,0,1,0-8,4,4,0,0,1,0,8Z" transform="translate(1026 48)" fill="#fff"/>
    <ellipse id="Ellipse_5" data-name="Ellipse 5" cx="8" cy="8.5" rx="8" ry="8.5" transform="translate(1044.25 69)" fill="#3b4557"/>
    <path id="search-solid" d="M13.75,12l-3-3c-.123-.123.175,0,0,0h-1c.755-.965,2-1.679,2-3a6.234,6.234,0,0,0-6-6,6.234,6.234,0,0,0-6,6c0,3.142,2.858,5,6,5a4.177,4.177,0,0,0,3-1v1c0,.175.877-.123,1,0l2,3a.745.745,0,0,0,1,0l1-1A.748.748,0,0,0,13.75,12Zm-8-3c-1.933,0-4-1.064-4-3a4.412,4.412,0,0,1,4-4c1.933,0,3,2.064,3,4A2.706,2.706,0,0,1,5.75,9Z" transform="translate(1046.5 71.998)" fill="#fff"/>
  </g>
</svg>
