<svg xmlns="http://www.w3.org/2000/svg" width="25" height="28.571" viewBox="0 0 25 28.571"><defs><style>.a{fill:#fff;}</style></defs><path class="a" d="M25,4.082V6.633c0,2.248-5.6,4.082-12.5,4.082S0,8.881,0,6.633V4.082C0,1.834,5.6,0,12.5,0S25,1.834,25,4.082Zm0,5.74v5.74c0,2.248-5.6,4.082-12.5,4.082S0,17.809,0,15.561V9.821c2.686,1.849,7.6,2.71,12.5,2.71S22.314,11.671,25,9.821Zm0,8.929v5.74c0,2.248-5.6,4.082-12.5,4.082S0,26.738,0,24.49V18.75c2.686,1.849,7.6,2.71,12.5,2.71S22.314,20.6,25,18.75Z"/></svg>