<svg xmlns="http://www.w3.org/2000/svg" width="34.5" height="30" viewBox="0 0 34.5 30"><defs><style>.a{fill:#fff;}.b{fill:#3b4557;}</style></defs><g transform="translate(-1026 -56)"><path class="a" d="M15,8A15,15,0,1,0,30,23,15,15,0,0,0,15,8Zm0,26.129A11.129,11.129,0,1,1,26.129,23,11.123,11.123,0,0,1,15,34.129Zm0-18.871A7.742,7.742,0,1,0,22.742,23,7.742,7.742,0,0,0,15,15.258Zm0,11.613A3.871,3.871,0,1,1,18.871,23,3.875,3.875,0,0,1,15,26.871Z" transform="translate(1026 48)"/><ellipse class="b" cx="8" cy="8.286" rx="8" ry="8.286" transform="translate(1044.5 69.429)"/><path class="a" d="M13.81,12.106,11.083,9.38a.656.656,0,0,0-.465-.191h-.446a5.685,5.685,0,1,0-.984.984v.446a.656.656,0,0,0,.191.465l2.726,2.726a.654.654,0,0,0,.927,0l.774-.774A.659.659,0,0,0,13.81,12.106ZM5.688,9.188a3.5,3.5,0,1,1,3.5-3.5A3.5,3.5,0,0,1,5.688,9.188Z" transform="translate(1046.5 71.998)"/></g></svg>