<svg xmlns="http://www.w3.org/2000/svg" width="25" height="25" viewBox="0 0 25 25"><defs><style>.a{fill:#fff;}</style></defs><path class="a" d="M12.515,12.01a1.172,1.172,0,0,0-1.172,1.172,35.705,35.705,0,0,1-1.353,10.33,1.172,1.172,0,1,0,2.256.633,37.792,37.792,0,0,0,1.439-10.963A1.171,1.171,0,0,0,12.515,12.01Zm-.042-3.991a4.884,4.884,0,0,0-5.037,4.936,32.036,32.036,0,0,1-.653,6.961,1.172,1.172,0,1,0,2.295.475,34.377,34.377,0,0,0,.7-7.472,2.544,2.544,0,0,1,2.659-2.556,2.826,2.826,0,0,1,2.814,2.709,39.256,39.256,0,0,1-.518,7.009,1.171,1.171,0,1,0,2.312.381,41.651,41.651,0,0,0,.55-7.427,5.188,5.188,0,0,0-5.123-5.016Zm-5.4-.966a1.173,1.173,0,0,0-1.648.17,8.469,8.469,0,0,0-1.892,5.469,28.357,28.357,0,0,1-.445,5.471,1.172,1.172,0,0,0,2.307.417,30.712,30.712,0,0,0,.481-5.924A6.035,6.035,0,0,1,7.239,8.7a1.173,1.173,0,0,0-.17-1.648ZM12.413,4.01a8.728,8.728,0,0,0-2.235.243,1.172,1.172,0,0,0,.54,2.281,7.008,7.008,0,0,1,1.66-.18,6.835,6.835,0,0,1,6.781,6.571,43.022,43.022,0,0,1-.272,5.548,1.172,1.172,0,1,0,2.329.267,45.366,45.366,0,0,0,.288-5.852,9.2,9.2,0,0,0-9.09-8.879ZM24.722,9.94a1.172,1.172,0,1,0-2.289.5,12.176,12.176,0,0,1,.229,3.008,1.172,1.172,0,0,0,1.162,1.182h.01a1.172,1.172,0,0,0,1.172-1.162,14.51,14.51,0,0,0-.285-3.532ZM22.763,5.51A12.989,12.989,0,0,0,12.353,0a12.231,12.231,0,0,0-8.9,3.561A11.645,11.645,0,0,0,.016,12.044L.01,13.092A1.171,1.171,0,0,0,1.147,14.3h.035a1.172,1.172,0,0,0,1.17-1.138l.008-1.154A9.315,9.315,0,0,1,5.108,5.219a9.9,9.9,0,0,1,7.211-2.874,10.638,10.638,0,0,1,8.526,4.511A1.171,1.171,0,1,0,22.763,5.51Z" transform="translate(-0.009 0)"/></svg>