<svg xmlns="http://www.w3.org/2000/svg" width="25" height="25" viewBox="0 0 25 25"><defs><style>.a{fill:#fff;}</style></defs><path class="a" d="M24.66,21.614l-4.869-4.868a1.171,1.171,0,0,0-.83-.342h-.8a10.154,10.154,0,1,0-1.758,1.757v.8a1.171,1.171,0,0,0,.342.83l4.869,4.868a1.167,1.167,0,0,0,1.655,0l1.382-1.382a1.177,1.177,0,0,0,0-1.66Zm-14.5-4.429a7.03,7.03,0,1,1,7.031-7.03A7.027,7.027,0,0,1,10.157,17.185Zm1.324-7.448-2.2-.659a.638.638,0,0,1-.428-.622.614.614,0,0,1,.576-.644H10.8a1.17,1.17,0,0,1,.626.182.4.4,0,0,0,.495-.036l.574-.547a.391.391,0,0,0-.028-.593,2.8,2.8,0,0,0-1.532-.554v-.8a.391.391,0,0,0-.391-.391H9.767a.391.391,0,0,0-.391.391v.787a2.174,2.174,0,0,0-2.084,2.2,2.21,2.21,0,0,0,1.542,2.119l2.2.659a.638.638,0,0,1,.428.622.614.614,0,0,1-.576.644H9.512a1.17,1.17,0,0,1-.626-.182.4.4,0,0,0-.495.036l-.574.547a.391.391,0,0,0,.028.593,2.8,2.8,0,0,0,1.532.554v.8a.391.391,0,0,0,.391.391h.781a.391.391,0,0,0,.391-.391v-.787a2.174,2.174,0,0,0,2.084-2.2,2.21,2.21,0,0,0-1.542-2.119Z" transform="translate(0)"/></svg>