<svg xmlns="http://www.w3.org/2000/svg" xmlns:xlink="http://www.w3.org/1999/xlink" width="32" height="27.502" viewBox="0 0 32 27.502">
  <defs>
    <linearGradient id="linear-gradient" x1="0.5" x2="0.5" y2="1" gradientUnits="objectBoundingBox">
      <stop offset="0" stop-color="#ce42c3"/>
      <stop offset="1" stop-color="#04f1ff"/>
    </linearGradient>
  </defs>
  <g id="Group_4477" data-name="Group 4477" transform="translate(-1028.5 -58.498)">
    <path id="bullseye-solid" d="M12.5,8A12.5,12.5,0,1,0,25,20.5,12.5,12.5,0,0,0,12.5,8Zm0,21.774A9.274,9.274,0,1,1,21.774,20.5,9.269,9.269,0,0,1,12.5,29.774Zm0-15.726A6.452,6.452,0,1,0,18.952,20.5,6.452,6.452,0,0,0,12.5,14.048Zm0,9.677A3.226,3.226,0,1,1,15.726,20.5,3.229,3.229,0,0,1,12.5,23.726Z" transform="translate(1028.5 50.498)" fill="url(#linear-gradient)"/>
    <ellipse id="Ellipse_5" data-name="Ellipse 5" cx="8" cy="8.286" rx="8" ry="8.286" transform="translate(1044.5 69.429)" fill="#1e1e1e"/>
    <path id="search-solid" d="M13.81,12.106,11.083,9.38a.656.656,0,0,0-.465-.191h-.446a5.685,5.685,0,1,0-.984.984v.446a.656.656,0,0,0,.191.465l2.726,2.726a.654.654,0,0,0,.927,0l.774-.774A.659.659,0,0,0,13.81,12.106ZM5.688,9.188a3.5,3.5,0,1,1,3.5-3.5A3.5,3.5,0,0,1,5.688,9.188Z" transform="translate(1046.5 71.998)" fill="#fff"/>
  </g>
</svg>
