<svg xmlns="http://www.w3.org/2000/svg" xmlns:xlink="http://www.w3.org/1999/xlink" width="25" height="20" viewBox="0 0 25 20">
  <defs>
    <linearGradient id="linear-gradient" x1="0.5" x2="0.5" y2="1" gradientUnits="objectBoundingBox">
      <stop offset="0" stop-color="#ce42c3"/>
      <stop offset="1" stop-color="#04f1ff"/>
    </linearGradient>
  </defs>
  <path id="inventory-solid_1_" data-name="inventory-solid (1)" d="M24.375,0h-1.25A.627.627,0,0,0,22.5.625V6.25H2.5V.625A.627.627,0,0,0,1.875,0H.625A.627.627,0,0,0,0,.625V20H2.5V18.75h20V20H25V.625A.627.627,0,0,0,24.375,0ZM22.5,16.25H2.5V8.75h20ZM14.375,5h3.75a.627.627,0,0,0,.625-.625V.625A.627.627,0,0,0,18.125,0h-3.75a.627.627,0,0,0-.625.625v3.75A.627.627,0,0,0,14.375,5Zm-10,10h3.75a.627.627,0,0,0,.625-.625v-3.75A.627.627,0,0,0,8.125,10H4.375a.627.627,0,0,0-.625.625v3.75A.627.627,0,0,0,4.375,15Zm6.25,0h3.75A.627.627,0,0,0,15,14.375v-3.75A.627.627,0,0,0,14.375,10h-3.75a.627.627,0,0,0-.625.625v3.75A.627.627,0,0,0,10.625,15Z" fill="url(#linear-gradient)"/>
</svg>
