<svg xmlns="http://www.w3.org/2000/svg" xmlns:xlink="http://www.w3.org/1999/xlink" width="30" height="26.69" viewBox="0 0 30 26.69">
  <defs>
    <linearGradient id="linear-gradient" x1="0.5" x2="0.5" y2="1" gradientUnits="objectBoundingBox">
      <stop offset="0" stop-color="#ce42c3"/>
      <stop offset="1" stop-color="#04f1ff"/>
    </linearGradient>
  </defs>
  <g id="Group_4475" data-name="Group 4475" transform="translate(-1327.5 -216)">
    <path id="file-solid" d="M11.667,7.083V0H1.25A1.247,1.247,0,0,0,0,1.25V25.417a1.247,1.247,0,0,0,1.25,1.25h17.5A1.247,1.247,0,0,0,20,25.417V8.333H12.917A1.254,1.254,0,0,1,11.667,7.083ZM20,6.349v.318H13.333V0h.318a1.249,1.249,0,0,1,.885.365l5.1,5.1A1.246,1.246,0,0,1,20,6.349Z" transform="translate(1327.5 216.024)" fill="url(#linear-gradient)"/>
    <ellipse id="Ellipse_4" data-name="Ellipse 4" cx="8" cy="8.286" rx="8" ry="8.286" transform="translate(1341.5 225)" fill="#1e1e1e"/>
    <path id="search-solid" d="M13.81,12.106,11.083,9.38a.656.656,0,0,0-.465-.191h-.446a5.685,5.685,0,1,0-.984.984v.446a.656.656,0,0,0,.191.465l2.726,2.726a.654.654,0,0,0,.927,0l.774-.774A.659.659,0,0,0,13.81,12.106ZM5.688,9.188a3.5,3.5,0,1,1,3.5-3.5A3.5,3.5,0,0,1,5.688,9.188Z" transform="translate(1343.5 227.569)" fill="#fff"/>
    <text id="c_s_v" data-name="c
s
v" transform="translate(1331 225)" fill="#3b4557" font-size="10" font-family="WorkSans-ExtraBold, Work Sans" font-weight="800"><tspan x="0" y="0">c</tspan><tspan x="0" y="7">s</tspan><tspan x="0" y="14">v</tspan></text>
  </g>
</svg>
