<svg xmlns="http://www.w3.org/2000/svg" xmlns:xlink="http://www.w3.org/1999/xlink" width="33" height="25" viewBox="0 0 33 25">
  <defs>
    <linearGradient id="linear-gradient" x1="0.5" x2="0.5" y2="1" gradientUnits="objectBoundingBox">
      <stop offset="0" stop-color="#ce42c3"/>
      <stop offset="1" stop-color="#04f1ff"/>
    </linearGradient>
  </defs>
  <g id="Group_5208" data-name="Group 5208" transform="translate(-6470 -2322)">
    <path id="font-solid" d="M24.107,53.429H22.8L15.507,33.21A1.786,1.786,0,0,0,13.816,32H11.184a1.786,1.786,0,0,0-1.691,1.211L2.2,53.429H.893A.893.893,0,0,0,0,54.321v1.786A.893.893,0,0,0,.893,57H8.036a.893.893,0,0,0,.893-.893V54.321a.893.893,0,0,0-.893-.893H6.943l1.3-3.571h8.513l1.3,3.571H16.964a.893.893,0,0,0-.893.893v1.786a.893.893,0,0,0,.893.893h7.143A.893.893,0,0,0,25,56.107V54.321A.893.893,0,0,0,24.107,53.429ZM9.869,45.393,12.5,38.167l2.631,7.226Z" transform="translate(6470 2290)" fill="url(#linear-gradient)"/>
    <ellipse id="Ellipse_285" data-name="Ellipse 285" cx="8" cy="8.5" rx="8" ry="8.5" transform="translate(6487 2330)" fill="#1e1e1e"/>
    <path id="search-solid" d="M13.81,12.106,11.083,9.38a.656.656,0,0,0-.465-.191h-.446a5.685,5.685,0,1,0-.984.984v.446a.656.656,0,0,0,.191.465l2.726,2.726a.654.654,0,0,0,.927,0l.774-.774A.659.659,0,0,0,13.81,12.106ZM5.688,9.188a3.5,3.5,0,1,1,3.5-3.5A3.5,3.5,0,0,1,5.688,9.188Z" transform="translate(6489 2332.569)" fill="#fff"/>
  </g>
</svg>
