<svg xmlns="http://www.w3.org/2000/svg" width="20" height="20" viewBox="0 0 20 20"><defs><style>.a{fill:#fc7900;}</style></defs><path class="a" d="M20,10a3.436,3.436,0,0,0-2.23-3.219A3.437,3.437,0,0,0,13.219,2.23a3.438,3.438,0,0,0-6.437,0A3.437,3.437,0,0,0,2.23,6.781a3.438,3.438,0,0,0,0,6.438A3.437,3.437,0,0,0,6.781,17.77a3.438,3.438,0,0,0,6.438,0,3.437,3.437,0,0,0,4.551-4.551A3.436,3.436,0,0,0,20,10ZM14.344,8.271,9.225,13.349a.429.429,0,0,1-.607,0L5.66,10.365a.43.43,0,0,1,0-.608L6.679,8.749a.43.43,0,0,1,.608,0l1.646,1.66,3.8-3.766a.429.429,0,0,1,.607,0l1.009,1.017a.43.43,0,0,1,0,.608Z"/></svg>