<svg xmlns="http://www.w3.org/2000/svg" width="28" height="23.286" viewBox="0 0 28 23.286"><defs><style>.a{fill:#fff;}.b{fill:#3b4557;}</style></defs><g transform="translate(-1403 -232.714)"><path class="a" d="M10,11.429A5.714,5.714,0,1,0,4.286,5.714,5.714,5.714,0,0,0,10,11.429Zm4,1.429h-.746a7.771,7.771,0,0,1-6.509,0H6a6,6,0,0,0-6,6v1.857a2.143,2.143,0,0,0,2.143,2.143H17.857A2.143,2.143,0,0,0,20,20.714V18.857A6,6,0,0,0,14,12.857Z" transform="translate(1403 232.714)"/><ellipse class="b" cx="8" cy="8.5" rx="8" ry="8.5" transform="translate(1415 239)"/><path class="a" d="M13.81,12.106,11.083,9.38a.656.656,0,0,0-.465-.191h-.446a5.685,5.685,0,1,0-.984.984v.446a.656.656,0,0,0,.191.465l2.726,2.726a.654.654,0,0,0,.927,0l.774-.774A.659.659,0,0,0,13.81,12.106ZM5.688,9.188a3.5,3.5,0,1,1,3.5-3.5A3.5,3.5,0,0,1,5.688,9.188Z" transform="translate(1417 241.569)"/></g></svg>