<svg xmlns="http://www.w3.org/2000/svg" width="28.192" height="23.192" viewBox="0 0 28.192 23.192">
  <g id="Group_4479" data-name="Group 4479" transform="translate(-1403 -232.714)">
    <path id="user-solid" d="M10,11c3.156,0,6-1.844,6-5a6.214,6.214,0,0,0-6-6A6.214,6.214,0,0,0,4,6C4,9.156,6.844,11,10,11Zm4,2H13a6.955,6.955,0,0,1-3,1,6.975,6.975,0,0,1-3-1H6a6,6,0,0,0-6,6v2a1.908,1.908,0,0,0,2,2H18a1.908,1.908,0,0,0,2-2V19A6,6,0,0,0,14,13Z" transform="translate(1403 232.714)" fill="#fff"/>
    <ellipse id="Ellipse_1" data-name="Ellipse 1" cx="8" cy="8.5" rx="8" ry="8.5" transform="translate(1415 238.715)" fill="#1e1e1e"/>
    <path id="search-solid" d="M14,12.145l-3-3c-.123-.123.175,0,0,0H10a4.177,4.177,0,0,0,1-3c0-3.142-1.858-6-5-6a6.234,6.234,0,0,0-6,6c0,3.142,2.858,5,6,5a4.177,4.177,0,0,0,3-1H9c0,.175-.123.877,0,1l3,3a.745.745,0,0,0,1,0l1-1A.748.748,0,0,0,14,12.145Zm-8-3c-1.933,0-4-1.064-4-3a4.412,4.412,0,0,1,4-4c1.933,0,3,2.064,3,4A2.706,2.706,0,0,1,6,9.145Z" transform="translate(1417 241.569)" fill="#fff"/>
  </g>
</svg>
