<svg width="40" height="32" viewBox="0 0 40 32" fill="none" xmlns="http://www.w3.org/2000/svg">
<g clip-path="url(#clip0_4:6)">
<path d="M39.4147 22.808L33.7707 17.1707C33.3981 16.7983 32.9557 16.5033 32.4688 16.3024C31.9818 16.1015 31.4601 15.9987 30.9333 16H25.9827C25.4522 16 24.9435 16.2107 24.5685 16.5858C24.1934 16.9609 23.9827 17.4696 23.9827 18V22.9507C23.9821 23.4754 24.085 23.9951 24.2857 24.4799C24.4863 24.9647 24.7807 25.4052 25.152 25.776L30.8 31.4147C30.9858 31.6009 31.2065 31.7487 31.4495 31.8495C31.6924 31.9503 31.9529 32.0022 32.216 32.0022C32.4791 32.0022 32.7396 31.9503 32.9825 31.8495C33.2255 31.7487 33.4462 31.6009 33.632 31.4147L39.4133 25.6333C39.5998 25.4484 39.7478 25.2284 39.8489 24.986C39.9499 24.7436 40.002 24.4836 40.0021 24.2209C40.0022 23.9583 39.9504 23.6983 39.8496 23.4558C39.7488 23.2133 39.6009 22.9931 39.4147 22.808V22.808ZM27.9893 21.496C27.6925 21.496 27.4023 21.4079 27.1556 21.2429C26.9088 21.0779 26.7165 20.8434 26.6031 20.5691C26.4897 20.2948 26.4603 19.993 26.5185 19.7019C26.5767 19.4108 26.7199 19.1435 26.9301 18.9339C27.1403 18.7243 27.4079 18.5818 27.6992 18.5243C27.9904 18.4669 28.2921 18.4972 28.5661 18.6113C28.8402 18.7255 29.0741 18.9184 29.2385 19.1656C29.4028 19.4128 29.4901 19.7032 29.4893 20C29.4892 20.1967 29.4502 20.3914 29.3747 20.573C29.2992 20.7546 29.1886 20.9196 29.0493 21.0584C28.91 21.1972 28.7446 21.3072 28.5627 21.3821C28.3809 21.4569 28.186 21.4952 27.9893 21.4947V21.496ZM14 16C15.5822 16 17.129 15.5308 18.4446 14.6518C19.7602 13.7727 20.7855 12.5233 21.391 11.0615C21.9965 9.59966 22.155 7.99113 21.8463 6.43928C21.5376 4.88743 20.7757 3.46197 19.6569 2.34315C18.538 1.22433 17.1126 0.462399 15.5607 0.153718C14.0089 -0.154964 12.4003 0.00346247 10.9385 0.608964C9.47672 1.21446 8.22729 2.23984 7.34824 3.55544C6.46919 4.87103 6 6.41775 6 8C6 10.1217 6.84285 12.1566 8.34315 13.6569C9.84344 15.1571 11.8783 16 14 16ZM21.988 22.9507V18.376C21.2149 18.1322 20.4105 18.0016 19.6 17.988H18.556C17.1273 18.6469 15.5727 18.9882 13.9993 18.9882C12.426 18.9882 10.8714 18.6469 9.44267 17.988H8.4C6.17108 17.9912 4.03453 18.8788 2.45957 20.4561C0.884612 22.0333 -2.26792e-06 24.1711 0 26.4L0 29C0.000353338 29.7955 0.316537 30.5584 0.87907 31.1209C1.4416 31.6835 2.20446 31.9996 3 32H25C25.4592 31.9985 25.9118 31.8911 26.3227 31.6862C26.7336 31.4813 27.0918 31.1845 27.3693 30.8187L23.744 27.1933C23.1852 26.6372 22.7423 25.9757 22.4409 25.2472C22.1394 24.5187 21.9855 23.7377 21.988 22.9493V22.9507Z" fill="white"/>
</g>
<defs>
<clipPath id="clip0_4:6">
<rect width="40" height="32" fill="white"/>
</clipPath>
</defs>
</svg>
