<svg xmlns="http://www.w3.org/2000/svg" width="12" height="12.381" viewBox="0 0 12 12.381"><defs><style>.a{fill:#636d76;}</style></defs><path class="a" d="M26.545,13.716l.795-.459a.6.6,0,0,0,.279-.675,6.18,6.18,0,0,0-1.6-2.766.6.6,0,0,0-.724-.1l-.793.458a4.9,4.9,0,0,0-.821-.475V8.787a.6.6,0,0,0-.445-.579,6.231,6.231,0,0,0-3.194,0,.6.6,0,0,0-.445.579V9.7a4.9,4.9,0,0,0-.821.475l-.793-.458a.6.6,0,0,0-.724.1,6.18,6.18,0,0,0-1.6,2.766.6.6,0,0,0,.279.675l.795.459a4.935,4.935,0,0,0,0,.949l-.795.459a.6.6,0,0,0-.279.675,6.18,6.18,0,0,0,1.6,2.766.6.6,0,0,0,.724.1l.793-.458a4.9,4.9,0,0,0,.821.475v.917a.6.6,0,0,0,.445.579,6.231,6.231,0,0,0,3.194,0,.6.6,0,0,0,.445-.579v-.917A4.9,4.9,0,0,0,24.5,18.2l.793.458a.6.6,0,0,0,.724-.1,6.18,6.18,0,0,0,1.6-2.766.6.6,0,0,0-.279-.675l-.795-.459A4.936,4.936,0,0,0,26.545,13.716ZM25.23,15.289l1.094.631a5,5,0,0,1-.845,1.461l-1.094-.632a4.253,4.253,0,0,1-1.9,1.1v1.263a5.015,5.015,0,0,1-1.688,0V17.849a4.253,4.253,0,0,1-1.9-1.1l-1.094.632a5,5,0,0,1-.845-1.461l1.094-.631a4.3,4.3,0,0,1,0-2.2l-1.094-.631A5,5,0,0,1,17.8,11l1.094.632a4.252,4.252,0,0,1,1.9-1.1V9.269a5.015,5.015,0,0,1,1.688,0v1.263a4.253,4.253,0,0,1,1.9,1.1L25.479,11a5,5,0,0,1,.845,1.461l-1.094.631a4.3,4.3,0,0,1,0,2.2Zm-3.591-3.5a2.4,2.4,0,1,0,2.4,2.4A2.4,2.4,0,0,0,21.64,11.794Zm0,3.595a1.2,1.2,0,1,1,1.2-1.2A1.2,1.2,0,0,1,21.64,15.388Z" transform="translate(-15.64 -8)"/></svg>