<svg xmlns="http://www.w3.org/2000/svg" width="15" height="15" viewBox="0 0 15 15"><defs><style>.a{fill:#349af8;}</style></defs><path class="a" d="M13.393,32H1.607A1.608,1.608,0,0,0,0,33.607V45.393A1.608,1.608,0,0,0,1.607,47H13.393A1.608,1.608,0,0,0,15,45.393V33.607A1.608,1.608,0,0,0,13.393,32ZM6.7,38.429h-.8v6.027a.4.4,0,0,1-.4.4H4.152a.4.4,0,0,1-.4-.4V38.429h-.8a.8.8,0,0,1-.8-.8v-.536a.8.8,0,0,1,.8-.8h.8V34.545a.4.4,0,0,1,.4-.4H5.491a.4.4,0,0,1,.4.4v1.741h.8a.8.8,0,0,1,.8.8v.536A.8.8,0,0,1,6.7,38.429Zm6.161,3.482a.8.8,0,0,1-.8.8h-.8v1.741a.4.4,0,0,1-.4.4H9.509a.4.4,0,0,1-.4-.4V42.714H8.3a.8.8,0,0,1-.8-.8v-.536a.8.8,0,0,1,.8-.8h.8V34.545a.4.4,0,0,1,.4-.4h1.339a.4.4,0,0,1,.4.4v6.027h.8a.8.8,0,0,1,.8.8Z" transform="translate(0 -32)"/></svg>