<svg xmlns="http://www.w3.org/2000/svg" width="20" height="20" viewBox="0 0 20 20">
  <path id="square-poll-horizontal-solid" d="M20,49.143A2.86,2.86,0,0,1,17.143,52H2.857A2.858,2.858,0,0,1,0,49.143V34.857A2.857,2.857,0,0,1,2.857,32H17.143A2.858,2.858,0,0,1,20,34.857ZM11.429,37.714A1.427,1.427,0,0,0,10,36.286H5.714a1.429,1.429,0,1,0,0,2.857H10A1.427,1.427,0,0,0,11.429,37.714ZM5.714,40.571a1.429,1.429,0,0,0,0,2.857h8.571a1.429,1.429,0,0,0,0-2.857Zm2.857,5.714a1.427,1.427,0,0,0-1.429-1.429H5.714a1.429,1.429,0,1,0,0,2.857H7.143A1.427,1.427,0,0,0,8.571,46.286Z" transform="translate(0 -32)" fill="#fff"/>
</svg>
