<svg xmlns="http://www.w3.org/2000/svg" width="15" height="14.328" viewBox="0 0 15 14.328">
  <path id="star-half-alt" d="M14.227,4.8l-4.1-.6L8.3.5A.9.9,0,0,0,6.691.5L4.86,4.2l-4.1.6a.9.9,0,0,0-.5,1.528L3.231,9.209l-.7,4.071a.9.9,0,0,0,.885,1.048.884.884,0,0,0,.416-.1L7.495,12.3l3.664,1.923a.9.9,0,0,0,1.3-.943l-.7-4.072,2.964-2.882a.9.9,0,0,0-.5-1.528ZM10.82,8.247l-.507.493.12.7.546,3.175-2.858-1.5L7.5,10.783V1.907L8.924,4.8l.313.633.7.1,3.2.465Z" transform="translate(0.004)" fill="#f0bd39"/>
</svg>
