<svg xmlns="http://www.w3.org/2000/svg" width="111.999" height="20" viewBox="0 0 111.999 20">
  <g id="Group_7003" data-name="Group 7003" transform="translate(13962 19279)">
    <path id="star-sharp-solid" d="M12.875,6.875h6.188a.936.936,0,0,1,.574,1.676l-5.109,3.977,1.992,6.25A.937.937,0,0,1,15.051,19.8L10,15.875,4.949,19.8a.936.936,0,0,1-1.468-1.023l1.991-6.25L.362,8.551A.936.936,0,0,1,.937,6.875H7.129L9.105.653a.939.939,0,0,1,1.789,0Z" transform="translate(-13962 -19279)" fill="#fff"/>
    <path id="star-sharp-solid-2" data-name="star-sharp-solid" d="M12.875,6.875h6.188a.936.936,0,0,1,.574,1.676l-5.109,3.977,1.992,6.25A.937.937,0,0,1,15.051,19.8L10,15.875,4.949,19.8a.936.936,0,0,1-1.468-1.023l1.991-6.25L.362,8.551A.936.936,0,0,1,.937,6.875H7.129L9.105.653a.939.939,0,0,1,1.789,0Z" transform="translate(-13939 -19279)" fill="#fff"/>
    <path id="star-sharp-solid-3" data-name="star-sharp-solid" d="M12.875,6.875h6.188a.936.936,0,0,1,.574,1.676l-5.109,3.977,1.992,6.25A.937.937,0,0,1,15.051,19.8L10,15.875,4.949,19.8a.936.936,0,0,1-1.468-1.023l1.991-6.25L.362,8.551A.936.936,0,0,1,.937,6.875H7.129L9.105.653a.939.939,0,0,1,1.789,0Z" transform="translate(-13916 -19279)" fill="#fff"/>
    <path id="star-sharp-solid-4" data-name="star-sharp-solid" d="M12.875,6.875h6.188a.936.936,0,0,1,.574,1.676l-5.109,3.977,1.992,6.25A.937.937,0,0,1,15.051,19.8L10,15.875,4.949,19.8a.936.936,0,0,1-1.468-1.023l1.991-6.25L.362,8.551A.936.936,0,0,1,.937,6.875H7.129L9.105.653a.939.939,0,0,1,1.789,0Z" transform="translate(-13893 -19279)" fill="#fff"/>
    <path id="star-sharp-solid-5" data-name="star-sharp-solid" d="M12.875,6.875h6.188a.936.936,0,0,1,.574,1.676l-5.109,3.977,1.992,6.25A.937.937,0,0,1,15.051,19.8L10,15.875,4.949,19.8a.936.936,0,0,1-1.468-1.023l1.991-6.25L.362,8.551A.936.936,0,0,1,.937,6.875H7.129L9.105.653a.939.939,0,0,1,1.789,0Z" transform="translate(-13870 -19279)" fill="#fff"/>
  </g>
</svg>
