<svg xmlns="http://www.w3.org/2000/svg" width="22.857" height="20" viewBox="0 0 22.857 20">
  <path id="thumbs-up-solid_1_" data-name="thumbs-up-solid (1)" d="M5.714,50.531v-10a1.4,1.4,0,0,0-1.429-1.388H1.429A1.421,1.421,0,0,0,0,40.531v9.96a1.4,1.4,0,0,0,1.429,1.388H4.286A1.3,1.3,0,0,0,5.714,50.531Zm17.143-9.955a2.142,2.142,0,0,0-2.143-2.142h-6.54a10.9,10.9,0,0,0,1.541-4.287A2.159,2.159,0,0,0,13.5,32c-2.818,0-1.177,3.4-4.83,6.321l-.728.58a2.151,2.151,0,0,0-.8,1.67h0l0,7.143A2.142,2.142,0,0,0,8,49.428l1.524,1.142A7.123,7.123,0,0,0,13.808,52h2.621a2.129,2.129,0,0,0,2.087-2.613,2.12,2.12,0,0,0,1.165-3.141A2.129,2.129,0,0,0,20.861,42.7,2.136,2.136,0,0,0,22.857,40.576Z" transform="translate(0 -32)" fill="#fff"/>
</svg>
