<svg width="35" height="35" viewBox="0 0 35 35" fill="none" xmlns="http://www.w3.org/2000/svg">
<g clip-path="url(#clip0)">
<path d="M34.9999 17.4999C35.0006 16.2755 34.6275 15.0802 33.9306 14.0736C33.2337 13.067 32.2461 12.2971 31.0999 11.8669C31.6076 10.7519 31.7628 9.5084 31.5446 8.30281C31.3265 7.09723 30.7453 5.98701 29.879 5.12069C29.0127 4.25436 27.9025 3.67325 26.6969 3.45507C25.4913 3.2369 24.2478 3.39208 23.1329 3.89985C22.7029 2.75315 21.9332 1.765 20.9266 1.06742C19.92 0.369852 18.7245 -0.00390625 17.4999 -0.00390625C16.2752 -0.00390625 15.0797 0.369852 14.0731 1.06742C13.0665 1.765 12.2968 2.75315 11.8669 3.89985C10.7519 3.39208 9.5084 3.2369 8.30281 3.45507C7.09723 3.67325 5.98701 4.25436 5.12069 5.12069C4.25436 5.98701 3.67325 7.09723 3.45507 8.30281C3.2369 9.5084 3.39208 10.7519 3.89985 11.8669C2.75315 12.2968 1.765 13.0665 1.06742 14.0731C0.369852 15.0797 -0.00390625 16.2752 -0.00390625 17.4999C-0.00390625 18.7245 0.369852 19.92 1.06742 20.9266C1.765 21.9332 2.75315 22.7029 3.89985 23.1329C3.39208 24.2478 3.2369 25.4913 3.45507 26.6969C3.67325 27.9025 4.25436 29.0127 5.12069 29.879C5.98701 30.7453 7.09723 31.3265 8.30281 31.5446C9.5084 31.7628 10.7519 31.6076 11.8669 31.0999C12.2968 32.2465 13.0665 33.2347 14.0731 33.9323C15.0797 34.6298 16.2752 35.0036 17.4999 35.0036C18.7245 35.0036 19.92 34.6298 20.9266 33.9323C21.9332 33.2347 22.7029 32.2465 23.1329 31.0999C24.2478 31.6076 25.4913 31.7628 26.6969 31.5446C27.9025 31.3265 29.0127 30.7453 29.879 29.879C30.7453 29.0127 31.3265 27.9025 31.5446 26.6969C31.7628 25.4913 31.6076 24.2478 31.0999 23.1329C32.2461 22.7026 33.2337 21.9327 33.9306 20.9261C34.6275 19.9195 35.0006 18.7242 34.9999 17.4999V17.4999Z" fill="#95A1AC"/>
<path d="M12.9957 23.18C11.9517 23.18 11.0697 22.964 10.3497 22.532C9.64166 22.1 9.05966 21.44 8.60366 20.552L10.8357 19.436C10.9917 19.964 11.2377 20.39 11.5737 20.714C11.9097 21.038 12.4017 21.2 13.0497 21.2C13.7097 21.2 14.2257 21.026 14.5977 20.678C14.9817 20.33 15.1737 19.832 15.1737 19.184C15.1737 18.536 14.9937 18.044 14.6337 17.708C14.2857 17.372 13.7757 17.204 13.1037 17.204C12.1197 17.204 11.3937 17.492 10.9257 18.068L8.98166 17.708L9.71966 11.12H16.9017V13.118H11.5917L11.2317 16.016L11.1777 16.25H11.2137C11.4657 15.974 11.8077 15.758 12.2397 15.602C12.6837 15.434 13.1877 15.35 13.7517 15.35C14.5197 15.35 15.1797 15.506 15.7317 15.818C16.2957 16.13 16.7277 16.568 17.0277 17.132C17.3277 17.684 17.4777 18.32 17.4777 19.04C17.4777 19.952 17.2737 20.72 16.8657 21.344C16.4697 21.956 15.9297 22.418 15.2457 22.73C14.5737 23.03 13.8237 23.18 12.9957 23.18ZM24.0482 23.18C22.5242 23.18 21.3482 22.664 20.5202 21.632C19.7042 20.588 19.2962 19.064 19.2962 17.06C19.2962 15.056 19.7042 13.538 20.5202 12.506C21.3482 11.462 22.5242 10.94 24.0482 10.94C25.5722 10.94 26.7422 11.462 27.5582 12.506C28.3862 13.538 28.8002 15.056 28.8002 17.06C28.8002 19.064 28.3862 20.588 27.5582 21.632C26.7422 22.664 25.5722 23.18 24.0482 23.18ZM24.0482 21.182C24.8162 21.182 25.3862 20.852 25.7582 20.192C26.1302 19.52 26.3162 18.476 26.3162 17.06C26.3162 15.644 26.1302 14.606 25.7582 13.946C25.3862 13.274 24.8162 12.938 24.0482 12.938C23.2802 12.938 22.7102 13.274 22.3382 13.946C21.9662 14.606 21.7802 15.644 21.7802 17.06C21.7802 18.476 21.9662 19.52 22.3382 20.192C22.7102 20.852 23.2802 21.182 24.0482 21.182Z" fill="white"/>
</g>
<defs>
<clipPath id="clip0">
<rect width="35" height="35" fill="white"/>
</clipPath>
</defs>
</svg>
