<svg xmlns="http://www.w3.org/2000/svg" width="35" height="35" viewBox="0 0 35 35"><defs><style>.a{fill:#95a1ac;}.b{fill:#fff;font-size:18px;font-family:WorkSans-SemiBold, Work Sans;font-weight:600;}</style></defs><g transform="translate(-11951 -868)"><path class="a" d="M35,17.5a6.013,6.013,0,0,0-3.9-5.633A6.015,6.015,0,0,0,23.133,3.9a6.016,6.016,0,0,0-11.266,0A6.015,6.015,0,0,0,3.9,11.867a6.016,6.016,0,0,0,0,11.266A6.015,6.015,0,0,0,11.867,31.1a6.016,6.016,0,0,0,11.266,0A6.015,6.015,0,0,0,31.1,23.133,6.013,6.013,0,0,0,35,17.5Z" transform="translate(11951 868)"/><text class="b" transform="translate(11980 892)"><tspan x="-21.924" y="0">50</tspan></text></g></svg>