<svg xmlns="http://www.w3.org/2000/svg" width="15" height="15" viewBox="0 0 15 15"><path d="M7.513,7.206a.7.7,0,0,0-.7.7A21.423,21.423,0,0,1,6,14.107a.7.7,0,1,0,1.354.38,22.675,22.675,0,0,0,.864-6.578A.7.7,0,0,0,7.513,7.206ZM7.488,4.812A2.93,2.93,0,0,0,4.465,7.773a19.222,19.222,0,0,1-.392,4.176.7.7,0,1,0,1.377.285,20.626,20.626,0,0,0,.421-4.483,1.527,1.527,0,0,1,1.6-1.533A1.7,1.7,0,0,1,9.155,7.843a23.553,23.553,0,0,1-.311,4.206.7.7,0,1,0,1.387.229,24.99,24.99,0,0,0,.33-4.456A3.113,3.113,0,0,0,7.488,4.812ZM4.245,4.232a.7.7,0,0,0-.989.1A5.081,5.081,0,0,0,2.12,7.615,17.014,17.014,0,0,1,1.853,10.9a.7.7,0,0,0,1.384.25,18.427,18.427,0,0,0,.289-3.555,3.621,3.621,0,0,1,.82-2.372.7.7,0,0,0-.1-.989ZM7.452,2.406a5.237,5.237,0,0,0-1.341.146A.7.7,0,0,0,6.435,3.92a4.2,4.2,0,0,1,1-.108A4.1,4.1,0,0,1,11.5,7.755a25.813,25.813,0,0,1-.163,3.329.7.7,0,1,0,1.4.16,27.219,27.219,0,0,0,.173-3.511A5.518,5.518,0,0,0,7.452,2.406Zm7.385,3.558a.7.7,0,1,0-1.373.3,7.306,7.306,0,0,1,.138,1.8.7.7,0,0,0,.7.709H14.3a.7.7,0,0,0,.7-.7,8.706,8.706,0,0,0-.171-2.119ZM13.661,3.306A7.793,7.793,0,0,0,7.416,0,7.338,7.338,0,0,0,2.073,2.137,6.987,6.987,0,0,0,.013,7.226l0,.629a.7.7,0,0,0,.682.723H.713a.7.7,0,0,0,.7-.683l0-.693A5.589,5.589,0,0,1,3.069,3.132,5.937,5.937,0,0,1,7.4,1.407a6.383,6.383,0,0,1,5.116,2.707.7.7,0,1,0,1.15-.808Z" transform="translate(-0.01 0)"/></svg>