<svg xmlns="http://www.w3.org/2000/svg" width="15" height="12" viewBox="0 0 15 12">
  <path id="truck-solid" d="M14.625,8.25H14.25V5.716a1.125,1.125,0,0,0-.33-.795L11.578,2.58a1.125,1.125,0,0,0-.795-.33H9.75V1.125A1.125,1.125,0,0,0,8.625,0h-7.5A1.125,1.125,0,0,0,0,1.125v7.5A1.125,1.125,0,0,0,1.125,9.75H1.5a2.25,2.25,0,0,0,4.5,0H9a2.25,2.25,0,0,0,4.5,0h1.125A.376.376,0,0,0,15,9.375v-.75A.376.376,0,0,0,14.625,8.25ZM3.75,10.875A1.125,1.125,0,1,1,4.875,9.75,1.125,1.125,0,0,1,3.75,10.875Zm7.5,0A1.125,1.125,0,1,1,12.375,9.75,1.125,1.125,0,0,1,11.25,10.875ZM13.125,6H9.75V3.375h1.034l2.341,2.341Z" fill="#636d76"/>
</svg>
