<svg xmlns="http://www.w3.org/2000/svg" width="28.571" height="20" viewBox="0 0 28.571 20">
  <path id="truck-container-solid" d="M15.714,32a2.143,2.143,0,0,1,2.143,2.143v7.143a2.143,2.143,0,0,1-2.143,2.143H2.143A2.143,2.143,0,0,1,0,41.286V34.143A2.143,2.143,0,0,1,2.143,32ZM3.571,34.143a.714.714,0,0,0-.714.714v5.714a.714.714,0,1,0,1.429,0V34.857A.714.714,0,0,0,3.571,34.143ZM10,40.571a.714.714,0,1,0,1.429,0V34.857a.714.714,0,1,0-1.429,0ZM7.143,34.143a.715.715,0,0,0-.714.714v5.714a.714.714,0,1,0,1.429,0V34.857A.715.715,0,0,0,7.143,34.143Zm6.429,6.429a.714.714,0,1,0,1.429,0V34.857a.714.714,0,1,0-1.429,0Zm5.714-2.5A1.069,1.069,0,0,1,20.357,37h3.25a2.508,2.508,0,0,1,1.938.915l2.585,3.21a1.626,1.626,0,0,1,.442,1.129v4.031a1.427,1.427,0,0,1-1.429,1.429h-.071a3.762,3.762,0,0,1,.071.714,3.571,3.571,0,0,1-7.143,0,3.762,3.762,0,0,1,.071-.714H12.786a3.762,3.762,0,0,1,.071.714,3.571,3.571,0,0,1-6.429,2.143A3.571,3.571,0,0,1,0,48.429V46.286a1.428,1.428,0,0,1,1.429-1.429H19.286ZM21.429,42h4.647l-2.192-2.728a.363.363,0,0,0-.277-.129H21.429Zm2.143,5A1.429,1.429,0,1,0,25,48.429,1.427,1.427,0,0,0,23.571,47ZM9.286,49.857a1.429,1.429,0,1,0-1.429-1.429A1.427,1.427,0,0,0,9.286,49.857ZM3.571,47A1.429,1.429,0,1,0,5,48.429,1.428,1.428,0,0,0,3.571,47Z" transform="translate(0 -32)"/>
</svg>
