<svg xmlns="http://www.w3.org/2000/svg" width="25" height="25" viewBox="0 0 25 25">
  <path id="unlink-regular" d="M14.848,18.991a.586.586,0,0,1,0,.829L11.671,23A6.836,6.836,0,0,1,2,13.329L5.18,10.153a.586.586,0,0,1,.829,0l1.1,1.1a.586.586,0,0,1,0,.829l-3.14,3.14a4.1,4.1,0,1,0,5.764,5.837l3.177-3.177a.586.586,0,0,1,.829,0l1.1,1.1ZM12.086,7.114l3.14-3.14a4.1,4.1,0,1,1,5.837,5.764l-3.177,3.177a.586.586,0,0,0,0,.829l1.1,1.1a.586.586,0,0,0,.829,0L23,11.672A6.836,6.836,0,0,0,13.329,2L10.152,5.181a.586.586,0,0,0,0,.829l1.1,1.1a.586.586,0,0,0,.829,0ZM23.723,24.829l1.1-1.1a.586.586,0,0,0,0-.829L2.105.172a.586.586,0,0,0-.829,0l-1.1,1.1a.586.586,0,0,0,0,.829L22.895,24.829a.586.586,0,0,0,.829,0Z" transform="translate(0 0)" fill="#1e1e1e"/>
</svg>
