<svg xmlns="http://www.w3.org/2000/svg" width="12.107" height="12" viewBox="0 0 12.107 12"><defs><style>.a{fill:#eb675e;}</style></defs><g transform="translate(-1561.923 -1261.901)"><path class="a" d="M6.012,5.765a.563.563,0,0,0-.563.563A17.138,17.138,0,0,1,4.8,11.286a.562.562,0,1,0,1.083.3,18.14,18.14,0,0,0,.691-5.262A.562.562,0,0,0,6.012,5.765Zm-.02-1.916A2.344,2.344,0,0,0,3.574,6.219,15.377,15.377,0,0,1,3.261,9.56a.562.562,0,0,0,1.1.228A16.5,16.5,0,0,0,4.7,6.2,1.221,1.221,0,0,1,5.975,4.974a1.357,1.357,0,0,1,1.35,1.3,18.843,18.843,0,0,1-.249,3.364.562.562,0,1,0,1.11.183,19.992,19.992,0,0,0,.264-3.565A2.49,2.49,0,0,0,5.992,3.849ZM3.4,3.386a.563.563,0,0,0-.791.082A4.065,4.065,0,0,0,1.7,6.092a13.611,13.611,0,0,1-.214,2.626.563.563,0,0,0,1.107.2,14.742,14.742,0,0,0,.231-2.844,2.9,2.9,0,0,1,.656-1.9A.563.563,0,0,0,3.4,3.386ZM5.963,1.925a4.189,4.189,0,0,0-1.073.116.563.563,0,0,0,.259,1.1,3.364,3.364,0,0,1,.8-.086A3.281,3.281,0,0,1,9.2,6.2a20.651,20.651,0,0,1-.131,2.663A.563.563,0,1,0,10.188,9a21.776,21.776,0,0,0,.138-2.809A4.414,4.414,0,0,0,5.963,1.925Zm5.908,2.847a.562.562,0,1,0-1.1.242,5.845,5.845,0,0,1,.11,1.444.562.562,0,0,0,.558.567h0a.562.562,0,0,0,.563-.558,6.965,6.965,0,0,0-.137-1.7Zm-.94-2.126A6.235,6.235,0,0,0,5.934,0,5.871,5.871,0,0,0,1.661,1.71,5.59,5.59,0,0,0,.012,5.781l0,.5a.562.562,0,0,0,.546.579H.572a.563.563,0,0,0,.562-.546l0-.554A4.471,4.471,0,0,1,2.457,2.505a4.75,4.75,0,0,1,3.461-1.38,5.106,5.106,0,0,1,4.093,2.165.562.562,0,1,0,.92-.646Z" transform="translate(1561.913 1261.901)"/><path class="a" d="M11.151,9.534.12,1.007A.3.3,0,0,1,.067.586L.435.113A.3.3,0,0,1,.856.06L11.888,8.586a.3.3,0,0,1,.053.421l-.368.474a.3.3,0,0,1-.421.053Z" transform="translate(1562.026 1262.995)"/></g></svg>