<svg width="15" height="15" viewBox="0 0 15 15" fill="none" xmlns="http://www.w3.org/2000/svg">
<g clip-path="url(#clip0)">
<path d="M7.503 7.20602C7.31735 7.20602 7.1393 7.27977 7.00803 7.41104C6.87675 7.54232 6.803 7.72037 6.803 7.90602C6.8368 10.0017 6.56288 12.0909 5.99 14.107C5.96505 14.1959 5.95785 14.2889 5.96882 14.3806C5.97979 14.4722 6.00872 14.5609 6.05394 14.6414C6.09916 14.7219 6.1598 14.7927 6.23239 14.8498C6.30498 14.9068 6.38809 14.9491 6.477 14.974C6.5659 14.999 6.65885 15.0062 6.75054 14.9952C6.84223 14.9842 6.93085 14.9553 7.01136 14.9101C7.09187 14.8649 7.16268 14.8042 7.21976 14.7316C7.27683 14.659 7.31905 14.5759 7.344 14.487C7.95295 12.3486 8.24407 10.1322 8.208 7.90902C8.2084 7.81642 8.19042 7.72466 8.15511 7.63906C8.1198 7.55345 8.06785 7.47571 8.00228 7.41032C7.93671 7.34494 7.85881 7.29321 7.77311 7.25814C7.68741 7.22307 7.5956 7.20535 7.503 7.20602V7.20602ZM7.478 4.81202C7.08285 4.79944 6.68924 4.86697 6.32088 5.01053C5.95251 5.15409 5.61701 5.37071 5.33457 5.64736C5.05214 5.924 4.82861 6.25494 4.67745 6.62025C4.52628 6.98557 4.45062 7.37769 4.455 7.77302C4.47705 9.17515 4.3456 10.5755 4.063 11.949C4.02521 12.1316 4.0615 12.3218 4.16389 12.4776C4.26629 12.6334 4.4264 12.7422 4.609 12.78C4.7916 12.8178 4.98174 12.7815 5.13758 12.6791C5.29342 12.5767 5.40221 12.4166 5.44 12.234C5.74351 10.7595 5.88468 9.25624 5.861 7.75102C5.85995 7.54369 5.90113 7.33832 5.98203 7.14743C6.06293 6.95653 6.18186 6.78412 6.33156 6.64068C6.48127 6.49724 6.65861 6.3858 6.85279 6.31313C7.04697 6.24047 7.25391 6.2081 7.461 6.21802C7.8964 6.22169 8.31379 6.39229 8.62711 6.69464C8.94044 6.99698 9.12581 7.40803 9.145 7.84302C9.16732 9.2515 9.06323 10.6591 8.834 12.049C8.80363 12.2329 8.84757 12.4214 8.95616 12.5729C9.06474 12.7245 9.22907 12.8267 9.413 12.857C9.59693 12.8874 9.78539 12.8434 9.93691 12.7349C10.0884 12.6263 10.1906 12.4619 10.221 12.278C10.4638 10.8055 10.5743 9.31422 10.551 7.82202C10.5246 7.02125 10.1904 6.26152 9.61801 5.70088C9.04563 5.14024 8.27914 4.82188 7.478 4.81202V4.81202ZM4.235 4.23202C4.16365 4.17328 4.08138 4.12925 3.99294 4.10247C3.90449 4.07569 3.81161 4.06669 3.71967 4.07599C3.62772 4.08528 3.53853 4.11269 3.45723 4.15664C3.37594 4.20058 3.30414 4.26019 3.246 4.33202C2.49337 5.25889 2.09118 6.4212 2.11 7.61502C2.12752 8.71608 2.0381 9.81624 1.843 10.9C1.82658 10.9909 1.82823 11.0841 1.84784 11.1743C1.86745 11.2646 1.90464 11.3501 1.95729 11.4259C2.00994 11.5018 2.07702 11.5666 2.1547 11.6165C2.23237 11.6664 2.31913 11.7006 2.41 11.717C2.59353 11.7502 2.78271 11.7091 2.93593 11.6027C3.01179 11.5501 3.07655 11.483 3.12649 11.4053C3.17643 11.3276 3.21058 11.2409 3.227 11.15C3.43806 9.97715 3.53485 8.78657 3.516 7.59502C3.49782 6.73188 3.78864 5.89065 4.336 5.22302C4.39474 5.15167 4.43877 5.0694 4.46555 4.98095C4.49233 4.89251 4.50133 4.79963 4.49203 4.70768C4.48273 4.61574 4.45532 4.52655 4.41138 4.44525C4.36744 4.36395 4.30783 4.29216 4.236 4.23402L4.235 4.23202ZM7.442 2.40602C6.99058 2.39667 6.53984 2.44575 6.101 2.55202C5.91959 2.59498 5.76268 2.70825 5.66479 2.86691C5.56689 3.02556 5.53603 3.21661 5.579 3.39802C5.62197 3.57943 5.73523 3.73634 5.89389 3.83423C6.05255 3.93212 6.24359 3.96298 6.425 3.92002C6.7528 3.84409 7.08854 3.80783 7.425 3.81202C8.47966 3.82025 9.49059 4.23459 10.2476 4.96893C11.0047 5.70326 11.4496 6.7011 11.49 7.75502C11.5074 8.86704 11.453 9.97902 11.327 11.084C11.3165 11.1759 11.3242 11.269 11.3497 11.358C11.3751 11.4469 11.4179 11.53 11.4755 11.6024C11.533 11.6749 11.6043 11.7352 11.6852 11.7801C11.7661 11.825 11.8551 11.8535 11.947 11.864C12.0389 11.8745 12.132 11.8668 12.221 11.8413C12.3099 11.8159 12.393 11.7731 12.4654 11.7156C12.5378 11.658 12.5982 11.5867 12.6431 11.5058C12.688 11.4249 12.7165 11.3359 12.727 11.244C12.8603 10.0786 12.918 8.90586 12.9 7.73302C12.8509 6.31323 12.2561 4.96708 11.2394 3.97481C10.2228 2.98254 8.86256 2.42062 7.442 2.40602V2.40602ZM14.827 5.96402C14.8073 5.87386 14.77 5.78848 14.7173 5.71272C14.6646 5.63697 14.5975 5.57234 14.5199 5.52252C14.4422 5.4727 14.3555 5.43867 14.2646 5.42237C14.1738 5.40607 14.0807 5.40782 13.9905 5.42752C13.9003 5.44722 13.815 5.48448 13.7392 5.53718C13.6635 5.58987 13.5988 5.65698 13.549 5.73465C13.4992 5.81233 13.4652 5.89906 13.4489 5.98989C13.4326 6.08071 13.4343 6.17386 13.454 6.26402C13.5742 6.856 13.6206 7.46062 13.592 8.06402C13.5908 8.1567 13.608 8.24869 13.6427 8.33466C13.6773 8.42063 13.7287 8.49886 13.7938 8.56482C13.8589 8.63078 13.9365 8.68315 14.022 8.71889C14.1075 8.75463 14.1993 8.77302 14.292 8.77302H14.29C14.4757 8.77302 14.6537 8.69927 14.785 8.56799C14.9162 8.43672 14.99 8.25867 14.99 8.07302C15.0198 7.36235 14.9623 6.65071 14.819 5.95402L14.827 5.96402ZM13.651 3.30602C12.9441 2.30191 12.01 1.47906 10.9247 0.904536C9.83947 0.330014 8.63379 0.020086 7.406 1.70534e-05C6.41737 -0.0221747 5.43445 0.155687 4.51628 0.522919C3.59812 0.890151 2.76365 1.43918 2.063 2.13702C1.3938 2.80222 0.866264 3.59608 0.512218 4.47071C0.158172 5.34534 -0.0150498 6.28262 0.00299996 7.22602V7.85502C-6.52088e-05 7.94736 0.0151823 8.0394 0.0478631 8.12583C0.0805439 8.21225 0.130011 8.29135 0.193413 8.35857C0.256814 8.42578 0.332894 8.47977 0.417266 8.51744C0.501638 8.5551 0.592632 8.57569 0.685 8.57802H0.703C0.885743 8.57807 1.06126 8.50666 1.19206 8.37904C1.32286 8.25142 1.39856 8.07771 1.403 7.89502V7.20202C1.38973 6.44692 1.52963 5.69697 1.81425 4.99745C2.09887 4.29793 2.52231 3.66334 3.059 3.13202C3.62716 2.56713 4.30378 2.12309 5.0481 1.82663C5.79243 1.53018 6.58905 1.38744 7.39 1.40702C8.39573 1.42322 9.38339 1.67687 10.2725 2.1473C11.1615 2.61773 11.9269 3.29162 12.506 4.11402C12.5591 4.18953 12.6265 4.25385 12.7044 4.30331C12.7823 4.35277 12.8692 4.3864 12.9601 4.40227C13.051 4.41815 13.1441 4.41597 13.2342 4.39585C13.3243 4.37573 13.4095 4.33807 13.485 4.28502C13.5605 4.23196 13.6248 4.16456 13.6743 4.08664C13.7237 4.00873 13.7574 3.92184 13.7733 3.83093C13.7891 3.74002 13.787 3.64688 13.7668 3.55681C13.7467 3.46675 13.7091 3.38153 13.656 3.30602H13.651Z" fill="#DEDEDF"/>
<g clip-path="url(#clip1)">
<path d="M14.5021 0.789551L0.498677 16.2105" stroke="#FD8373" stroke-width="2"/>
</g>
</g>
<defs>
<clipPath id="clip0">
<rect width="15" height="15" fill="white"/>
</clipPath>
<clipPath id="clip1">
<rect width="15" height="17" fill="white"/>
</clipPath>
</defs>
</svg>
