<svg xmlns="http://www.w3.org/2000/svg" width="15" height="12" viewBox="0 0 15 12"><defs><style>.a{fill:#636d76;}</style></defs><path class="a" d="M5.25,6a3,3,0,1,0-3-3A3,3,0,0,0,5.25,6ZM7.5,7.5a1.478,1.478,0,0,1,.19-.715,3.207,3.207,0,0,0-.34-.035H6.959a4.08,4.08,0,0,1-3.417,0H3.15A3.151,3.151,0,0,0,0,9.9v.976A1.125,1.125,0,0,0,1.125,12H7.709a1.49,1.49,0,0,1-.209-.75Zm6.75-.75H10.875V4.891a.76.76,0,0,1,.729-.765.75.75,0,0,1,.771.75.375.375,0,0,0,.375.375h.4A.352.352,0,0,0,13.5,4.9h0a1.875,1.875,0,1,0-3.75-.023V6.75H9a.75.75,0,0,0-.75.75v3.75A.75.75,0,0,0,9,12h5.25a.75.75,0,0,0,.75-.75V7.5A.75.75,0,0,0,14.25,6.75Zm-2.625,3.375a.75.75,0,1,1,.75-.75A.75.75,0,0,1,11.625,10.125Z"/></svg>