<svg xmlns="http://www.w3.org/2000/svg" width="15" height="12" viewBox="0 0 15 12">
  <path id="sitemap-regular" d="M2.438,6.375h4.5V7.5H8.063V6.375h4.5V7.5h1.125V6.15a.9.9,0,0,0-.9-.9H8.063V3.75H9A.75.75,0,0,0,9.75,3V.75A.75.75,0,0,0,9,0H6a.75.75,0,0,0-.75.75V3A.75.75,0,0,0,6,3.75h.938v1.5H2.213a.9.9,0,0,0-.9.9V7.5H2.438Zm3.938-3.75v-1.5h2.25v1.5ZM14.25,8.25H12a.75.75,0,0,0-.75.75v2.25A.75.75,0,0,0,12,12h2.25a.75.75,0,0,0,.75-.75V9A.75.75,0,0,0,14.25,8.25Zm-.375,2.625h-1.5v-1.5h1.5ZM8.625,8.25H6.375a.75.75,0,0,0-.75.75v2.25a.75.75,0,0,0,.75.75h2.25a.75.75,0,0,0,.75-.75V9A.75.75,0,0,0,8.625,8.25ZM8.25,10.875H6.75v-1.5h1.5ZM3,8.25H.75A.75.75,0,0,0,0,9v2.25A.75.75,0,0,0,.75,12H3a.75.75,0,0,0,.75-.75V9A.75.75,0,0,0,3,8.25Zm-.375,2.625h-1.5v-1.5h1.5Z" fill="#636d76"/>
</svg>
