<svg width="308" height="308" viewBox="0 0 308 308" fill="none" xmlns="http://www.w3.org/2000/svg">
<g clip-path="url(#clip0)">
<path d="M153.926 147.825C150.101 147.825 146.432 149.345 143.727 152.05C141.022 154.755 139.502 158.423 139.502 162.249C140.199 205.216 134.59 248.054 122.854 289.393C121.213 295.235 124.146 307.718 136.754 307.718C139.898 307.715 142.956 306.684 145.461 304.783C147.966 302.882 149.781 300.215 150.631 297.188C163.119 253.32 169.088 207.855 168.345 162.25C168.346 160.356 167.974 158.48 167.25 156.73C166.526 154.979 165.464 153.389 164.125 152.049C162.786 150.709 161.196 149.647 159.446 148.922C157.696 148.197 155.82 147.824 153.926 147.825V147.825ZM153.409 98.7C116.591 98.658 90.898 126.99 91.409 159.456C91.8637 188.222 89.169 216.951 83.373 245.13C82.981 246.988 82.9598 248.905 83.3105 250.771C83.6612 252.638 84.377 254.416 85.4168 256.005C86.4566 257.594 87.7999 258.962 89.3697 260.03C90.9395 261.099 92.7048 261.847 94.5643 262.231C96.4239 262.616 98.3411 262.63 100.206 262.271C102.071 261.913 103.846 261.19 105.431 260.144C107.016 259.098 108.378 257.749 109.441 256.175C110.503 254.601 111.244 252.833 111.621 250.972C117.848 220.723 120.744 189.884 120.258 159.005C120.012 143.405 132.23 127.458 152.983 127.548C171.801 127.83 187.331 142.778 187.613 160.886C188.071 189.777 185.937 218.651 181.236 247.161C180.613 250.934 181.514 254.8 183.741 257.909C185.968 261.017 189.339 263.114 193.112 263.737C205.112 265.737 209.225 254.662 209.688 251.855C214.671 221.645 216.938 191.049 216.461 160.435C215.932 126.898 187.648 99.204 153.409 98.699V98.7ZM86.883 86.816C83.9133 84.4059 80.1087 83.2726 76.3043 83.6649C72.4999 84.0571 69.0065 85.9427 66.591 88.908C51.1651 107.915 42.9205 131.745 43.302 156.221C43.6591 178.793 41.8255 201.347 37.827 223.565C37.149 227.331 37.9938 231.211 40.1757 234.354C42.3576 237.497 45.698 239.646 49.463 240.327C61.549 242.427 65.732 231.427 66.225 228.691C70.5534 204.633 72.538 180.211 72.151 155.77C71.7792 138.061 77.7481 120.802 88.981 107.107C91.3908 104.137 92.5232 100.332 92.1294 96.5275C91.7357 92.7231 89.848 89.2305 86.881 86.817L86.883 86.816ZM152.676 49.355C143.414 49.1602 134.166 50.1642 125.162 52.342C121.466 53.2491 118.277 55.58 116.292 58.827C114.306 62.074 113.684 65.9742 114.561 69.6779C115.437 73.3816 117.742 76.5888 120.973 78.601C124.203 80.6132 128.098 81.2674 131.809 80.421C138.507 78.8689 145.367 78.1233 152.243 78.2C197.577 78.879 235.021 115.162 235.712 159.084C236.066 181.897 234.946 204.709 232.358 227.377C231.923 231.178 233.016 234.995 235.395 237.991C237.774 240.986 241.245 242.915 245.045 243.352C255.094 244.524 260.377 236.212 261.02 230.665C263.751 206.756 264.933 182.696 264.56 158.634C263.623 99.284 213.432 50.253 152.675 49.352L152.676 49.355ZM304.176 122.348C303.768 120.498 303 118.747 301.915 117.195C300.83 115.642 299.45 114.318 297.854 113.299C296.257 112.279 294.476 111.584 292.611 111.254C290.746 110.923 288.834 110.962 286.984 111.37C285.135 111.779 283.384 112.547 281.831 113.632C280.278 114.716 278.955 116.096 277.935 117.693C276.916 119.289 276.221 121.071 275.89 122.936C275.559 124.801 275.599 126.712 276.007 128.562C278.838 141.43 278.958 151.046 278.832 165.584C278.816 167.478 279.173 169.357 279.882 171.113C280.592 172.869 281.641 174.468 282.969 175.819C284.297 177.169 285.878 178.245 287.622 178.985C289.366 179.724 291.238 180.113 293.132 180.129H293.252C297.056 180.13 300.707 178.627 303.408 175.949C306.11 173.27 307.644 169.633 307.676 165.829C307.784 152.499 307.916 139.318 304.176 122.352V122.348ZM280.061 67.824C265.558 47.2257 246.392 30.3463 224.127 18.5618C201.861 6.77731 177.126 0.421321 151.937 0.0119877C109.991 -0.493012 71.197 14.971 42.342 43.838C28.6127 57.4845 17.7899 73.7706 10.5262 91.7139C3.26261 109.657 -0.291255 128.886 0.0789957 148.24L0.0069957 161.14C-0.0495092 163.033 0.267674 164.919 0.940415 166.69C1.61316 168.46 2.62826 170.081 3.92771 171.459C5.22716 172.837 6.78547 173.946 8.51356 174.721C10.2417 175.497 12.1057 175.924 13.999 175.979C14.137 175.991 14.287 175.991 14.432 175.991C18.1816 175.986 21.7821 174.523 24.4711 171.909C27.1601 169.296 28.7263 165.739 28.838 161.991L28.938 147.783C28.6399 132.296 31.483 116.908 37.2959 102.55C43.1087 88.1917 51.7707 75.1602 62.759 64.242C86.059 40.923 117.659 28.38 151.517 28.866C172.148 29.1978 192.409 34.4008 210.647 44.0506C228.885 53.7004 244.584 67.5239 256.465 84.394C257.553 85.9436 258.936 87.2637 260.534 88.279C262.132 89.2943 263.914 89.9848 265.78 90.3112C267.645 90.6376 269.556 90.5935 271.404 90.1813C273.252 89.7691 275 88.997 276.55 87.909C278.1 86.821 279.42 85.4384 280.435 83.8402C281.45 82.242 282.141 80.4595 282.467 78.5945C282.794 76.7294 282.749 74.8183 282.337 72.9703C281.925 71.1223 281.153 69.3736 280.065 67.824H280.061Z" fill="white"/>
</g>
<defs>
<clipPath id="clip0">
<rect width="307.715" height="307.719" fill="white"/>
</clipPath>
</defs>
</svg>
