<svg xmlns="http://www.w3.org/2000/svg" width="30" height="26.69" viewBox="0 0 30 26.69"><defs><style>.a{fill:#fff;}.b,.c{fill:#3b4557;}.c{font-size:10px;font-family:WorkSans-ExtraBold, Work Sans;font-weight:800;}</style></defs><g transform="translate(-1327.5 -216)"><path class="a" d="M11.667,7.083V0H1.25A1.247,1.247,0,0,0,0,1.25V25.417a1.247,1.247,0,0,0,1.25,1.25h17.5A1.247,1.247,0,0,0,20,25.417V8.333H12.917A1.254,1.254,0,0,1,11.667,7.083ZM20,6.349v.318H13.333V0h.318a1.249,1.249,0,0,1,.885.365l5.1,5.1A1.246,1.246,0,0,1,20,6.349Z" transform="translate(1327.5 216.024)"/><ellipse class="b" cx="8" cy="8.286" rx="8" ry="8.286" transform="translate(1341.5 225)"/><path class="a" d="M13.81,12.106,11.083,9.38a.656.656,0,0,0-.465-.191h-.446a5.685,5.685,0,1,0-.984.984v.446a.656.656,0,0,0,.191.465l2.726,2.726a.654.654,0,0,0,.927,0l.774-.774A.659.659,0,0,0,13.81,12.106ZM5.688,9.188a3.5,3.5,0,1,1,3.5-3.5A3.5,3.5,0,0,1,5.688,9.188Z" transform="translate(1343.5 227.569)"/><text class="c" transform="translate(1331 225)"><tspan x="0" y="0">c</tspan><tspan x="0" y="7">s</tspan><tspan x="0" y="14">v</tspan></text></g></svg>