<svg xmlns="http://www.w3.org/2000/svg" width="18.75" height="25" viewBox="0 0 18.75 25">
  <path id="file-chart-line-solid" d="M18.408,5.127,13.628.342A1.171,1.171,0,0,0,12.8,0h-.3V6.25h6.25v-.3A1.168,1.168,0,0,0,18.408,5.127ZM10.938,6.641V0H1.172A1.169,1.169,0,0,0,0,1.172V23.828A1.169,1.169,0,0,0,1.172,25H17.578a1.169,1.169,0,0,0,1.172-1.172V7.812H12.109A1.175,1.175,0,0,1,10.938,6.641ZM6.25,21.25a.672.672,0,0,1-.625.625H3.75a.672.672,0,0,1-.625-.625V17.813a.672.672,0,0,1,.625-.625H5.625a.672.672,0,0,1,.625.625Zm4.688,0a.672.672,0,0,1-.625.625H8.437a.672.672,0,0,1-.625-.625V11.563a.672.672,0,0,1,.625-.625h1.875a.672.672,0,0,1,.625.625V21.25ZM12.5,14.688a.672.672,0,0,1,.625-.625H15a.672.672,0,0,1,.625.625V21.25a.672.672,0,0,1-.625.625H13.125a.672.672,0,0,1-.625-.625V14.687Z" fill="#fff"/>
</svg>
