<svg xmlns="http://www.w3.org/2000/svg" width="30.192" height="27" viewBox="0 0 30.192 27">
  <g id="Group_4481" data-name="Group 4481" transform="translate(-1327.5 -215.69)">
    <path id="file-solid" d="M12,6.666v-7H1c-.693,0-1,1.307-1,2v24c0,.693.307,1,1,1H19c.693,0,1-.307,1-1v-17H13C12.313,8.666,12,7.354,12,6.666Zm8,0H13v-7h1c.333,0,.766.766,1,1l5,5C20.234,5.9,20,6.338,20,6.666Z" transform="translate(1327.5 216.024)" fill="#fff"/>
    <ellipse id="Ellipse_4" data-name="Ellipse 4" cx="8" cy="8.5" rx="8" ry="8.5" transform="translate(1341.5 224.691)" fill="#1e1e1e"/>
    <path id="search-solid" d="M14,12.121l-3-3c-.123-.123.175,0,0,0H10a4.177,4.177,0,0,0,1-3c0-3.142-1.858-6-5-6a6.234,6.234,0,0,0-6,6c0,3.142,2.858,5,6,5a4.177,4.177,0,0,0,3-1H9c0,.175-.123.877,0,1l3,3a.745.745,0,0,0,1,0l1-1A.748.748,0,0,0,14,12.121Zm-8-3c-1.933,0-4-1.064-4-3a4.412,4.412,0,0,1,4-4c1.933,0,3,2.064,3,4A2.706,2.706,0,0,1,6,9.121Z" transform="translate(1343.5 227.569)" fill="#fff"/>
    <text id="c_s_v" data-name="c
s
v" transform="translate(1331.5 224.691)" fill="#1e1e1e" font-size="10" font-family="WorkSans-ExtraBold, Work Sans" font-weight="800"><tspan x="0" y="0">c</tspan><tspan x="0" y="7">s</tspan><tspan x="0" y="14">v</tspan></text>
  </g>
</svg>
