<svg xmlns="http://www.w3.org/2000/svg" xmlns:xlink="http://www.w3.org/1999/xlink" width="20" height="18.662" viewBox="0 0 20 18.662">
  <defs>
    <clipPath id="clip-path">
      <rect id="Rectangle_1695" data-name="Rectangle 1695" width="20" height="18.662" fill="#349AF8"/>
    </clipPath>
  </defs>
  <g id="Group_889" data-name="Group 889" clip-path="url(#clip-path)">
    <path id="Path_492" data-name="Path 492" d="M14.333,13a1.335,1.335,0,1,0,.943.391A1.333,1.333,0,0,0,14.333,13Zm0,2a.668.668,0,1,1,.471-.2.667.667,0,0,1-.471.2Z" transform="translate(-4.333 -4.333)" fill="#349AF8"/>
    <path id="Path_493" data-name="Path 493" d="M13.5,10.5a3,3,0,0,0-1.522,5.582.333.333,0,0,0,.34-.573,2.333,2.333,0,1,1,2.364,0,.333.333,0,0,0,.17.62.329.329,0,0,0,.169-.047A3,3,0,0,0,13.5,10.5Z" transform="translate(-3.5 -3.5)" fill="#349AF8"/>
    <path id="Path_494" data-name="Path 494" d="M10,0A10,10,0,0,0,4.926,18.616a.333.333,0,0,0,.339-.574,9.333,9.333,0,1,1,9.472,0,.333.333,0,0,0,.339.574A10,10,0,0,0,10,0Z" transform="translate(-0.001)" fill="#349AF8"/>
    <path id="Path_495" data-name="Path 495" d="M18.834,11.164a7.666,7.666,0,1,0-11.557,6.6.333.333,0,1,0,.34-.573,7,7,0,1,1,7.1,0,.333.333,0,1,0,.34.573,7.709,7.709,0,0,0,3.777-6.6Z" transform="translate(-1.167 -1.165)" fill="#349AF8"/>
    <path id="Path_496" data-name="Path 496" d="M17.666,12.329a5.333,5.333,0,1,0-8.037,4.59.333.333,0,1,0,.34-.573,4.667,4.667,0,1,1,4.729,0,.333.333,0,0,0,.34.573,5.359,5.359,0,0,0,2.629-4.59Z" transform="translate(-2.333 -2.329)" fill="#349AF8"/>
  </g>
</svg>
