<svg xmlns="http://www.w3.org/2000/svg" width="10" height="13.333" viewBox="0 0 10 13.333"><defs><style>.a{fill:#636d76;}</style></defs><path class="a" d="M5.833,3.542V0H.625A.624.624,0,0,0,0,.625V12.708a.624.624,0,0,0,.625.625h8.75A.624.624,0,0,0,10,12.708V4.167H6.458A.627.627,0,0,1,5.833,3.542ZM7.4,6.315,5.833,8.75,7.4,11.185a.313.313,0,0,1-.263.482H6.227a.314.314,0,0,1-.276-.164C5.44,10.56,5,9.714,5,9.714c-.167.385-.26.521-.953,1.792a.31.31,0,0,1-.273.164H2.865a.313.313,0,0,1-.263-.482l1.57-2.435L2.6,6.318a.312.312,0,0,1,.263-.482h.906A.314.314,0,0,1,4.047,6c.68,1.271.521.875.953,1.784,0,0,.159-.3.953-1.784a.314.314,0,0,1,.276-.164h.906a.311.311,0,0,1,.263.479ZM10,3.174v.159H6.667V0h.159a.625.625,0,0,1,.443.182L9.818,2.734A.623.623,0,0,1,10,3.174Z"/></svg>