<svg xmlns="http://www.w3.org/2000/svg" width="12" height="8.437" viewBox="0 0 12 8.437"><defs><style>.a{fill:red;}</style></defs><path class="a" d="M26.682,65.32a1.508,1.508,0,0,0-1.061-1.068A35.634,35.634,0,0,0,20.933,64a35.634,35.634,0,0,0-4.688.252,1.508,1.508,0,0,0-1.061,1.068,16.977,16.977,0,0,0,0,5.814,1.485,1.485,0,0,0,1.061,1.051,35.634,35.634,0,0,0,4.688.252,35.634,35.634,0,0,0,4.688-.252,1.485,1.485,0,0,0,1.061-1.051,16.977,16.977,0,0,0,0-5.814Zm-6.977,4.691V66.443l3.136,1.784Z" transform="translate(-14.934 -64)"/></svg>