<svg xmlns="http://www.w3.org/2000/svg" width="20" height="20" viewBox="0 0 20 20">
  <path id="zapier" d="M12.5,10a5.98,5.98,0,0,1-.384,2.111A6,6,0,0,1,10,12.5H10a6,6,0,0,1-2.111-.384A5.981,5.981,0,0,1,7.5,10V10a5.984,5.984,0,0,1,.384-2.111A5.976,5.976,0,0,1,10,7.5H10a5.975,5.975,0,0,1,2.112.385A5.977,5.977,0,0,1,12.5,10V10Zm7.361-1.671H14.024l4.127-4.128a10.041,10.041,0,0,0-1.08-1.277h0a10.078,10.078,0,0,0-1.277-1.079L11.666,5.976V.139A10.047,10.047,0,0,0,10.005,0h-.01A10.054,10.054,0,0,0,8.333.139V5.976L4.206,1.849a9.986,9.986,0,0,0-1.276,1.08l0,0A10.063,10.063,0,0,0,1.848,4.206L5.976,8.333H.139S0,9.43,0,10V10a10,10,0,0,0,.139,1.663H5.976L1.849,15.794a10.071,10.071,0,0,0,2.357,2.357l4.128-4.128v5.837A10.1,10.1,0,0,0,9.993,20h.014a10.09,10.09,0,0,0,1.659-.139V14.024l4.128,4.128a10.078,10.078,0,0,0,1.277-1.08h0a10.1,10.1,0,0,0,1.079-1.277l-4.128-4.128h5.838A10.055,10.055,0,0,0,20,10.007V9.993a10.055,10.055,0,0,0-.139-1.659Z" fill="#ff4a00"/>
</svg>
