<svg xmlns="http://www.w3.org/2000/svg" width="319.852" height="102.204" viewBox="0 0 319.852 102.204"><defs><style>.a,.b{fill:#3b4557;}.b{stroke:#fff;stroke-miterlimit:10;stroke-width:0.75px;}</style></defs><g transform="translate(-49.774 -17.036)"><path class="a" d="M58.963,99.925,98.9,89.175l-3.15-11.8,23.157-6.233,3.15,11.8a24.093,24.093,0,0,1-16.952,29.492h0l-39.939,10.75ZM50.6,68.572A24.092,24.092,0,0,1,67.555,39.08h0l39.939-10.75L113.7,51.59,73.76,62.34l3.685,13.825L54.288,82.4Z" transform="translate(0 -3.945)"/><path class="a" d="M221.043,91.4c0-6.942-4.007-11.339-11.925-13.3l-7.037-1.758q-4.838-1.323-5.575-3.521a4.659,4.659,0,0,1,.391-4.107c.882-1.562,3.811-2.545,6.451-2.545,3.421,0,6.255,1.663,6.646,4.888h9.582c-.491-9.09-7.629-13.494-16.625-13.494a18.455,18.455,0,0,0-11.144,3.521,11.2,11.2,0,0,0-5.185,8.5c-.687,7.528,3.408,12.523,12.889,15.163,0,0,12.341,2.1,12.234,6.545,0,3.421-3.421,5.474-8.114,5.474-5.185,0-8.5-2.545-9-6.552H185.35a13.476,13.476,0,0,0,5.38,10.955,19.627,19.627,0,0,0,12.12,4.007C213.515,105.193,221.043,100.009,221.043,91.4Z" transform="translate(-49.422 -14.567)"/><path class="a" d="M344.639,31.67l-9.733,5.7L334.56,95.3l10.06-.013Z" transform="translate(-103.945 -5.181)"/><path class="b" d="M272.353,105.2c9.09-.038,17.191-4.088,21.066-11.824l-8.605-4.158A13.856,13.856,0,0,1,272.8,96.4c-7.434.032-13.122-4.34-14.035-11.377l36.273-.164a33.237,33.237,0,0,0,.082-3.717c-.031-7.137-2.211-12.8-6.526-17.078-4.322-4.378-9.808-6.507-16.454-6.476a22.928,22.928,0,0,0-16.688,6.627c-4.479,4.321-6.7,10-6.671,17.141s2.306,12.9,6.822,17.273A23.022,23.022,0,0,0,272.353,105.2Zm-.271-37.564c6.942,0,12.146,4.007,13.128,9.657l-26.023-.12C260.491,71.524,266.135,67.631,272.082,67.631Z" transform="translate(-72.501 -14.576)"/><path class="a" d="M518.641,64.342a25.24,25.24,0,0,0-33.929,0c-4.592,4.4-6.841,10.073-6.841,17.11s2.249,12.807,6.841,17.3a24.847,24.847,0,0,0,33.829,0q7.04-6.747,7.036-17.3C525.583,74.415,523.233,68.745,518.641,64.342ZM511.5,91.719a13.428,13.428,0,0,1-9.878,3.912h0a13.325,13.325,0,0,1-9.777-3.912,13.923,13.923,0,0,1-4.007-10.268,13.245,13.245,0,0,1,4.007-9.972,13.668,13.668,0,0,1,9.777-3.811c7.824,0,13.884,5.575,13.884,13.783A13.943,13.943,0,0,1,511.5,91.719Z" transform="translate(-155.951 -14.649)"/><path class="b" d="M365.27,23.2V90.109l10.042.006.038-72.445Z" transform="translate(-115.154 0)"/><path class="a" d="M439.583,97.527V57.639l-9.871,5.1v2.621c-2.74-4.788-9.09-7.723-15.446-7.723a22.571,22.571,0,0,0-16.328,6.652q-6.747,6.6-6.747,17.3c0,7.037,2.249,12.713,6.747,17.11a22.519,22.519,0,0,0,16.328,6.552c6.356,0,12.807-2.936,15.446-7.919v2.343c0,12.026-5.084,17.992-15.251,17.992a14.649,14.649,0,0,1-12.807-7.629l-4.208,2.054-4.107,2.148a23.562,23.562,0,0,0,21.116,12.807C431.173,127.053,439.583,117.182,439.583,97.527Zm-14.369-5.764a14.314,14.314,0,0,1-9.777,3.811,13.38,13.38,0,0,1-9.871-3.912A13.7,13.7,0,0,1,401.559,81.5a13.633,13.633,0,0,1,4.007-10.073,13.494,13.494,0,0,1,9.871-4.007c7.919,0,14.08,5.374,14.08,14.073A13.467,13.467,0,0,1,425.214,91.763Z" transform="translate(-124.369 -14.371)"/></g></svg>